<svg width="34" height="34" viewBox="0 0 34 34" fill="none" xmlns="http://www.w3.org/2000/svg">
<path d="M8.40231 9.82601L10.2086 15.8454M18.1518 23.7915L24.1741 25.5978M16.5509 17.449L24.7095 9.29044M5.66669 7.79163C5.66669 8.07069 5.72165 8.34701 5.82844 8.60483C5.93523 8.86265 6.09176 9.0969 6.28908 9.29423C6.48641 9.49155 6.72067 9.64808 6.97848 9.75487C7.2363 9.86166 7.51263 9.91663 7.79169 9.91663C8.07075 9.91663 8.34707 9.86166 8.60489 9.75487C8.86271 9.64808 9.09696 9.49155 9.29429 9.29423C9.49161 9.0969 9.64814 8.86265 9.75493 8.60483C9.86172 8.34701 9.91669 8.07069 9.91669 7.79163C9.91669 7.51257 9.86172 7.23624 9.75493 6.97842C9.64814 6.72061 9.49161 6.48635 9.29429 6.28902C9.09696 6.0917 8.86271 5.93517 8.60489 5.82838C8.34707 5.72159 8.07075 5.66663 7.79169 5.66663C7.51263 5.66663 7.2363 5.72159 6.97848 5.82838C6.72067 5.93517 6.48641 6.0917 6.28908 6.28902C6.09176 6.48635 5.93523 6.72061 5.82844 6.97842C5.72165 7.23624 5.66669 7.51257 5.66669 7.79163ZM24.0834 7.79163C24.0834 8.35521 24.3072 8.89571 24.7058 9.29423C25.1043 9.69274 25.6448 9.91663 26.2084 9.91663C26.7719 9.91663 27.3124 9.69274 27.711 9.29423C28.1095 8.89571 28.3334 8.35521 28.3334 7.79163C28.3334 7.22804 28.1095 6.68754 27.711 6.28902C27.3124 5.89051 26.7719 5.66663 26.2084 5.66663C25.6448 5.66663 25.1043 5.89051 24.7058 6.28902C24.3072 6.68754 24.0834 7.22804 24.0834 7.79163ZM24.0834 26.2083C24.0834 26.7719 24.3072 27.3124 24.7058 27.7109C25.1043 28.1094 25.6448 28.3333 26.2084 28.3333C26.7719 28.3333 27.3124 28.1094 27.711 27.7109C28.1095 27.3124 28.3334 26.7719 28.3334 26.2083C28.3334 25.6447 28.1095 25.1042 27.711 24.7057C27.3124 24.3072 26.7719 24.0833 26.2084 24.0833C25.6448 24.0833 25.1043 24.3072 24.7058 24.7057C24.3072 25.1042 24.0834 25.6447 24.0834 26.2083ZM5.66669 21.9583C5.66669 23.649 6.33834 25.2706 7.53388 26.4661C8.72943 27.6616 10.3509 28.3333 12.0417 28.3333C13.7324 28.3333 15.3539 27.6616 16.5495 26.4661C17.745 25.2706 18.4167 23.649 18.4167 21.9583C18.4167 20.2675 17.745 18.646 16.5495 17.4505C15.3539 16.2549 13.7324 15.5833 12.0417 15.5833C10.3509 15.5833 8.72943 16.2549 7.53388 17.4505C6.33834 18.646 5.66669 20.2675 5.66669 21.9583Z" stroke="currentColor" stroke-width="2" stroke-linecap="round" stroke-linejoin="round"/>
</svg>
