<svg width="34" height="34" viewBox="0 0 34 34" fill="none" xmlns="http://www.w3.org/2000/svg">
<path d="M21.9583 18.4167C20.6433 18.4167 19.3821 18.9391 18.4523 19.8689C17.5224 20.7988 17 22.06 17 23.375M17 23.375V24.7917M17 23.375C17 22.06 16.4776 20.7988 15.5477 19.8689C14.6179 18.9391 13.3567 18.4167 12.0417 18.4167M17 23.375V9.20833M17 24.7917C17 26.1067 17.5224 27.3679 18.4523 28.2977C19.3821 29.2276 20.6433 29.75 21.9583 29.75C23.2734 29.75 24.5345 29.2276 25.4644 28.2977C26.3943 27.3679 26.9167 26.1067 26.9167 24.7917V22.2417M17 24.7917C17 26.1067 16.4776 27.3679 15.5477 28.2977C14.6179 29.2276 13.3567 29.75 12.0417 29.75C10.7266 29.75 9.46546 29.2276 8.5356 28.2977C7.60573 27.3679 7.08333 26.1067 7.08333 24.7917V22.2417M24.7917 22.6667C26.1067 22.6667 27.3679 22.1443 28.2977 21.2144C29.2276 20.2845 29.75 19.0234 29.75 17.7083C29.75 16.3933 29.2276 15.1321 28.2977 14.2023C27.3679 13.2724 26.1067 12.75 24.7917 12.75H24.0833M26.9167 13.175V9.20833C26.9167 7.8933 26.3943 6.63213 25.4644 5.70226C24.5345 4.77239 23.2734 4.25 21.9583 4.25C20.6433 4.25 19.3821 4.77239 18.4523 5.70226C17.5224 6.63213 17 7.8933 17 9.20833M17 9.20833C17 7.8933 16.4776 6.63213 15.5477 5.70226C14.6179 4.77239 13.3567 4.25 12.0417 4.25C10.7266 4.25 9.46546 4.77239 8.5356 5.70226C7.60573 6.63213 7.08333 7.8933 7.08333 9.20833V13.175M9.20833 22.6667C7.8933 22.6667 6.63213 22.1443 5.70226 21.2144C4.77239 20.2845 4.25 19.0234 4.25 17.7083C4.25 16.3933 4.77239 15.1321 5.70226 14.2023C6.63213 13.2724 7.8933 12.75 9.20833 12.75H9.91667" stroke="currentColor" stroke-width="2" stroke-linecap="round" stroke-linejoin="round"/>
</svg>
