<svg width="32" height="32" viewBox="0 0 32 32" fill="none" xmlns="http://www.w3.org/2000/svg">
<path d="M10.6667 14.6667V21.3333M10.6667 10.6667V10.68M16 21.3333V14.6667M21.3333 21.3333V17.3333C21.3333 16.6261 21.0524 15.9478 20.5523 15.4477C20.0522 14.9476 19.3739 14.6667 18.6667 14.6667C17.9594 14.6667 17.2812 14.9476 16.7811 15.4477C16.281 15.9478 16 16.6261 16 17.3333M5.33334 8.00001C5.33334 7.29277 5.61429 6.61449 6.11439 6.11439C6.61449 5.61429 7.29277 5.33334 8.00001 5.33334H24C24.7073 5.33334 25.3855 5.61429 25.8856 6.11439C26.3857 6.61449 26.6667 7.29277 26.6667 8.00001V24C26.6667 24.7073 26.3857 25.3855 25.8856 25.8856C25.3855 26.3857 24.7073 26.6667 24 26.6667H8.00001C7.29277 26.6667 6.61449 26.3857 6.11439 25.8856C5.61429 25.3855 5.33334 24.7073 5.33334 24V8.00001Z" stroke="currentColor" stroke-width="2" stroke-linecap="round" stroke-linejoin="round"/>
</svg>
