<svg width="32" height="32" viewBox="0 0 32 32" fill="none" xmlns="http://www.w3.org/2000/svg">
<path d="M21.9997 9.99992V10.0133M5.33301 10.6666C5.33301 9.2521 5.89491 7.89554 6.8951 6.89535C7.8953 5.89515 9.25185 5.33325 10.6663 5.33325H21.333C22.7475 5.33325 24.104 5.89515 25.1042 6.89535C26.1044 7.89554 26.6663 9.2521 26.6663 10.6666V21.3333C26.6663 22.7477 26.1044 24.1043 25.1042 25.1045C24.104 26.1047 22.7475 26.6666 21.333 26.6666H10.6663C9.25185 26.6666 7.8953 26.1047 6.8951 25.1045C5.89491 24.1043 5.33301 22.7477 5.33301 21.3333V10.6666ZM11.9997 15.9999C11.9997 17.0608 12.4211 18.0782 13.1712 18.8283C13.9214 19.5785 14.9388 19.9999 15.9997 19.9999C17.0605 19.9999 18.078 19.5785 18.8281 18.8283C19.5782 18.0782 19.9997 17.0608 19.9997 15.9999C19.9997 14.9391 19.5782 13.9216 18.8281 13.1715C18.078 12.4213 17.0605 11.9999 15.9997 11.9999C14.9388 11.9999 13.9214 12.4213 13.1712 13.1715C12.4211 13.9216 11.9997 14.9391 11.9997 15.9999Z" stroke="currentColor" stroke-width="2" stroke-linecap="round" stroke-linejoin="round"/>
</svg>
