<svg width="32" height="32" viewBox="0 0 32 32" fill="none" xmlns="http://www.w3.org/2000/svg">
<path d="M29.3337 5.34668C28.0003 6.00002 26.6937 6.26535 25.3337 6.66668C23.839 4.98002 21.623 4.88668 19.4937 5.68402C17.3643 6.48135 15.9697 8.43068 16.0003 10.6667V12C11.6737 12.1107 7.82033 10.14 5.33366 6.66668C5.33366 6.66668 -0.242341 16.5774 10.667 21.3334C8.17099 22.996 5.68166 24.1174 2.66699 24C7.07766 26.404 11.8843 27.2307 16.0457 26.0227C20.819 24.636 24.7417 21.0587 26.247 15.7C26.696 14.0702 26.919 12.3865 26.9097 10.696C26.9097 10.364 28.923 7.00002 29.3337 5.34535V5.34668Z" stroke="currentColor" stroke-width="2" stroke-linecap="round" stroke-linejoin="round"/>
</svg>
