<svg width="34" height="34" viewBox="0 0 34 34" fill="none" xmlns="http://www.w3.org/2000/svg">
<path d="M11.3333 9.91667V7.08333C11.3333 6.33189 11.6318 5.61122 12.1632 5.07986C12.6946 4.54851 13.4152 4.25 14.1667 4.25H19.8333C20.5848 4.25 21.3054 4.54851 21.8368 5.07986C22.3682 5.61122 22.6667 6.33189 22.6667 7.08333V9.91667M17 17V17.0142M4.25 18.4167C8.20474 20.4095 12.5715 21.4475 17 21.4475C21.4285 21.4475 25.7953 20.4095 29.75 18.4167M4.25 12.75C4.25 11.9986 4.54851 11.2779 5.07986 10.7465C5.61122 10.2152 6.33189 9.91667 7.08333 9.91667H26.9167C27.6681 9.91667 28.3888 10.2152 28.9201 10.7465C29.4515 11.2779 29.75 11.9986 29.75 12.75V25.5C29.75 26.2514 29.4515 26.9721 28.9201 27.5035C28.3888 28.0348 27.6681 28.3333 26.9167 28.3333H7.08333C6.33189 28.3333 5.61122 28.0348 5.07986 27.5035C4.54851 26.9721 4.25 26.2514 4.25 25.5V12.75Z" stroke="#07CB81" stroke-width="2" stroke-linecap="round" stroke-linejoin="round"/>
</svg>
