<svg width="36" height="36" viewBox="0 0 36 36" fill="none" xmlns="http://www.w3.org/2000/svg">
<path d="M12.3003 19.8C13.8268 15.7575 16.4165 12.2021 19.7959 9.50916C23.1753 6.81621 27.219 5.0856 31.5003 4.5C30.9147 8.78127 29.1835 12.825 26.4905 16.2044C23.7976 19.5838 20.2422 22.1735 16.1997 23.7M15.9001 13.5C18.8149 14.8453 21.1548 17.1853 22.5001 20.1M4.5 31.5V25.5C4.5 24.3133 4.85189 23.1533 5.51118 22.1666C6.17047 21.1799 7.10754 20.4109 8.2039 19.9567C9.30026 19.5026 10.5067 19.3838 11.6705 19.6153C12.8344 19.8468 13.9035 20.4182 14.7426 21.2574C15.5818 22.0965 16.1532 23.1656 16.3847 24.3295C16.6162 25.4933 16.4974 26.6997 16.0433 27.7961C15.5892 28.8925 14.8201 29.8295 13.8334 30.4888C12.8467 31.1481 11.6867 31.5 10.5 31.5H4.5Z" stroke="#07CB81" stroke-width="2.5" stroke-linecap="round" stroke-linejoin="round"/>
</svg>
