<svg width="34" height="34" viewBox="0 0 34 34" fill="none" xmlns="http://www.w3.org/2000/svg">
<path d="M4.25 17H5.66667M17 4.25V5.66667M28.3333 17H29.75M7.93333 7.93333L8.925 8.925M26.0667 7.93333L25.075 8.925M13.7417 24.0833H20.2583M12.75 22.6667C11.5607 21.7747 10.6821 20.5311 10.2389 19.112C9.79559 17.693 9.81003 16.1704 10.2802 14.7601C10.7503 13.3497 11.6523 12.123 12.8583 11.2537C14.0643 10.3844 15.5133 9.91667 17 9.91667C18.4867 9.91667 19.9357 10.3844 21.1417 11.2537C22.3477 12.123 23.2497 13.3497 23.7198 14.7601C24.19 16.1704 24.2044 17.693 23.7611 19.112C23.3179 20.5311 22.4393 21.7747 21.25 22.6667C20.6969 23.2142 20.2804 23.8842 20.0343 24.6225C19.7882 25.3609 19.7194 26.1468 19.8333 26.9167C19.8333 27.6681 19.5348 28.3888 19.0035 28.9201C18.4721 29.4515 17.7514 29.75 17 29.75C16.2486 29.75 15.5279 29.4515 14.9965 28.9201C14.4652 28.3888 14.1667 27.6681 14.1667 26.9167C14.2806 26.1468 14.2118 25.3609 13.9657 24.6225C13.7196 23.8842 13.3031 23.2142 12.75 22.6667Z" stroke="currentColor" stroke-width="2" stroke-linecap="round" stroke-linejoin="round"/>
</svg>
