<svg width="20" height="20" viewBox="0 0 20 20" fill="none" xmlns="http://www.w3.org/2000/svg">
<path d="M11.6668 3.33325H16.6668V8.33325H11.6668V3.33325Z" stroke="#23E79D" stroke-width="2" stroke-linecap="round" stroke-linejoin="round"/>
<path d="M3.3335 11.6666H8.3335V16.6666H3.3335V11.6666Z" stroke="#23E79D" stroke-width="2" stroke-linecap="round" stroke-linejoin="round"/>
<path d="M11.6668 14.1666C11.6668 14.8296 11.9302 15.4655 12.3991 15.9344C12.8679 16.4032 13.5038 16.6666 14.1668 16.6666C14.8299 16.6666 15.4658 16.4032 15.9346 15.9344C16.4034 15.4655 16.6668 14.8296 16.6668 14.1666C16.6668 13.5035 16.4034 12.8677 15.9346 12.3988C15.4658 11.93 14.8299 11.6666 14.1668 11.6666C13.5038 11.6666 12.8679 11.93 12.3991 12.3988C11.9302 12.8677 11.6668 13.5035 11.6668 14.1666Z" stroke="#23E79D" stroke-width="2" stroke-linecap="round" stroke-linejoin="round"/>
<path d="M3.3335 5.83325C3.3335 6.16156 3.39816 6.48665 3.5238 6.78996C3.64943 7.09327 3.83358 7.36887 4.06573 7.60102C4.29788 7.83317 4.57347 8.01731 4.87679 8.14295C5.1801 8.26859 5.50519 8.33325 5.8335 8.33325C6.1618 8.33325 6.48689 8.26859 6.7902 8.14295C7.09352 8.01731 7.36912 7.83317 7.60126 7.60102C7.83341 7.36887 8.01756 7.09327 8.1432 6.78996C8.26883 6.48665 8.3335 6.16156 8.3335 5.83325C8.3335 5.50495 8.26883 5.17986 8.1432 4.87654C8.01756 4.57323 7.83341 4.29763 7.60126 4.06549C7.36912 3.83334 7.09352 3.64919 6.7902 3.52355C6.48689 3.39792 6.1618 3.33325 5.8335 3.33325C5.50519 3.33325 5.1801 3.39792 4.87679 3.52355C4.57347 3.64919 4.29788 3.83334 4.06573 4.06549C3.83358 4.29763 3.64943 4.57323 3.5238 4.87654C3.39816 5.17986 3.3335 5.50495 3.3335 5.83325Z" stroke="#23E79D" stroke-width="2" stroke-linecap="round" stroke-linejoin="round"/>
</svg>
