<svg width="608" height="533" viewBox="0 0 608 533" fill="none" xmlns="http://www.w3.org/2000/svg">
<g clip-path="url(#clip0_5011_4994)">
<path d="M607.27 0.730469H257.237V242.634H607.27V0.730469Z" fill="#40FFB7" stroke="#222236" stroke-linecap="round" stroke-linejoin="round"/>
<path d="M607.27 0.730469H257.237V24.6476H607.27V0.730469Z" fill="#222236"/>
<path d="M607.27 242.298H257.237V267.019H607.27V242.298Z" fill="#3D3D64" fill-opacity="0.56" stroke="#222236" stroke-linecap="round" stroke-linejoin="round"/>
<path d="M542.49 252.028H313.779V257.288H542.49V252.028Z" fill="#222236"/>
<path d="M595.92 249.925H586.455V259.392H595.92V249.925Z" stroke="#222236" stroke-linecap="round" stroke-linejoin="round"/>
<path d="M580.043 249.925H570.578V259.392H580.043V249.925Z" stroke="#222236" stroke-linecap="round" stroke-linejoin="round"/>
<path d="M284.566 249.822H268.075V259.494H284.566V249.822Z" stroke="#222236" stroke-linecap="round" stroke-linejoin="round"/>
<path d="M267.871 12.6816H330.11" stroke="white" stroke-linecap="round" stroke-linejoin="round"/>
<path d="M598.389 12.4626C598.389 14.4789 596.753 16.1152 594.738 16.1152C592.722 16.1152 591.086 14.4789 591.086 12.4626C591.086 10.4464 592.722 8.81006 594.738 8.81006C596.753 8.81006 598.389 10.4464 598.389 12.4626Z" stroke="white" stroke-linecap="round" stroke-linejoin="round"/>
<path d="M583.958 12.6816C583.958 14.6979 582.322 16.3342 580.306 16.3342C578.29 16.3342 576.654 14.6979 576.654 12.6816C576.654 10.6654 578.29 9.02905 580.306 9.02905C582.322 9.02905 583.958 10.6654 583.958 12.6816Z" stroke="white" stroke-linecap="round" stroke-linejoin="round"/>
<path d="M569.512 12.9155C569.512 14.9318 567.876 16.5681 565.861 16.5681C563.845 16.5681 562.209 14.9318 562.209 12.9155C562.209 10.8993 563.845 9.26294 565.861 9.26294C567.876 9.26294 569.512 10.8993 569.512 12.9155Z" stroke="white" stroke-linecap="round" stroke-linejoin="round"/>
<path d="M453.17 44.3716H337.252C333.307 44.3716 330.109 47.5703 330.109 51.516V208.738C330.109 212.684 333.307 215.882 337.252 215.882H453.17C457.115 215.882 460.313 212.684 460.313 208.738V51.516C460.313 47.5703 457.115 44.3716 453.17 44.3716Z" fill="white" stroke="#222236" stroke-linecap="round" stroke-linejoin="round"/>
<path d="M429.098 75.8276H345.709C343.974 75.8276 342.568 77.234 342.568 78.9689C342.568 80.7037 343.974 82.1101 345.709 82.1101H429.098C430.832 82.1101 432.238 80.7037 432.238 78.9689C432.238 77.234 430.832 75.8276 429.098 75.8276Z" fill="#15151F"/>
<path d="M429.098 102.126H345.709C343.974 102.126 342.568 103.533 342.568 105.267C342.568 107.002 343.974 108.409 345.709 108.409H429.098C430.832 108.409 432.238 107.002 432.238 105.267C432.238 103.533 430.832 102.126 429.098 102.126Z" fill="#222236"/>
<path d="M392.07 88.9771H345.709C343.974 88.9771 342.568 90.3834 342.568 92.1183C342.568 93.8531 343.974 95.2595 345.709 95.2595H392.07C393.805 95.2595 395.211 93.8531 395.211 92.1183C395.211 90.3834 393.805 88.9771 392.07 88.9771Z" fill="#15151F"/>
<path d="M402.339 121.675H372.483C368.345 121.675 364.99 125.031 364.99 129.17V159.034C364.99 163.173 368.345 166.529 372.483 166.529H402.339C406.478 166.529 409.832 163.173 409.832 159.034V129.17C409.832 125.031 406.478 121.675 402.339 121.675Z" fill="#40FFB7" stroke="#222236" stroke-miterlimit="10"/>
<path d="M330.109 121.675H351.128C355.262 121.675 358.621 125.035 358.621 129.17V159.019C358.621 163.154 355.262 166.514 351.128 166.514H330.109V121.66V121.675Z" fill="#40FFB7" stroke="#222236" stroke-miterlimit="10"/>
<path d="M422.979 121.675H460.313V166.529H422.979C418.845 166.529 415.485 163.168 415.485 159.034V129.185C415.485 125.05 418.845 121.69 422.979 121.69V121.675Z" fill="#40FFB7" stroke="#222236" stroke-miterlimit="10"/>
<path d="M532.893 144.102H476.643C472.359 144.102 468.887 147.575 468.887 151.86V208.124C468.887 212.409 472.359 215.882 476.643 215.882H532.893C537.176 215.882 540.649 212.409 540.649 208.124V151.86C540.649 147.575 537.176 144.102 532.893 144.102Z" stroke="#222236" stroke-miterlimit="10"/>
<path d="M468.887 194.741L494.039 169.582L513.466 189.014L525.181 177.297L540.211 192.331" stroke="#222236" stroke-miterlimit="10"/>
<path d="M518.184 169.582C522.048 169.582 525.181 166.449 525.181 162.584C525.181 158.719 522.048 155.585 518.184 155.585C514.32 155.585 511.188 158.719 511.188 162.584C511.188 166.449 514.32 169.582 518.184 169.582Z" stroke="#222236" stroke-miterlimit="10"/>
<path d="M310.61 68.9609H295.185C291.37 68.9609 288.276 72.055 288.276 75.8716V123.224C288.276 127.04 291.37 130.134 295.185 130.134H310.61C314.426 130.134 317.519 127.04 317.519 123.224V75.8716C317.519 72.055 314.426 68.9609 310.61 68.9609Z" fill="white"/>
<path d="M589.011 144.102H554.481C550.665 144.102 547.572 147.196 547.572 151.013V155.659C547.572 159.475 550.665 162.569 554.481 162.569H589.011C592.827 162.569 595.92 159.475 595.92 155.659V151.013C595.92 147.196 592.827 144.102 589.011 144.102Z" fill="white"/>
<path d="M589.011 166.529H554.481C550.665 166.529 547.572 169.623 547.572 173.439V178.086C547.572 181.902 550.665 184.996 554.481 184.996H589.011C592.827 184.996 595.92 181.902 595.92 178.086V173.439C595.92 169.623 592.827 166.529 589.011 166.529Z" fill="white"/>
<path d="M589.011 188.956H554.481C550.665 188.956 547.572 192.05 547.572 195.866V200.512C547.572 204.329 550.665 207.423 554.481 207.423H589.011C592.827 207.423 595.92 204.329 595.92 200.512V195.866C595.92 192.05 592.827 188.956 589.011 188.956Z" fill="white"/>
<path d="M480.893 125.371C480.893 125.371 470.99 95.2594 498.421 88.977C525.853 82.6945 527.065 105.823 532.718 112.412C540.664 121.675 563.961 116.605 554.817 82.1101" fill="#40FFB7"/>
<path d="M480.893 125.371C480.893 125.371 470.99 95.2594 498.421 88.977C525.853 82.6945 527.065 105.823 532.718 112.412C540.664 121.675 563.961 116.605 554.817 82.1101" stroke="#222236" stroke-linecap="round" stroke-linejoin="round"/>
<path d="M292.074 496.065H257.486L238.76 490.133L232.873 488.278L231.164 505.912L26.3506 506.292C26.3506 506.292 29.4764 498.403 34.5741 486.831C45.5729 461.862 65.73 419.697 83.3602 402.471C97.6746 388.489 133.432 388.095 133.432 388.095C133.432 388.095 139.172 384.062 145.745 384.383C152.318 384.705 202.01 390.096 205.092 391.645C208.174 393.179 210.481 396.642 210.481 396.642C210.481 396.642 227.893 388.942 244.997 395.882C262.101 402.807 292.074 496.065 292.074 496.065Z" fill="#3D3D64" fill-opacity="0.56"/>
<mask id="mask0_5011_4994" style="mask-type:luminance" maskUnits="userSpaceOnUse" x="26" y="384" width="267" height="123">
<path d="M292.074 496.065H257.486L238.76 490.133L232.873 488.278L231.164 505.912L26.3506 506.292C26.3506 506.292 29.4764 498.403 34.5741 486.831C45.5729 461.862 65.73 419.697 83.3602 402.471C97.6746 388.489 133.432 388.095 133.432 388.095C133.432 388.095 139.172 384.062 145.745 384.383C152.318 384.705 202.01 390.096 205.092 391.645C208.174 393.179 210.481 396.642 210.481 396.642C210.481 396.642 227.893 388.942 244.997 395.882C262.101 402.807 292.074 496.065 292.074 496.065Z" fill="white"/>
</mask>
<g mask="url(#mask0_5011_4994)">
<path opacity="0.2" d="M238.76 490.133L232.873 488.278L231.164 505.912L26.3506 506.292C26.3506 506.292 29.4764 498.403 34.5741 486.831C42.4763 486.641 51.3863 486.232 51.3863 486.232L55.9728 471.227C55.9728 471.227 63.1738 463.615 72.1715 468.101C72.1715 468.101 71.0322 464.287 74.494 461.979C77.9703 459.671 92.2264 467.078 92.2264 467.078C92.2264 467.078 99.0915 453.987 101.429 445.323C103.78 436.674 105.314 457.494 105.314 457.494C105.314 457.494 111.098 447.938 111.098 445.323C111.098 442.708 121.878 471.227 121.878 471.227C121.878 471.227 136.134 472.937 139.99 474.398C143.846 475.844 182.232 477.378 194.589 474.398C206.961 471.417 185.826 488.95 185.826 488.95C185.826 488.95 207.531 496.27 219.8 491.463C232.055 486.641 237.562 481.542 237.562 481.542C237.562 481.542 238.117 485.151 238.76 490.133Z" fill="black"/>
</g>
<path d="M292.074 496.065H257.486L238.76 490.133L232.873 488.278L231.164 505.912L26.3506 506.292C26.3506 506.292 29.4764 498.403 34.5741 486.831C45.5729 461.862 65.73 419.697 83.3602 402.471C97.6746 388.489 133.432 388.095 133.432 388.095C133.432 388.095 139.172 384.062 145.745 384.383C152.318 384.705 202.01 390.096 205.092 391.645C208.174 393.179 210.481 396.642 210.481 396.642C210.481 396.642 227.893 388.942 244.997 395.882C262.101 402.807 292.074 496.065 292.074 496.065Z" stroke="#222236" stroke-linecap="round" stroke-linejoin="round"/>
<path d="M227.469 451.007C227.469 451.007 224.081 456.164 217.113 462.856" stroke="#222236" stroke-linecap="round" stroke-linejoin="round"/>
<path d="M207.005 471.374C195.334 480.008 178.522 488.716 156.262 491.448" stroke="#222236" stroke-linecap="round" stroke-linejoin="round"/>
<path d="M270.952 466.391C270.952 466.391 276.269 463.09 280.929 464.171C285.588 465.252 289.444 469.869 289.444 469.869C289.444 469.869 328.123 466.654 336.916 466.917C345.694 467.18 365.34 472.952 365.34 472.952C365.34 472.952 374.864 471.023 375.872 471.417C376.894 471.797 373.812 504.232 373.812 504.232H248.225C242.061 504.232 237.489 495.305 232.873 488.292C232.873 488.292 244.997 450.116 244.997 402.486" fill="#3D3D64" fill-opacity="0.56"/>
<mask id="mask1_5011_4994" style="mask-type:luminance" maskUnits="userSpaceOnUse" x="232" y="402" width="145" height="103">
<path d="M270.952 466.391C270.952 466.391 276.269 463.09 280.929 464.171C285.588 465.252 289.444 469.869 289.444 469.869C289.444 469.869 328.123 466.654 336.916 466.917C345.694 467.18 365.34 472.952 365.34 472.952C365.34 472.952 374.864 471.023 375.872 471.417C376.894 471.797 373.812 504.232 373.812 504.232H248.225C242.061 504.232 237.489 495.305 232.873 488.292C232.873 488.292 244.997 450.116 244.997 402.486" fill="white"/>
</mask>
<g mask="url(#mask1_5011_4994)">
<path opacity="0.2" d="M305.439 504.218H248.239C242.075 504.218 237.503 495.291 232.873 488.278C232.873 488.278 239.081 468.729 242.616 440.151C242.616 440.151 248.692 449.166 244.997 459.612L248.692 449.166C248.692 449.166 252.241 460.357 248.692 469.84C245.157 479.322 242.616 482.039 242.616 482.039C242.616 482.039 246.954 487.766 251.643 486.232C256.331 484.713 261.341 493.99 261.341 493.99C261.341 493.99 272.501 494.414 274.823 493.99C275.89 493.801 290.335 498.783 305.439 504.218Z" fill="black"/>
</g>
<path d="M270.952 466.391C270.952 466.391 276.269 463.09 280.929 464.171C285.588 465.252 289.444 469.869 289.444 469.869C289.444 469.869 328.123 466.654 336.916 466.917C345.694 467.18 365.34 472.952 365.34 472.952C365.34 472.952 374.864 471.023 375.872 471.417C376.894 471.797 373.812 504.232 373.812 504.232H248.225C242.061 504.232 237.489 495.305 232.873 488.292C232.873 488.292 244.997 450.116 244.997 402.486" stroke="#222236" stroke-linecap="round" stroke-linejoin="round"/>
<path d="M199.161 365.434V396.642C199.161 396.642 193.83 400.367 186.892 404.078C178.376 408.593 167.45 413.064 160.95 410.521C149.163 405.89 141.523 388.095 141.523 388.095C154.246 378.393 155.779 365.434 157.708 359.268L199.161 365.434Z" fill="white" stroke="#222236" stroke-linecap="round" stroke-linejoin="round"/>
<path d="M135.359 390.476C135.359 390.476 146.139 413.984 159.241 418.221C172.343 422.458 194.589 405.89 194.589 405.89" stroke="#222236" stroke-linecap="round" stroke-linejoin="round"/>
<path d="M76.4219 418.922C76.4219 418.922 96.8419 434.848 100.304 440.21C103.765 445.572 100.304 496.065 100.304 496.065" stroke="#222236" stroke-linecap="round" stroke-linejoin="round"/>
<path d="M48.5818 470.307C60.6322 462.534 69.1041 471.052 76.422 472.572C83.7399 474.106 99.924 465.836 112.062 472.572C124.2 479.307 124.2 476.984 124.2 476.984C124.2 476.984 136.908 486.685 130.364 506.088L26.3505 506.278C26.3505 506.278 19.4124 491.448 42.2133 470.292" fill="#3D3D64" fill-opacity="0.56"/>
<path d="M48.5818 470.307C60.6322 462.534 69.1041 471.052 76.422 472.572C83.7399 474.106 99.924 465.836 112.062 472.572C124.2 479.307 124.2 476.984 124.2 476.984C124.2 476.984 136.908 486.685 130.364 506.088L26.3505 506.278C26.3505 506.278 19.4124 491.448 42.2133 470.292" stroke="#222236" stroke-linecap="round" stroke-linejoin="round"/>
<path d="M150.478 440.21L177.924 490.425L178.785 496.065L174.447 492.164L146.14 442.299C146.14 442.299 147.44 439.698 150.478 440.21Z" fill="#40FFB7" stroke="#222236" stroke-linecap="round" stroke-linejoin="round"/>
<path d="M124.478 479.585C124.478 479.585 128.524 478.43 130.831 478.43C133.139 478.43 147.425 467.867 152.274 467.078C157.123 466.289 165.844 473.521 170.299 474.675C174.754 475.83 174.461 481.615 177.061 483.924C179.661 486.232 175.907 488.833 172.723 486.232C172.723 486.232 173.585 489.154 171.569 491.448C171.569 491.448 172.431 494.604 171.569 496.05H120.081C120.081 496.05 119.263 486.218 124.463 479.585H124.478Z" fill="white" stroke="#222236" stroke-linecap="round" stroke-linejoin="round"/>
<path d="M172.723 486.232L168.108 481.659L156.262 477.861" stroke="#222236" stroke-linecap="round" stroke-linejoin="round"/>
<path d="M171.569 491.463L164.485 488.278L154.815 486.451" stroke="#222236" stroke-linecap="round" stroke-linejoin="round"/>
<path d="M154.815 493.99L164.485 494.429L171.569 496.065" stroke="#222236" stroke-linecap="round" stroke-linejoin="round"/>
<path d="M152.274 467.078C147.877 470.921 152.216 474.968 150.185 477.861C148.169 480.753 145.847 481.615 147.585 486.247" stroke="#222236" stroke-linecap="round" stroke-linejoin="round"/>
<path d="M214.805 498.505H448.788C448.788 502.8 445.297 506.292 441.002 506.292H233.545C232.727 506.292 231.923 506.161 231.149 505.912L214.483 500.536C213.358 500.17 213.621 498.505 214.805 498.505Z" fill="#40FFB7"/>
<mask id="mask2_5011_4994" style="mask-type:luminance" maskUnits="userSpaceOnUse" x="213" y="498" width="236" height="9">
<path d="M214.805 498.505H448.788C448.788 502.8 445.297 506.292 441.002 506.292H233.545C232.727 506.292 231.923 506.161 231.149 505.912L214.483 500.536C213.358 500.17 213.621 498.505 214.805 498.505Z" fill="white"/>
</mask>
<g mask="url(#mask2_5011_4994)">
<path opacity="0.2" d="M448.788 498.505C448.788 500.653 447.911 502.596 446.509 504.013C446.436 504.086 446.349 504.159 446.275 504.217C444.888 505.503 443.033 506.292 441.003 506.292H233.559C232.741 506.292 231.938 506.161 231.164 505.912L214.498 500.536C213.359 500.17 213.621 498.505 214.819 498.505H448.788Z" fill="black"/>
<path opacity="0.2" d="M448.788 498.505C448.788 500.653 447.912 502.596 446.51 504.013C446.437 504.086 446.349 504.159 446.276 504.217H312.406C309.251 504.217 306.681 501.661 306.681 498.505H448.788Z" fill="black"/>
</g>
<path d="M214.805 498.505H448.788C448.788 502.8 445.297 506.292 441.002 506.292H233.545C232.727 506.292 231.923 506.161 231.149 505.912L214.483 500.536C213.358 500.17 213.621 498.505 214.805 498.505Z" stroke="#222236" stroke-linecap="round" stroke-linejoin="round"/>
<path d="M306.68 498.505C306.68 501.661 309.236 504.217 312.391 504.217H334.608" stroke="#222236" stroke-linecap="round" stroke-linejoin="round"/>
<path d="M490.665 402.442C490.665 402.442 490.636 402.573 490.621 402.632L463.438 497.38C462.752 499.761 460.181 501.69 457.698 501.69H315.868C313.385 501.69 311.924 499.761 312.596 497.38L339.794 402.632C340.48 400.25 343.036 398.322 345.534 398.322H487.364C489.774 398.322 491.235 400.148 490.665 402.442Z" fill="#40FFB7"/>
<mask id="mask3_5011_4994" style="mask-type:luminance" maskUnits="userSpaceOnUse" x="312" y="398" width="179" height="104">
<path d="M490.665 402.442C490.665 402.442 490.636 402.573 490.621 402.632L463.438 497.38C462.752 499.761 460.181 501.69 457.698 501.69H315.868C313.385 501.69 311.924 499.761 312.596 497.38L339.794 402.632C340.48 400.25 343.036 398.322 345.534 398.322H487.364C489.774 398.322 491.235 400.148 490.665 402.442Z" fill="white"/>
</mask>
<g mask="url(#mask3_5011_4994)">
<path opacity="0.4" d="M490.665 402.442C490.665 402.442 490.636 402.573 490.621 402.632L463.438 497.38C462.752 499.761 460.181 501.69 457.698 501.69H316.803C316.803 501.69 316.832 501.558 316.847 501.5L344.029 406.752C344.716 404.37 347.287 402.442 349.77 402.442H490.665Z" fill="white"/>
</g>
<path d="M490.665 402.442C490.665 402.442 490.636 402.573 490.621 402.632L463.438 497.38C462.752 499.761 460.181 501.69 457.698 501.69H315.868C313.385 501.69 311.924 499.761 312.596 497.38L339.794 402.632C340.48 400.25 343.036 398.322 345.534 398.322H487.364C489.774 398.322 491.235 400.148 490.665 402.442Z" stroke="#222236" stroke-linecap="round" stroke-linejoin="round"/>
<path d="M411.818 451.752C409.554 456.632 404.077 460.328 398.731 460.328C392.771 460.328 389.251 455.711 390.887 450.013C392.523 444.315 398.687 439.684 404.661 439.684H404.822C404.559 440.253 404.34 440.838 404.165 441.437C402.543 447.091 405.961 451.664 411.833 451.752H411.818Z" fill="white" stroke="#222236" stroke-linecap="round" stroke-linejoin="round"/>
<path d="M317.519 497.044L344.059 404.56C344.453 403.172 345.958 402.047 347.404 402.047H484.896" stroke="#222236" stroke-linecap="round" stroke-linejoin="round"/>
<path d="M251.643 506.292H55.9727L58.3389 501.354C58.3389 501.354 76.7725 503.049 91.4229 498.505C97.8936 496.489 107.855 495.554 117.846 495.7C124.142 495.788 139.464 495.846 148.973 495.802H148.988C152.376 495.788 155.035 495.758 156.262 495.715C156.744 495.685 157.226 495.685 157.693 495.685C160.498 495.656 163.185 495.919 165.771 496.445C168.137 496.182 170.708 496.021 173.497 496.065C178.011 496.124 197.423 495.992 202.711 496.065C209.678 496.153 217.726 497.497 225.365 498.578C225.439 498.549 225.512 498.534 225.57 498.505L225.614 498.607C234.845 499.893 243.492 500.77 248.941 498.505L251.643 506.292Z" fill="white"/>
<mask id="mask4_5011_4994" style="mask-type:luminance" maskUnits="userSpaceOnUse" x="55" y="495" width="197" height="12">
<path d="M251.643 506.292H55.9727L58.3389 501.354C58.3389 501.354 76.7725 503.049 91.4229 498.505C97.8936 496.489 107.855 495.554 117.846 495.7C124.142 495.788 139.464 495.846 148.973 495.802H148.988C152.376 495.788 155.035 495.758 156.262 495.715C156.744 495.685 157.226 495.685 157.693 495.685C160.498 495.656 163.185 495.919 165.771 496.445C168.137 496.182 170.708 496.021 173.497 496.065C178.011 496.124 197.423 495.992 202.711 496.065C209.678 496.153 217.726 497.497 225.365 498.578C225.439 498.549 225.512 498.534 225.57 498.505L225.614 498.607C234.845 499.893 243.492 500.77 248.941 498.505L251.643 506.292Z" fill="white"/>
</mask>
<g mask="url(#mask4_5011_4994)">
<path opacity="0.4" d="M251.643 506.292H99.9238L103.006 500.989C103.006 500.989 111.288 505.825 119.38 502.391C127.472 498.972 135.622 497.278 148.973 495.802H148.987C151.982 495.466 154.932 495.481 157.693 495.685C167.26 496.401 174.651 499.542 174.651 499.542C174.651 499.542 182.612 496.065 202.711 496.065C209.678 496.153 217.726 497.497 225.365 498.578C225.438 498.549 225.511 498.534 225.57 498.505L225.614 498.607C234.845 499.893 243.492 500.77 248.94 498.505L251.643 506.292Z" fill="#40FFB7"/>
<path d="M103.006 500.989L58.3389 501.354L55.9727 506.292H99.9239L103.006 500.989Z" fill="#40FFB7"/>
<path d="M101.18 504.115L103.006 500.989C103.006 500.989 108.98 503.779 115.523 503.589C122.067 503.399 132.409 495.291 152.288 495.685" stroke="#222236" stroke-linecap="round" stroke-linejoin="round"/>
<path d="M165.771 496.445C169.437 497.789 174.651 499.542 174.651 499.542C174.651 499.542 181.4 495.656 196.225 496.065" stroke="#222236" stroke-linecap="round" stroke-linejoin="round"/>
<path d="M103.006 500.989C103.006 500.989 79.8983 501.398 70.6523 501.602" stroke="#222236" stroke-linecap="round" stroke-linejoin="round"/>
<path d="M171.569 506.292C171.569 506.292 171.949 502.932 175.236 502.391C178.507 501.851 180.625 505.898 180.625 505.898" stroke="#222236" stroke-linecap="round" stroke-linejoin="round"/>
<path d="M174.651 499.542L175.236 502.391" stroke="#222236" stroke-linecap="round" stroke-linejoin="round"/>
<path d="M177.923 502.391C177.923 502.391 188.323 497.643 198.343 498.49" stroke="#222236" stroke-linecap="round" stroke-linejoin="round"/>
<path d="M173.658 502.961C172.723 502.231 157.123 497.409 141.144 500.989" stroke="#222236" stroke-linecap="round" stroke-linejoin="round"/>
<path d="M171.569 504.948C171.569 504.948 158.409 502.45 146.986 504.174" stroke="#222236" stroke-linecap="round" stroke-linejoin="round"/>
<path d="M179.398 504.203C179.398 504.203 192.033 500.229 206.158 502.391C220.297 504.554 232.873 504.159 232.873 504.159" stroke="#222236" stroke-linecap="round" stroke-linejoin="round"/>
</g>
<path d="M251.643 506.292H55.9727L58.3389 501.354C58.3389 501.354 76.7725 503.049 91.4229 498.505C97.8936 496.489 107.855 495.554 117.846 495.7C124.142 495.788 139.464 495.846 148.973 495.802H148.988C152.376 495.788 155.035 495.758 156.262 495.715C156.744 495.685 157.226 495.685 157.693 495.685C160.498 495.656 163.185 495.919 165.771 496.445C168.137 496.182 170.708 496.021 173.497 496.065C178.011 496.124 197.423 495.992 202.711 496.065C209.678 496.153 217.726 497.497 225.365 498.578C225.439 498.549 225.512 498.534 225.57 498.505L225.614 498.607C234.845 499.893 243.492 500.77 248.941 498.505L251.643 506.292Z" stroke="#222236" stroke-linecap="round" stroke-linejoin="round"/>
<path d="M199.161 391.455V396.642C199.161 396.642 193.829 400.367 186.891 404.078C177.528 395.473 176.199 379.124 176.199 379.124L199.161 391.455Z" fill="#222236"/>
<path d="M159.241 361.577C148.228 345.286 150.448 314.751 164.631 298.197C185.431 273.915 239.724 291.652 239.665 325.971C239.665 330.559 239.212 335.351 238.438 340.202C237.722 344.731 233.793 349.304 232.581 353.819C231.369 358.333 231.865 365.449 231.383 369.934C230.317 379.913 216.514 399.71 212.76 401.858C207.531 404.838 179.267 396.846 173.103 378.729" fill="white"/>
<path d="M159.241 361.577C148.228 345.286 150.448 314.751 164.631 298.197C185.431 273.915 239.724 291.652 239.665 325.971C239.665 330.559 239.212 335.351 238.438 340.202C237.722 344.731 233.793 349.304 232.581 353.819C231.369 358.333 231.865 365.449 231.383 369.934C230.317 379.913 216.514 399.71 212.76 401.858C207.531 404.838 179.267 396.846 173.103 378.729" stroke="#222236" stroke-linecap="round" stroke-linejoin="round"/>
<path d="M197.759 341.444C197.759 341.444 205.456 338.639 212.395 341.444" stroke="#222236" stroke-linecap="round" stroke-linejoin="round"/>
<path d="M228.199 341.444C228.199 341.444 233.808 338.639 237.547 341.444" stroke="#222236" stroke-linecap="round" stroke-linejoin="round"/>
<path d="M204.974 354.535C204.565 356.522 203.221 357.91 201.98 357.661C200.738 357.413 200.037 355.586 200.446 353.614C200.855 351.627 202.199 350.239 203.44 350.487C204.696 350.736 205.383 352.562 204.974 354.535Z" fill="#222236"/>
<path d="M229.732 354.535C229.323 356.522 227.979 357.91 226.738 357.661C225.482 357.398 224.795 355.586 225.204 353.614C225.613 351.627 226.957 350.239 228.198 350.487C229.455 350.736 230.141 352.562 229.732 354.535Z" fill="#222236"/>
<path d="M225.686 344.439C225.686 344.439 222.02 350.794 221.64 356.186C221.261 361.577 227.425 372.564 225.686 376.027C223.948 379.489 216.251 379.299 213.738 377.181" fill="white"/>
<path d="M225.686 344.439C225.686 344.439 222.02 350.794 221.64 356.186C221.261 361.577 227.425 372.564 225.686 376.027C223.948 379.489 216.251 379.299 213.738 377.181" stroke="#222236" stroke-linecap="round" stroke-linejoin="round"/>
<path d="M215.096 384.12C215.096 384.12 207.194 385.465 200.271 382.002" stroke="#222236" stroke-linecap="round" stroke-linejoin="round"/>
<path d="M170.298 346.557C170.298 346.557 173.877 343.095 178.113 344.439C182.349 345.783 183.123 357.354 183.123 357.354L186.205 354.082C186.205 354.082 185.051 347.551 189.667 338.39C194.282 329.23 191.974 318.432 191.974 318.432C191.974 318.432 199.92 321.135 202.696 327.301C202.696 327.301 205.705 320.756 202.696 315.744C202.696 315.744 215.097 318.827 218.179 328.075C218.179 328.075 220.618 321.135 219.785 317.673C219.785 317.673 228.199 320.376 231.281 328.455C231.281 328.455 234.085 322.29 232.873 317.278C232.873 317.278 236.262 320.171 237.547 328.835C237.547 328.835 241.505 321.895 239.665 311.887C239.665 311.887 243.989 316.898 244.763 321.135C244.763 321.135 248.327 308.804 227.468 292.236C206.625 275.668 170.941 279.423 165.405 292.236C165.405 292.236 167.245 282.798 170.941 279.423C170.941 279.423 160.643 283.981 160.935 293.39C160.935 293.39 151.923 292.236 147.293 298.007C147.293 298.007 151.908 297.627 155.765 298.387C155.765 298.387 143.437 305.707 144.211 323.049C144.985 340.392 155.765 365.434 155.765 365.434L164.207 362.965C164.207 362.965 165.551 351.174 170.284 346.543L170.298 346.557Z" fill="#222236"/>
<path d="M179.661 350.794C179.661 350.794 173.117 339.238 169.641 338.463C166.179 337.689 159.621 342.32 161.169 348.486C162.703 354.652 163.871 365.054 165.785 366.208C167.713 367.363 170.795 374.302 173.877 372.374C176.959 370.445 174.651 367.757 174.651 367.757" fill="white"/>
<path d="M179.661 350.794C179.661 350.794 173.117 339.238 169.641 338.463C166.179 337.689 159.621 342.32 161.169 348.486C162.703 354.652 163.871 365.054 165.785 366.208C167.713 367.363 170.795 374.302 173.877 372.374C176.959 370.445 174.651 367.757 174.651 367.757" stroke="#222236" stroke-linecap="round" stroke-linejoin="round"/>
<path d="M252.855 440.151C252.855 440.151 252.081 443.731 250.299 448.552" stroke="#222236" stroke-linecap="round" stroke-linejoin="round"/>
<path d="M247.962 454.119C245.624 459.086 242.338 464.361 237.941 468.101" stroke="#222236" stroke-linecap="round" stroke-linejoin="round"/>
<path d="M289.445 469.854C287.443 469.591 283.368 472.104 279.644 475.377" stroke="#222236" stroke-linecap="round" stroke-linejoin="round"/>
<path d="M276.927 477.963C273.976 480.987 271.727 484.187 271.727 486.247" stroke="#222236" stroke-linecap="round" stroke-linejoin="round"/>
<path d="M64.4736 461.979C64.4736 461.979 72.7994 464.287 72.8724 471.417" stroke="#222236" stroke-linecap="round" stroke-linejoin="round"/>
<path d="M95.6738 423.057C95.6738 423.057 97.4266 424.927 99.4277 427.995" stroke="#222236" stroke-linecap="round" stroke-linejoin="round"/>
<path d="M102.729 434.015C104.204 437.361 105.314 441.247 105.314 445.338C105.314 457.362 101.853 464.302 101.853 464.302" stroke="#222236" stroke-linecap="round" stroke-linejoin="round"/>
<path d="M146.14 411.267C146.14 411.267 148.783 413.867 153.195 416.892" stroke="#222236" stroke-linecap="round" stroke-linejoin="round"/>
<path d="M160.526 421.26C167.99 425.029 177.645 427.879 187.665 425.38" stroke="#222236" stroke-linecap="round" stroke-linejoin="round"/>
<g opacity="0.2">
<path d="M176.2 292.821C176.2 292.821 179.472 292.236 184.088 292.309" stroke="white" stroke-linecap="round" stroke-linejoin="round"/>
<path d="M187.915 292.514C195.072 293.186 203.851 295.684 209.328 303.223" stroke="white" stroke-linecap="round" stroke-linejoin="round"/>
<path d="M193.523 286.962C193.523 286.962 206.918 287.108 216.514 293.814" stroke="white" stroke-linecap="round" stroke-linejoin="round"/>
<path d="M220.298 297.043C221.948 298.782 223.336 300.827 224.344 303.223" stroke="white" stroke-linecap="round" stroke-linejoin="round"/>
<path d="M172.724 298.592C172.724 298.592 185.884 303.209 190.441 311.507" stroke="white" stroke-linecap="round" stroke-linejoin="round"/>
<path d="M166.37 303.223C166.37 303.223 170.577 308.644 172.403 316.299" stroke="white" stroke-linecap="round" stroke-linejoin="round"/>
<path d="M173.22 322.874C173.22 324.569 173.089 326.307 172.738 328.075" stroke="white" stroke-linecap="round" stroke-linejoin="round"/>
<path d="M157.504 308.615C157.504 308.615 156.671 310.631 155.824 313.874" stroke="white" stroke-linecap="round" stroke-linejoin="round"/>
<path d="M154.787 318.915C154.144 322.918 153.852 327.725 154.612 332.692" stroke="white" stroke-linecap="round" stroke-linejoin="round"/>
</g>
<path d="M329.905 532.269H514.226V506.292H0.730469V532.269H104.54" fill="#3D3D64"/>
<path d="M329.905 532.269H514.226V506.292H0.730469V532.269H104.54" stroke="#222236" stroke-linecap="round" stroke-linejoin="round"/>
<path d="M316.671 532.27H290.496" stroke="#222236" stroke-linecap="round" stroke-linejoin="round"/>
</g>
<defs>
<clipPath id="clip0_5011_4994">
<rect width="608" height="533" fill="white"/>
</clipPath>
</defs>
</svg>
