<svg width="514" height="1239" viewBox="0 0 514 1239" fill="none" xmlns="http://www.w3.org/2000/svg">
<g clip-path="url(#clip0_5011_6389)">
<mask id="mask0_5011_6389" style="mask-type:luminance" maskUnits="userSpaceOnUse" x="-1416" y="-768" width="1940" height="2578">
<path d="M524 -767.889H-1416V1809.73H524V-767.889Z" fill="white"/>
</mask>
<g mask="url(#mask0_5011_6389)">
<mask id="mask1_5011_6389" style="mask-type:luminance" maskUnits="userSpaceOnUse" x="-1196" y="-846" width="1420" height="2619">
<path d="M223.023 -845.411H-1195.1V1772.64H223.023V-845.411Z" fill="white"/>
</mask>
<g mask="url(#mask1_5011_6389)">
<g opacity="0.1">
<mask id="mask2_5011_6389" style="mask-type:luminance" maskUnits="userSpaceOnUse" x="-1196" y="-846" width="1420" height="2619">
<path d="M223.023 -845.411H-1195.1V1772.64H223.023V-845.411Z" fill="white"/>
</mask>
<g mask="url(#mask2_5011_6389)">
<path d="M-1130.92 1041.68C-1084.92 1179.16 -1037.44 1321.51 -972.154 1417.31C-747.389 1747.15 -692.636 1635.84 -449.563 1753.82C-350.909 1801.7 -266.61 1739.84 -192.754 1641.43C-86.4544 1499.8 -1.78554 1282.43 72.9113 1207.55C287.583 992.371 224.477 458.556 164.12 244.439C99.1627 13.9964 70.1033 -115.238 -94.7295 -293.528C-238.479 -449.011 -195.092 -570.892 -388.127 -736.058C-619.935 -934.378 -867.109 -849.919 -957.892 -542.705C-989.301 -436.415 -1011.6 -351.543 -1089.09 -151.525C-1184.16 93.9005 -1197.83 363.83 -1193.21 516.124C-1185.02 785.916 -1142.44 1007.22 -1130.91 1041.68H-1130.92Z" stroke="#40FFB7" stroke-opacity="0.56" stroke-width="4" stroke-miterlimit="10"/>
</g>
</g>
<g opacity="0.14">
<mask id="mask3_5011_6389" style="mask-type:luminance" maskUnits="userSpaceOnUse" x="-1167" y="-797" width="1377" height="2533">
<path d="M209.606 -796.7H-1166.3V1735.4H209.606V-796.7Z" fill="white"/>
</mask>
<g mask="url(#mask3_5011_6389)">
<path d="M-939.055 -499.317C-969.75 -395.791 -991.497 -312.388 -1065.56 -119.208C-1156.5 118.554 -1169.18 379.869 -1164.3 528.916C-1155.81 788.371 -1115.01 1001.18 -1103.43 1035.59C-1058.91 1168.39 -1012.86 1305.22 -949.823 1397.27C-733.034 1714.01 -677.806 1606.18 -445.192 1717.72C-350.352 1762.68 -269.154 1703.74 -197.896 1610.21C-95.5324 1475.56 -13.8815 1268.54 58.5269 1198.12C269.273 993.185 213.564 479.069 155.943 267.108C94.5735 41.3691 65.0053 -87.8081 -95.3279 -262.278C-235.241 -414.548 -196.586 -533.171 -382.772 -691.843C-611.512 -885.391 -851.18 -796.069 -939.055 -499.317Z" stroke="#40FFB7" stroke-opacity="0.56" stroke-width="4.01" stroke-miterlimit="10"/>
</g>
</g>
<g opacity="0.19">
<mask id="mask4_5011_6389" style="mask-type:luminance" maskUnits="userSpaceOnUse" x="-1138" y="-749" width="1335" height="2448">
<path d="M196.364 -748.562H-1137.52V1698.38H196.364V-748.562Z" fill="white"/>
</mask>
<g mask="url(#mask4_5011_6389)">
<path d="M-920.215 -455.94C-950.203 -355.168 -971.397 -273.234 -1042.02 -86.9017C-1128.82 143.197 -1140.52 395.895 -1135.38 541.707C-1126.61 790.826 -1087.54 995.101 -1075.93 1029.49C-1032.75 1157.42 -988.267 1288.93 -927.484 1377.24C-718.672 1680.86 -663.101 1577.73 -440.813 1681.64C-349.842 1724.17 -271.696 1667.64 -203.024 1578.99C-104.591 1451.33 -25.9531 1254.69 44.1557 1188.72C251.011 994.045 202.654 499.65 147.774 289.812C89.9809 68.8107 59.9208 -60.355 -95.9127 -230.981C-231.99 -380.028 -197.878 -496.322 -377.404 -647.584C-602.854 -837.552 -835.247 -742.207 -920.215 -455.94Z" stroke="#40FFB7" stroke-opacity="0.56" stroke-width="4.01" stroke-miterlimit="10"/>
</g>
</g>
<g opacity="0.23">
<mask id="mask5_5011_6389" style="mask-type:luminance" maskUnits="userSpaceOnUse" x="-1109" y="-701" width="1293" height="2363">
<path d="M183.302 -700.207H-1108.75V1661.26H183.302V-700.207Z" fill="white"/>
</mask>
<g mask="url(#mask5_5011_6389)">
<path d="M-901.375 -412.553C-930.65 -314.534 -951.291 -234.079 -1018.49 -54.5849C-1101.15 167.85 -1111.87 411.933 -1106.47 554.51C-1097.43 793.281 -1060.09 989.054 -1048.44 1023.4C-1006.67 1146.57 -963.684 1272.64 -905.151 1357.21C-704.315 1647.72 -648.336 1548.67 -436.434 1645.55C-349.299 1685.4 -274.232 1631.52 -208.153 1547.76C-113.656 1427.09 -38.0135 1240.86 29.7847 1179.29C232.787 994.917 191.732 520.242 139.611 312.48C85.3719 96.2633 54.842 -32.9254 -96.492 -199.731C-228.728 -345.555 -199.276 -459.004 -372.024 -603.37C-594.324 -789.14 -819.315 -688.356 -901.375 -412.564V-412.553Z" stroke="#40FFB7" stroke-opacity="0.56" stroke-width="4.02" stroke-miterlimit="10"/>
</g>
</g>
<g opacity="0.27">
<mask id="mask6_5011_6389" style="mask-type:luminance" maskUnits="userSpaceOnUse" x="-1081" y="-652" width="1252" height="2277">
<path d="M170.433 -651.886H-1080.02V1624.17H170.433V-651.886Z" fill="white"/>
</mask>
<g mask="url(#mask6_5011_6389)">
<path d="M-882.537 -369.165C-911.105 -273.9 -931.392 -195.235 -994.956 -22.2679C-1073.73 192.102 -1083.23 427.959 -1077.56 567.301C-1068.26 795.736 -1032.64 982.997 -1020.95 1017.31C-980.606 1135.73 -939.098 1256.35 -882.808 1337.18C-689.95 1614.59 -633.55 1519.59 -432.051 1609.47C-348.753 1646.63 -276.682 1595.72 -213.284 1516.55C-122.595 1403.29 -50.054 1227.07 15.4115 1169.87C214.594 995.823 180.803 540.903 131.445 335.172C80.7387 123.808 49.7611 -5.48403 -97.0733 -168.458C-225.473 -311.07 -200.68 -421.627 -366.652 -559.134C-585.79 -740.681 -803.38 -634.495 -882.532 -369.165H-882.537Z" stroke="#40FFB7" stroke-opacity="0.56" stroke-width="4.03" stroke-miterlimit="10"/>
</g>
</g>
<g opacity="0.31">
<mask id="mask7_5011_6389" style="mask-type:luminance" maskUnits="userSpaceOnUse" x="-1052" y="-604" width="1210" height="2192">
<path d="M157.777 -603.622H-1051.3V1587.06H157.777V-603.622Z" fill="white"/>
</mask>
<g mask="url(#mask7_5011_6389)">
<path d="M-863.705 -325.788C-891.56 -233.276 -911.344 -156.16 -971.425 10.0268C-1046.12 216.642 -1054.59 443.964 -1048.65 580.082C-1039.12 798.168 -1005.19 976.928 -993.459 1011.21C-954.543 1124.87 -914.522 1240.04 -860.477 1317.14C-675.595 1581.43 -618.775 1490.48 -427.68 1573.38C-348.218 1607.85 -279.204 1559.68 -218.42 1485.32C-131.634 1379.16 -62.0948 1213.3 1.03239 1160.44C196.445 996.775 169.851 561.588 123.274 357.842C76.0775 151.365 44.6742 21.9465 -97.6661 -137.196C-222.229 -276.584 -202.102 -384.227 -361.291 -514.907C-577.278 -692.211 -787.461 -580.643 -863.705 -325.788Z" stroke="#40FFB7" stroke-opacity="0.56" stroke-width="4.03" stroke-miterlimit="10"/>
</g>
</g>
<g opacity="0.36">
<mask id="mask8_5011_6389" style="mask-type:luminance" maskUnits="userSpaceOnUse" x="-1023" y="-556" width="1169" height="2106">
<path d="M145.368 -555.415H-1022.6V1549.94H145.368V-555.415Z" fill="white"/>
</mask>
<g mask="url(#mask8_5011_6389)">
<path d="M-844.867 -282.4C-872.008 -192.653 -891.289 -117.062 -947.894 42.3444C-1018.51 241.215 -1025.96 459.991 -1019.74 592.885C-1010.01 800.624 -977.749 970.883 -965.975 1005.12C-928.502 1114.06 -889.946 1223.75 -838.151 1297.1C-661.24 1548.28 -604 1461.37 -423.308 1537.29C-347.676 1569.07 -281.73 1523.64 -223.556 1454.09C-140.678 1355.02 -74.1122 1199.58 -13.3509 1151.02C178.336 997.797 158.878 582.342 115.098 380.523C71.3788 179.001 39.5776 49.3769 -98.2576 -105.934C-218.979 -242.098 -203.534 -346.782 -355.929 -470.682C-568.771 -643.717 -771.535 -526.793 -844.872 -282.411L-844.867 -282.4Z" stroke="#40FFB7" stroke-opacity="0.56" stroke-width="4.04" stroke-miterlimit="10"/>
</g>
</g>
<g opacity="0.4">
<mask id="mask9_5011_6389" style="mask-type:luminance" maskUnits="userSpaceOnUse" x="-994" y="-508" width="1128" height="2021">
<path d="M133.196 -507.187H-993.929V1512.83H133.196V-507.187Z" fill="white"/>
</mask>
<g mask="url(#mask9_5011_6389)">
<path d="M-826.027 -239.012C-852.372 -151.904 -871.227 -77.9539 -924.355 74.6611C-990.893 265.788 -997.327 476.005 -990.815 605.687C-980.904 803.078 -950.291 964.837 -938.473 999.035C-902.443 1103.25 -865.351 1207.47 -815.8 1277.08C-646.866 1515.16 -589.189 1432.25 -418.917 1501.21C-347.117 1530.29 -284.244 1487.61 -228.678 1422.88C-149.714 1330.88 -86.0948 1185.92 -27.7159 1141.6C160.289 998.886 147.901 603.141 106.941 403.214C66.6763 206.695 34.5046 76.8294 -98.8309 -74.6614C-215.716 -207.613 -204.959 -309.28 -350.549 -426.446C-560.257 -595.191 -755.365 -472.621 -826.021 -239.012H-826.027Z" stroke="#40FFB7" stroke-opacity="0.56" stroke-width="4.05" stroke-miterlimit="10"/>
</g>
</g>
<g opacity="0.44">
<mask id="mask10_5011_6389" style="mask-type:luminance" maskUnits="userSpaceOnUse" x="-966" y="-460" width="1088" height="1936">
<path d="M121.297 -459.072H-965.282V1475.72H121.297V-459.072Z" fill="white"/>
</mask>
<g mask="url(#mask10_5011_6389)">
<path d="M-807.189 -195.635C-832.815 -111.268 -851.168 -38.8559 -900.824 106.968C-963.276 290.362 -968.716 492.01 -961.905 618.468C-951.839 805.511 -922.852 958.78 -910.984 992.921C-876.407 1092.43 -840.77 1191.16 -793.469 1257.02C-632.511 1481.99 -574.397 1403.06 -414.545 1465.11C-346.575 1491.48 -286.776 1451.56 -233.814 1391.64C-158.764 1306.73 -98.0795 1172.28 -42.0942 1132.16C142.279 1000.03 136.89 623.975 98.7645 425.872C61.9219 234.413 29.4131 104.237 -99.4284 -43.4218C-212.477 -173.15 -206.413 -271.776 -345.188 -382.231C-551.766 -546.662 -739.418 -418.758 -807.194 -195.647L-807.189 -195.635Z" stroke="#40FFB7" stroke-opacity="0.56" stroke-width="4.05" stroke-miterlimit="10"/>
</g>
</g>
<g opacity="0.49">
<mask id="mask11_5011_6389" style="mask-type:luminance" maskUnits="userSpaceOnUse" x="-937" y="-412" width="1047" height="1851">
<path d="M109.671 -411.015H-936.682V1438.62H109.671V-411.015Z" fill="white"/>
</mask>
<g mask="url(#mask11_5011_6389)">
<path d="M-788.35 -152.248C-813.258 -70.6229 -831.102 0.263944 -877.292 139.284C-935.66 314.958 -940.109 508.025 -932.995 631.271C-922.796 807.966 -895.406 952.745 -883.494 986.841C-850.377 1081.65 -816.188 1174.88 -771.136 1237C-618.155 1448.86 -559.594 1373.89 -410.167 1429.04C-346.017 1452.7 -289.302 1415.53 -238.95 1360.43C-167.818 1282.61 -110.047 1158.73 -56.4721 1122.75C124.33 1001.34 125.845 644.888 90.5944 448.575C57.1348 262.232 24.3274 131.701 -100.014 -12.1261C-209.221 -138.63 -207.867 -234.159 -339.82 -337.972C-543.281 -498.043 -723.476 -364.84 -788.355 -152.225L-788.35 -152.248Z" stroke="#40FFB7" stroke-opacity="0.56" stroke-width="4.06" stroke-miterlimit="10"/>
</g>
</g>
<g opacity="0.53">
<mask id="mask12_5011_6389" style="mask-type:luminance" maskUnits="userSpaceOnUse" x="-909" y="-364" width="1008" height="1766">
<path d="M98.3416 -363.004H-908.123V1401.53H98.3416V-363.004Z" fill="white"/>
</mask>
<g mask="url(#mask12_5011_6389)">
<path d="M-769.519 -108.86C-793.708 -29.9882 -811.044 39.3844 -853.762 171.602C-908.039 339.567 -911.516 524.04 -904.082 644.074C-893.783 810.421 -867.963 946.699 -856.006 980.76C-824.354 1070.87 -791.608 1158.6 -748.806 1216.99C-603.802 1415.73 -544.782 1344.68 -405.797 1392.96C-345.466 1413.92 -291.836 1379.49 -244.087 1329.22C-176.875 1258.46 -121.995 1145.24 -70.852 1113.33C106.429 1002.76 114.771 665.848 82.4223 471.256C52.3069 290.075 19.2397 159.131 -100.603 19.1359C-205.973 -104.156 -209.334 -196.542 -334.455 -293.746C-534.804 -449.413 -707.53 -310.966 -769.524 -108.848L-769.519 -108.86Z" stroke="#40FFB7" stroke-opacity="0.56" stroke-width="4.07" stroke-miterlimit="10"/>
</g>
</g>
<g opacity="0.57">
<mask id="mask13_5011_6389" style="mask-type:luminance" maskUnits="userSpaceOnUse" x="-880" y="-316" width="968" height="1681">
<path d="M87.3114 -315.061H-879.607V1364.44H87.3114V-315.061Z" fill="white"/>
</mask>
<g mask="url(#mask13_5011_6389)">
<path d="M-750.678 -65.4832C-774.155 10.6465 -790.965 78.5161 -830.229 203.907C-880.41 364.174 -882.93 540.032 -875.169 656.865C-864.805 812.865 -840.527 940.665 -828.515 974.657C-798.333 1060.09 -767.024 1142.3 -726.467 1196.93C-589.439 1382.58 -529.949 1315.39 -401.417 1356.85C-344.901 1375.08 -294.371 1343.43 -249.215 1297.98C-185.933 1234.29 -133.911 1131.79 -85.2223 1103.9C88.5987 1004.34 103.662 686.842 74.2596 493.937C47.4388 317.964 14.1615 186.573 -101.181 50.3977C-202.715 -69.6706 -210.802 -158.856 -329.08 -249.521C-526.333 -400.725 -691.586 -257.104 -750.678 -65.4718V-65.4832Z" stroke="#40FFB7" stroke-opacity="0.56" stroke-width="4.08" stroke-miterlimit="10"/>
</g>
</g>
<g opacity="0.61">
<mask id="mask14_5011_6389" style="mask-type:luminance" maskUnits="userSpaceOnUse" x="-852" y="-268" width="929" height="1596">
<path d="M76.5977 -267.165H-851.151V1327.36H76.5977V-267.165Z" fill="white"/>
</mask>
<g mask="url(#mask14_5011_6389)">
<path d="M-731.84 -22.0958C-754.598 51.2806 -770.889 117.659 -806.698 236.213C-852.777 388.793 -854.369 556.024 -846.26 669.645C-835.862 815.308 -813.088 934.607 -801.026 968.554C-772.326 1049.32 -742.443 1125.99 -704.135 1176.89C-575.084 1349.42 -515.113 1286.06 -397.039 1320.76C-344.332 1336.25 -296.909 1307.36 -254.345 1266.75C-194.994 1210.1 -145.819 1118.43 -99.5953 1094.47C70.8261 1006.13 92.5005 707.882 66.0943 516.605C42.5239 345.899 9.0753 213.991 -101.768 81.659C-199.46 -35.1856 -212.29 -121.124 -323.714 -205.296C-517.882 -351.98 -675.656 -203.242 -731.84 -22.0843V-22.0958Z" stroke="#40FFB7" stroke-opacity="0.56" stroke-width="4.08" stroke-miterlimit="10"/>
</g>
</g>
<g opacity="0.66">
<mask id="mask15_5011_6389" style="mask-type:luminance" maskUnits="userSpaceOnUse" x="-823" y="-220" width="890" height="1511">
<path d="M66.1923 -219.326H-822.763V1290.29H66.1923V-219.326Z" fill="white"/>
</mask>
<g mask="url(#mask15_5011_6389)">
<path d="M-713.004 21.2928C-735.049 91.9158 -750.808 156.826 -783.163 268.531C-825.135 413.448 -825.82 572.028 -817.346 682.448C-806.954 817.775 -785.65 928.573 -773.533 962.474C-746.32 1038.57 -717.857 1109.71 -681.8 1156.87C-560.725 1316.29 -500.256 1256.68 -392.664 1284.69C-343.754 1297.43 -299.449 1271.32 -259.483 1235.55C-204.067 1185.94 -157.711 1105.19 -113.981 1085.07C53.0962 1008.19 81.2768 728.991 57.9109 539.298C37.541 373.892 3.97641 241.445 -102.367 112.933C-196.223 -0.687965 -213.802 -83.3109 -318.354 -161.058C-509.449 -303.153 -659.738 -149.368 -713.015 21.3043L-713.004 21.2928Z" stroke="#40FFB7" stroke-opacity="0.56" stroke-width="4.09" stroke-miterlimit="10"/>
</g>
</g>
<g opacity="0.7">
<mask id="mask16_5011_6389" style="mask-type:luminance" maskUnits="userSpaceOnUse" x="-795" y="-172" width="852" height="1426">
<path d="M56.0949 -171.544H-794.453V1253.27H56.0949V-171.544Z" fill="white"/>
</mask>
<g mask="url(#mask16_5011_6389)">
<path d="M-694.162 64.669C-715.499 132.539 -730.712 195.992 -759.628 300.836C-797.482 438.101 -797.3 588.032 -788.427 695.24C-778.079 820.241 -758.213 922.55 -746.035 956.371C-720.314 1027.82 -693.267 1093.41 -659.453 1136.82C-546.355 1283.12 -485.367 1227.18 -388.272 1248.58C-343.154 1258.53 -301.983 1235.21 -264.599 1204.3C-213.129 1161.72 -169.571 1092 -128.339 1075.61C35.4492 1010.54 70.0143 750.088 49.7605 561.955C32.5305 401.884 -1.08946 268.852 -102.933 144.172C-192.953 33.7629 -215.285 -45.4873 -312.967 -116.856C-501.011 -254.259 -643.793 -95.552 -694.157 64.669H-694.162Z" stroke="#40FFB7" stroke-opacity="0.56" stroke-width="4.1" stroke-miterlimit="10"/>
</g>
</g>
<g opacity="0.74">
<mask id="mask17_5011_6389" style="mask-type:luminance" maskUnits="userSpaceOnUse" x="-767" y="-124" width="814" height="1341">
<path d="M46.3168 -123.797H-766.233V1216.29H46.3168V-123.797Z" fill="white"/>
</mask>
<g mask="url(#mask17_5011_6389)">
<path d="M-675.33 108.057C-695.96 173.173 -710.614 235.192 -736.097 333.153C-769.822 462.801 -768.816 604.058 -759.518 708.042C-749.264 822.73 -730.785 916.527 -718.552 950.29C-694.334 1017.1 -668.691 1077.13 -637.127 1116.8C-532.006 1250 -470.482 1197.59 -383.905 1212.51C-342.569 1219.63 -304.549 1199.15 -269.746 1173.09C-222.229 1137.52 -181.445 1078.96 -142.728 1066.21C17.8203 1013.33 58.6429 771.254 41.5786 584.647C27.4331 429.933 -6.18689 296.304 -103.531 175.445C-189.715 68.2597 -216.817 -7.54873 -307.611 -72.6192C-492.626 -205.215 -627.89 -41.7015 -675.335 108.057H-675.33Z" stroke="#40FFB7" stroke-opacity="0.56" stroke-width="4.1" stroke-miterlimit="10"/>
</g>
</g>
<g opacity="0.79">
<mask id="mask18_5011_6389" style="mask-type:luminance" maskUnits="userSpaceOnUse" x="-739" y="-77" width="776" height="1259">
<path d="M36.8332 -76.0945H-738.134V1181.64H36.8332V-76.0945Z" fill="white"/>
</mask>
<g mask="url(#mask18_5011_6389)">
<path d="M-656.493 151.445C-676.415 213.797 -690.5 274.405 -712.567 365.471C-742.146 487.512 -740.371 620.097 -730.609 720.835C-720.493 825.232 -703.363 910.505 -691.063 944.187C-668.355 1006.37 -644.11 1060.83 -614.797 1096.76C-517.651 1216.85 -455.569 1167.82 -379.534 1176.42C-341.968 1180.66 -307.115 1163.03 -274.883 1141.87C-231.329 1113.26 -193.304 1066.02 -157.108 1056.79C0.23497 1016.62 47.2044 792.433 33.4071 607.34C22.2742 457.994 -11.2739 323.747 -104.124 206.73C-186.466 102.769 -218.356 30.4592 -302.251 -28.3704C-484.253 -156.022 -611.989 12.1495 -656.504 151.468L-656.493 151.445Z" stroke="#40FFB7" stroke-opacity="0.56" stroke-width="4.11" stroke-miterlimit="10"/>
</g>
</g>
<g opacity="0.83">
<mask id="mask19_5011_6389" style="mask-type:luminance" maskUnits="userSpaceOnUse" x="-711" y="-29" width="739" height="1185">
<path d="M27.6536 -28.4167H-710.161V1155.39H27.6536V-28.4167Z" fill="white"/>
</mask>
<g mask="url(#mask19_5011_6389)">
<path d="M-637.653 194.821C-656.874 254.408 -670.361 313.639 -689.034 397.776C-714.44 512.257 -711.98 636.134 -701.693 733.625C-691.765 827.755 -675.939 904.493 -663.568 938.095C-642.374 995.662 -619.522 1044.53 -592.453 1076.73C-503.279 1183.7 -440.461 1149.96 -375.145 1140.33C-341.409 1135.35 -309.668 1126.88 -280.001 1110.64C-240.422 1088.95 -205.138 1053.21 -171.468 1047.36C-17.3152 1020.55 35.685 813.598 25.2541 630.008C17.073 486.02 -16.3479 351.176 -104.693 237.98C-183.198 137.231 -219.886 68.5234 -296.86 15.8429C-475.883 -106.669 -596.068 65.9536 -637.642 194.833L-637.653 194.821Z" stroke="#40FFB7" stroke-opacity="0.56" stroke-width="4.12" stroke-miterlimit="10"/>
</g>
</g>
<g opacity="0.87">
<mask id="mask20_5011_6389" style="mask-type:luminance" maskUnits="userSpaceOnUse" x="-683" y="19" width="702" height="1105">
<path d="M18.7682 19.239H-682.358V1123.53H18.7682V19.239Z" fill="white"/>
</mask>
<g mask="url(#mask20_5011_6389)">
<path d="M-618.816 238.209C-637.339 295.02 -650.202 352.897 -665.498 430.082C-686.691 537.015 -683.651 652.219 -672.778 746.417C-663.093 830.302 -648.522 898.493 -636.073 932.003C-616.4 984.959 -594.936 1028.24 -570.116 1056.69C-488.918 1150.57 -425.255 1118.35 -370.768 1104.25C-340.918 1096.53 -312.245 1090.7 -285.137 1079.42C-249.538 1064.6 -216.996 1035.04 -185.847 1037.94C-34.9329 1052 24.0428 834.742 17.0833 652.689C11.7822 514.036 -21.4342 378.606 -105.279 269.242C-179.949 171.716 -221.44 106.669 -291.494 60.0687C-467.576 -57.0626 -580.182 119.759 -618.81 238.209H-618.816Z" stroke="#40FFB7" stroke-opacity="0.56" stroke-width="4.12" stroke-miterlimit="10"/>
</g>
</g>
<g opacity="0.91">
<mask id="mask21_5011_6389" style="mask-type:luminance" maskUnits="userSpaceOnUse" x="-655" y="66" width="666" height="1023">
<path d="M10.1798 66.9176H-654.751V1088.38H10.1798V66.9176Z" fill="white"/>
</mask>
<g mask="url(#mask21_5011_6389)">
<path d="M-599.976 281.597C-617.814 335.62 -630.002 392.19 -641.965 462.4C-658.902 561.829 -655.425 668.383 -643.866 759.22C-634.485 832.906 -621.119 892.505 -608.582 925.912C-590.435 974.279 -570.352 1011.95 -547.782 1036.65C-474.561 1117.42 -410.688 1076.79 -366.394 1068.16C-340.071 1063.02 -314.825 1054.44 -290.271 1048.18C-258.657 1040.14 -228.802 1024.06 -200.229 1028.5C-52.9855 1051.4 12.2755 855.828 8.90908 675.358C6.41605 541.994 -26.524 406.036 -105.875 300.504C-176.703 206.202 -223.014 144.906 -286.136 104.294C-459.321 -7.11264 -564.31 173.54 -599.981 281.597H-599.976Z" stroke="#40FFB7" stroke-opacity="0.56" stroke-width="4.13" stroke-miterlimit="10"/>
</g>
</g>
<g opacity="0.96">
<mask id="mask22_5011_6389" style="mask-type:luminance" maskUnits="userSpaceOnUse" x="-628" y="114" width="630" height="944">
<path d="M1.88928 114.631H-627.398V1057.68H1.88928V114.631Z" fill="white"/>
</mask>
<g mask="url(#mask22_5011_6389)">
<path d="M-581.141 324.974C-598.332 376.14 -609.764 431.47 -618.437 494.705C-631.04 586.655 -627.342 684.639 -614.954 772C-605.944 835.556 -593.722 886.527 -581.091 919.808C-564.48 963.586 -545.769 995.651 -525.448 1016.61C-460.204 1084.26 -395.789 1045.39 -362.014 1032.05C-339.477 1023.15 -317.394 1018.06 -295.399 1016.94C-267.766 1015.54 -240.79 1015.64 -214.599 1019.05C-70.3962 1037.87 0.392512 876.822 0.740761 698.016C0.989511 569.871 -31.6078 433.443 -106.459 331.742C-173.451 240.653 -224.583 183.2 -280.767 148.496C-451.111 43.2617 -548.516 227.184 -581.146 324.951L-581.141 324.974Z" stroke="#40FFB7" stroke-opacity="0.56" stroke-width="4.14" stroke-miterlimit="10"/>
</g>
</g>
</g>
</g>
</g>
<defs>
<clipPath id="clip0_5011_6389">
<rect width="1920" height="1239" fill="white" transform="translate(-1406)"/>
</clipPath>
</defs>
</svg>
