<svg width="641" height="578" viewBox="0 0 641 578" fill="none" xmlns="http://www.w3.org/2000/svg">
<g clip-path="url(#clip0_4012_2223)">
<path d="M76.6651 462.074C56.6722 433.674 24.048 378.207 19.277 323.868C16.8982 296.775 21.4559 270.128 37.7926 247.215C54.1343 224.295 82.4887 204.794 128.321 192.444C174.877 179.903 206.198 161.497 229.074 140.899C251.924 120.324 266.234 97.6572 278.841 76.8666C279.621 75.5804 280.394 74.3024 281.161 73.0333C292.864 53.6827 303.312 36.4068 318.278 23.7338C334.068 10.3637 355.066 2.00322 388.328 2.51542C455.193 3.55282 521.524 32.0622 569.098 73.6151C616.72 115.21 645.129 169.465 637.166 221.891C629.232 274.133 589.295 298.272 544.901 323.46C543.552 324.225 542.199 324.992 540.843 325.76C497.877 350.094 451.87 376.151 431.436 430.775C421.363 457.7 398.697 479.396 368.931 495.222C339.179 511.041 302.529 520.884 264.899 524.186C227.271 527.487 188.793 524.237 155.405 513.986C122 503.729 93.8795 486.528 76.6651 462.074Z" stroke="#40FFB7" stroke-width="5"/>
<path opacity="0.7" d="M147.461 200.117C189.593 188.777 217.95 172.13 238.667 153.491C259.357 134.876 272.313 114.37 283.714 95.5828C284.418 94.4239 285.115 93.2725 285.807 92.1293C296.396 74.6351 305.824 59.0589 319.326 47.635C333.552 35.5984 352.482 28.058 382.513 28.5201C442.916 29.4564 502.844 55.191 545.825 92.7015C588.855 130.254 614.481 179.198 607.298 226.454C600.143 273.525 564.142 295.284 523.984 318.05C522.758 318.745 521.527 319.441 520.294 320.139C481.457 342.117 439.784 365.699 421.274 415.137C412.193 439.391 391.749 458.955 364.864 473.238C337.994 487.513 304.885 496.399 270.882 499.38C236.882 502.361 202.118 499.425 171.96 490.174C141.784 480.916 116.409 465.399 100.883 443.361C82.8097 417.709 53.3403 367.638 49.0318 318.607C46.8843 294.169 51.0001 270.155 65.7309 249.512C80.4668 228.861 106.052 211.265 147.461 200.117ZM147.461 200.117L146.811 197.703L147.461 200.117C147.461 200.117 147.461 200.117 147.461 200.117Z" stroke="#40FFB7" stroke-opacity="0.5" stroke-width="5"/>
<g filter="url(#filter0_d_4012_2223)">
<path d="M508.696 40.7107H91.3702V311.489H508.696V40.7107Z" fill="white"/>
<path d="M508.696 40.7107H91.3702V311.489H135.498H205.454H508.696V40.7107Z" fill="white"/>
<path d="M508.696 40.7107H91.3702V76.1371H508.696V40.7107Z" fill="white"/>
<path d="M495.907 46.3545H479.94C477.675 46.3545 475.839 48.1884 475.839 50.4506V66.3971C475.839 68.6593 477.675 70.4932 479.94 70.4932H495.907C498.172 70.4932 500.008 68.6593 500.008 66.3971V50.4506C500.008 48.1884 498.172 46.3545 495.907 46.3545Z" fill="white"/>
<path d="M466.259 46.3545H450.355C448.072 46.3545 446.222 48.2024 446.222 50.4818V66.3659C446.222 68.6453 448.072 70.4932 450.355 70.4932H466.259C468.541 70.4932 470.391 68.6453 470.391 66.3659V50.4818C470.391 48.2024 468.541 46.3545 466.259 46.3545Z" fill="white"/>
<path d="M436.658 46.3545H420.691C418.426 46.3545 416.59 48.1884 416.59 50.4506V66.3971C416.59 68.6593 418.426 70.4932 420.691 70.4932H436.658C438.923 70.4932 440.759 68.6593 440.759 66.3971V50.4506C440.759 48.1884 438.923 46.3545 436.658 46.3545Z" fill="white"/>
<path d="M484.871 91.771H115.195C110.682 91.771 107.024 95.4247 107.024 99.9319V287.695C107.024 292.202 110.682 295.856 115.195 295.856H484.871C489.384 295.856 493.042 292.202 493.042 287.695V99.9319C493.042 95.4247 489.384 91.771 484.871 91.771Z" fill="white"/>
<path d="M482.742 63.5987L493.105 53.2334" stroke="#222236" stroke-linecap="round" stroke-linejoin="round"/>
<path d="M482.742 53.2334L493.105 63.5987" stroke="#222236" stroke-linecap="round" stroke-linejoin="round"/>
<path d="M465.21 56.2039H451.388V65.3184H465.21V56.2039Z" stroke="#222236" stroke-linecap="round" stroke-linejoin="round"/>
<path d="M435.593 65.3184H421.771" stroke="#222236" stroke-linecap="round" stroke-linejoin="round"/>
<path d="M468.763 230.506H441.322C439.601 230.506 438.192 229.099 438.192 227.379C438.192 225.659 439.601 224.252 441.322 224.252H468.763C470.485 224.252 471.894 225.659 471.894 227.379C471.894 229.099 470.485 230.506 468.763 230.506Z" fill="#3D3D64"/>
<path d="M468.763 252.128H392.17C390.448 252.128 389.039 250.721 389.039 249.001C389.039 247.281 390.448 245.874 392.17 245.874H468.763C470.485 245.874 471.894 247.281 471.894 249.001C471.894 250.721 470.485 252.128 468.763 252.128Z" fill="#3D3D64"/>
<path d="M468.763 273.749H300.033C298.311 273.749 296.902 272.342 296.902 270.623C296.902 268.903 298.311 267.496 300.033 267.496H468.763C470.485 267.496 471.894 268.903 471.894 270.623C471.894 272.342 470.485 273.749 468.763 273.749Z" fill="#3D3D64"/>
<path d="M135.983 208.869H123.21C121.488 208.869 120.079 207.462 120.079 205.742C120.079 204.022 121.488 202.615 123.21 202.615H135.983C137.705 202.615 139.114 204.022 139.114 205.742C139.114 207.462 137.705 208.869 135.983 208.869Z" fill="#D9D9D9"/>
<path d="M135.983 230.506H123.21C121.488 230.506 120.079 229.099 120.079 227.379C120.079 225.659 121.488 224.252 123.21 224.252H135.983C137.705 224.252 139.114 225.659 139.114 227.379C139.114 229.099 137.705 230.506 135.983 230.506Z" fill="#D9D9D9"/>
<path d="M135.983 252.128H123.21C121.488 252.128 120.079 250.721 120.079 249.001C120.079 247.281 121.488 245.874 123.21 245.874H135.983C137.705 245.874 139.114 247.281 139.114 249.001C139.114 250.721 137.705 252.128 135.983 252.128Z" fill="#D9D9D9"/>
<path d="M135.983 273.749H123.21C121.488 273.749 120.079 272.342 120.079 270.623C120.079 268.903 121.488 267.496 123.21 267.496H135.983C137.705 267.496 139.114 268.903 139.114 270.623C139.114 272.342 137.705 273.749 135.983 273.749Z" fill="#D9D9D9"/>
<g opacity="0.7">
<path d="M135.983 208.869H123.21C121.488 208.869 120.079 207.462 120.079 205.742C120.079 204.022 121.488 202.615 123.21 202.615H135.983C137.705 202.615 139.114 204.022 139.114 205.742C139.114 207.462 137.705 208.869 135.983 208.869Z" fill="#D9D9D9"/>
</g>
<g opacity="0.7">
<path d="M135.983 230.506H123.21C121.488 230.506 120.079 229.099 120.079 227.379C120.079 225.659 121.488 224.252 123.21 224.252H135.983C137.705 224.252 139.114 225.659 139.114 227.379C139.114 229.099 137.705 230.506 135.983 230.506Z" fill="#D9D9D9"/>
</g>
<g opacity="0.7">
<path d="M135.983 252.128H123.21C121.488 252.128 120.079 250.721 120.079 249.001C120.079 247.281 121.488 245.874 123.21 245.874H135.983C137.705 245.874 139.114 247.281 139.114 249.001C139.114 250.721 137.705 252.128 135.983 252.128Z" fill="#D9D9D9"/>
</g>
<g opacity="0.7">
<path d="M135.983 273.749H123.21C121.488 273.749 120.079 272.342 120.079 270.623C120.079 268.903 121.488 267.496 123.21 267.496H135.983C137.705 267.496 139.114 268.903 139.114 270.623C139.114 272.342 137.705 273.749 135.983 273.749Z" fill="#D9D9D9"/>
</g>
<path d="M392.17 187.247H123.194C121.472 187.247 120.063 185.84 120.063 184.12C120.063 182.401 121.472 180.994 123.194 180.994H392.17C393.892 180.994 395.301 182.401 395.301 184.12C395.301 185.84 393.892 187.247 392.17 187.247Z" fill="#D9D9D9"/>
<path d="M468.763 143.988H441.322C439.601 143.988 438.192 142.581 438.192 140.861C438.192 139.142 439.601 137.735 441.322 137.735H468.763C470.485 137.735 471.894 139.142 471.894 140.861C471.894 142.581 470.485 143.988 468.763 143.988Z" fill="#D9D9D9"/>
<path d="M429.848 143.988H403.644C401.922 143.988 400.513 142.581 400.513 140.861C400.513 139.142 401.922 137.735 403.644 137.735H429.848C431.57 137.735 432.979 139.142 432.979 140.861C432.979 142.581 431.57 143.988 429.848 143.988Z" fill="#D9D9D9"/>
<path d="M392.17 143.988H123.194C121.472 143.988 120.063 142.581 120.063 140.861C120.063 139.142 121.472 137.735 123.194 137.735H392.17C393.892 137.735 395.301 139.142 395.301 140.861C395.301 142.581 393.892 143.988 392.17 143.988Z" fill="#D9D9D9"/>
<path d="M468.763 208.869H441.322C439.601 208.869 438.192 207.462 438.192 205.742C438.192 204.022 439.601 202.615 441.322 202.615H468.763C470.485 202.615 471.894 204.022 471.894 205.742C471.894 207.462 470.485 208.869 468.763 208.869Z" fill="#40FFB7"/>
<path d="M429.848 208.869H150.071C148.349 208.869 146.941 207.462 146.941 205.742C146.941 204.022 148.349 202.615 150.071 202.615H429.864C431.586 202.615 432.995 204.022 432.995 205.742C432.995 207.462 431.586 208.869 429.864 208.869H429.848Z" fill="#40FFB7"/>
<path d="M230.421 230.506H150.071C148.349 230.506 146.941 229.099 146.941 227.379C146.941 225.659 148.349 224.252 150.071 224.252H230.421C232.143 224.252 233.552 225.659 233.552 227.379C233.552 229.099 232.143 230.506 230.421 230.506Z" fill="#40FFB7"/>
<path d="M230.421 252.128H150.071C148.349 252.128 146.941 250.721 146.941 249.001C146.941 247.281 148.349 245.874 150.071 245.874H230.421C232.143 245.874 233.552 247.281 233.552 249.001C233.552 250.721 232.143 252.128 230.421 252.128Z" fill="#40FFB7"/>
<path d="M230.421 273.749H150.071C148.349 273.749 146.941 272.342 146.941 270.623C146.941 268.903 148.349 267.496 150.071 267.496H230.421C232.143 267.496 233.552 268.903 233.552 270.623C233.552 272.342 232.143 273.749 230.421 273.749Z" fill="#40FFB7"/>
</g>
<path d="M177.653 551.125C177.653 551.125 169.435 565.243 172.675 565.743C175.915 566.259 182.678 554.049 182.678 554.049L201.227 549.14L187.264 547.702L177.669 551.125H177.653Z" fill="white" stroke="#222236" stroke-linecap="round" stroke-linejoin="round"/>
<path opacity="0.3" d="M177.653 551.125C177.653 551.125 169.435 565.243 172.675 565.743C175.915 566.259 182.678 554.049 182.678 554.049L201.227 549.14L187.264 547.702L177.669 551.125H177.653Z" fill="#15151F" stroke="#222236" stroke-linecap="round" stroke-linejoin="round"/>
<path d="M183.899 541.495C183.899 541.495 172.409 538.759 169.247 544.153C166.069 549.546 156.787 565.477 160.262 567.306C163.737 569.136 166.789 563.242 166.789 563.242L183.899 541.495Z" fill="white" stroke="#222236" stroke-linecap="round" stroke-linejoin="round"/>
<path d="M230.891 557.848C230.891 557.848 219.37 562.194 207.348 560.318L194.277 564.649C194.277 564.649 182.787 570.293 177.449 567.447C172.112 564.602 191.068 558.317 191.068 558.317C191.068 558.317 203.826 552.798 200.022 551.485C196.218 550.156 181.817 550.406 178.999 552.579C176.166 554.753 168.762 568.776 163.408 567.979C158.055 567.181 165.662 559.536 167.588 556.597C169.513 553.658 173.818 541.933 182.552 541.432C191.287 540.948 220.7 542.449 220.7 542.449L255.279 538.759L263.435 558.411L230.906 557.848H230.891Z" fill="white" stroke="#222236" stroke-linecap="round" stroke-linejoin="round"/>
<path d="M248.939 562.71C250.614 563.758 252.978 564.43 255.53 562.616C255.53 562.616 259.271 564.242 261.807 561.459C264.327 558.677 264.562 534.413 257.565 531.677C255.545 530.895 250.52 530.973 249.691 533.787C249.691 533.787 245.339 532.302 244.603 536.945C243.915 541.323 248.266 545.403 246.811 557.989C246.591 559.849 247.437 561.756 248.939 562.71Z" fill="#40FFB7" stroke="#222236" stroke-linecap="round" stroke-linejoin="round"/>
<path opacity="0.3" d="M248.939 562.71C250.614 563.758 252.978 564.43 255.53 562.616C255.53 562.616 259.271 564.242 261.807 561.459C264.327 558.677 264.562 534.413 257.565 531.677C255.545 530.895 250.52 530.973 249.691 533.787C249.691 533.787 245.339 532.302 244.603 536.945C243.915 541.323 248.266 545.403 246.811 557.989C246.591 559.849 247.437 561.756 248.939 562.71Z" fill="#15151F" stroke="#222236" stroke-linecap="round" stroke-linejoin="round"/>
<path d="M256.907 557.051C256.907 557.051 257.111 546.529 252.775 537.868" stroke="#222236" stroke-linecap="round" stroke-linejoin="round"/>
<path d="M421.489 548.233C420.331 557.129 419.016 566.759 417.513 577.218H283.143L283.784 559.927C275.754 561.866 260.147 560.678 260.147 560.678V535.116C269.634 529.754 271.042 531.255 271.042 531.255C271.042 531.255 271.528 468.875 277.21 453.304C279.621 446.707 283.847 442.001 288.324 438.702C289.733 437.639 291.157 436.732 292.566 435.951C292.644 435.904 292.707 435.872 292.77 435.825C294.335 434.997 296.229 434.121 298.389 433.215C298.577 433.136 298.781 433.058 298.984 432.98C320.023 424.397 365.935 414.438 408.716 432.699C411.706 433.981 436.125 445.628 438.207 462.466C439.397 472.065 432.854 519.811 421.489 548.233Z" fill="#40FFB7"/>
<mask id="mask0_4012_2223" style="mask-type:luminance" maskUnits="userSpaceOnUse" x="260" y="422" width="179" height="156">
<path d="M421.489 548.233C420.331 557.129 419.016 566.759 417.513 577.218H283.143L283.784 559.927C275.754 561.866 260.147 560.678 260.147 560.678V535.116C269.634 529.754 271.042 531.255 271.042 531.255C271.042 531.255 271.528 468.875 277.21 453.304C279.621 446.707 283.847 442.001 288.324 438.702C289.733 437.639 291.157 436.732 292.566 435.951C292.644 435.904 292.707 435.872 292.77 435.825C294.335 434.997 296.229 434.121 298.389 433.215C298.577 433.136 298.781 433.058 298.984 432.98C320.023 424.397 365.935 414.438 408.716 432.699C411.706 433.981 436.125 445.628 438.207 462.466C439.397 472.065 432.854 519.811 421.489 548.233Z" fill="white"/>
</mask>
<g mask="url(#mask0_4012_2223)">
<path opacity="0.2" d="M400.2 471.33L386.801 533.443C384.719 531.802 378.724 531.692 371.1 532.412C372.775 530.551 374.137 528.534 375.155 526.346C395.41 482.571 399.84 472.206 400.2 471.33Z" fill="#15151F"/>
<path opacity="0.2" d="M424.683 539.572C420.801 553.392 419.094 565.978 417.513 577.218H283.143L284.379 557.301C292.754 556.113 307.453 554.893 322.715 552.189C324.656 560.24 323.075 566.744 323.075 566.744C323.075 566.744 384.876 574.404 405.617 569.417C411.534 567.994 416.887 559.74 421.474 548.374C422.585 545.607 423.65 542.652 424.683 539.572Z" fill="#15151F"/>
<path opacity="0.3" d="M272.639 532.427C272.639 532.427 269.634 529.754 260.132 535.116V560.678C260.132 560.678 275.785 560.115 281.937 556.8C287.228 560.068 286.289 500.237 287.228 468.016C279.558 470.126 278.948 484.697 277.758 498.408C276.13 517.309 272.655 532.427 272.655 532.427H272.639Z" fill="#15151F"/>
</g>
<path d="M421.489 548.233C420.331 557.129 419.016 566.759 417.513 577.218H283.143L283.784 559.927C275.754 561.866 260.147 560.678 260.147 560.678V535.116C269.634 529.754 271.042 531.255 271.042 531.255C271.042 531.255 271.528 468.875 277.21 453.304C279.621 446.707 283.847 442.001 288.324 438.702C289.733 437.639 291.157 436.732 292.566 435.951C292.644 435.904 292.707 435.872 292.77 435.825C294.335 434.997 296.229 434.121 298.389 433.215C298.577 433.136 298.781 433.058 298.984 432.98C320.023 424.397 365.935 414.438 408.716 432.699C411.706 433.981 436.125 445.628 438.207 462.466C439.397 472.065 432.854 519.811 421.489 548.233Z" stroke="#222236" stroke-linecap="round" stroke-linejoin="round"/>
<path d="M438.207 462.466C438.254 462.841 438.301 463.279 438.317 463.763C439.006 475.77 432.463 521.077 421.474 548.374C416.887 559.74 411.534 567.994 405.617 569.417C384.876 574.404 323.075 566.744 323.075 566.744C323.075 566.744 326.143 554.08 318.457 542.198C318.457 542.198 379.131 527.377 386.801 533.443L400.232 471.267" stroke="#222236" stroke-linecap="round" stroke-linejoin="round"/>
<path d="M391.027 536.82C391.027 536.82 396.788 539.119 401.781 546.029" stroke="#222236" stroke-linecap="round" stroke-linejoin="round"/>
<path d="M236.448 539.056C236.448 539.056 230.797 537.868 228.496 540.431C226.085 543.12 216.333 557.801 219.667 560.63C223.001 563.46 229.779 547.983 229.779 547.983L236.448 539.056Z" fill="white" stroke="#222236" stroke-linecap="round" stroke-linejoin="round"/>
<path d="M247.812 538.79C247.812 538.79 235.243 536.101 232.425 539.931C229.607 543.762 213.766 563.57 223.628 564.211L239.375 546.576L247.828 538.79H247.812Z" fill="white" stroke="#222236" stroke-linecap="round" stroke-linejoin="round"/>
<path d="M276.224 559.864C276.224 559.864 263.31 562.678 258.066 563.695C252.822 564.711 243.085 571.496 237.34 568.807C231.58 566.118 256.156 556.159 256.156 556.159L264.609 552.767L276.239 559.864H276.224Z" fill="white" stroke="#222236" stroke-linecap="round" stroke-linejoin="round"/>
<path d="M286.68 482.696C286.868 477.802 287.04 472.909 287.228 468.015" stroke="#222236" stroke-linecap="round" stroke-linejoin="round"/>
<path d="M283.143 577.218C285.538 547.623 286.43 489.356 286.43 489.356" stroke="#222236" stroke-linecap="round" stroke-linejoin="round"/>
<path d="M323.075 543.887H278.54C278.54 543.887 243.993 533.537 238.232 541.588C232.472 549.64 220.184 561.912 223.643 564.211C227.103 566.509 241.692 549.827 241.692 549.827L254.356 549.952C254.356 549.952 243.602 554.627 241.301 556.925C238.999 559.223 234.006 565.743 236.698 566.9C239.391 568.056 247.828 559.614 247.828 559.614C247.828 559.614 260.492 556.55 263.576 558.082C266.644 559.614 278.932 565.758 295.446 561.146L329.43 565.368L323.091 543.902L323.075 543.887Z" fill="white" stroke="#222236" stroke-linecap="round" stroke-linejoin="round"/>
<path d="M395.583 492.795C394.362 485.697 394.299 478.381 395.442 471.267" stroke="#222236" stroke-linecap="round" stroke-linejoin="round"/>
<path d="M405.679 455.508C405.679 455.508 427.281 427.086 438.207 462.465" stroke="#222236" stroke-linecap="round" stroke-linejoin="round"/>
<path d="M313.933 540.385C315.295 538.946 317.408 537.711 320.351 538.853C320.351 538.853 323.576 536.351 326.707 538.415C329.853 540.479 336.099 563.929 330.01 568.322C328.256 569.589 323.357 570.761 321.854 568.229C321.854 568.229 318.019 570.746 316.14 566.431C314.387 562.366 317.581 557.332 313.041 545.497C312.368 543.746 312.712 541.682 313.933 540.4V540.385Z" fill="#40FFB7"/>
<mask id="mask1_4012_2223" style="mask-type:luminance" maskUnits="userSpaceOnUse" x="312" y="537" width="21" height="33">
<path d="M313.933 540.385C315.295 538.946 317.408 537.711 320.351 538.853C320.351 538.853 323.576 536.351 326.707 538.415C329.853 540.479 336.099 563.929 330.01 568.322C328.256 569.589 323.357 570.761 321.854 568.229C321.854 568.229 318.019 570.746 316.14 566.431C314.387 562.366 317.581 557.332 313.041 545.497C312.368 543.746 312.712 541.682 313.933 540.4V540.385Z" fill="white"/>
</mask>
<g mask="url(#mask1_4012_2223)">
<path opacity="0.3" d="M313.933 540.385C315.295 538.946 317.408 537.711 320.351 538.853C320.351 538.853 323.576 536.351 326.707 538.415C329.853 540.479 336.099 563.929 330.01 568.322C328.256 569.589 323.357 570.761 321.854 568.229C321.854 568.229 318.019 570.746 316.14 566.431C314.387 562.366 317.581 557.332 313.041 545.497C312.368 543.746 312.712 541.682 313.933 540.4V540.385Z" fill="#15151F"/>
</g>
<path d="M313.933 540.385C315.295 538.946 317.408 537.711 320.351 538.853C320.351 538.853 323.576 536.351 326.707 538.415C329.853 540.479 336.099 563.929 330.01 568.322C328.256 569.589 323.357 570.761 321.854 568.229C321.854 568.229 318.019 570.746 316.14 566.431C314.387 562.366 317.581 557.332 313.041 545.497C312.368 543.746 312.712 541.682 313.933 540.4V540.385Z" stroke="#222236" stroke-linecap="round" stroke-linejoin="round"/>
<path d="M323.826 552.563C324.343 556.206 324.468 559.911 323.952 563.57" stroke="#222236" stroke-linecap="round" stroke-linejoin="round"/>
<path d="M343.393 482.352C343.299 484.025 341.859 485.307 340.169 485.213C338.494 485.119 337.21 483.681 337.304 481.992C337.398 480.304 338.838 479.038 340.529 479.131C342.204 479.225 343.487 480.663 343.393 482.352Z" fill="white" stroke="#222236" stroke-linecap="round" stroke-linejoin="round"/>
<path d="M341.202 529.566C341.108 531.239 339.668 532.521 337.977 532.427C336.287 532.333 335.019 530.895 335.113 529.207C335.207 527.518 336.647 526.252 338.337 526.346C340.028 526.44 341.296 527.878 341.202 529.566Z" fill="white" stroke="#222236" stroke-linecap="round" stroke-linejoin="round"/>
<path d="M369.159 424.538L366.921 393.036L334.283 400.587L332.545 425.882C330.479 426.133 328.522 426.43 326.613 426.727L334.596 445.831L350.203 447.879L375.155 424.913C373.135 424.757 371.132 424.632 369.159 424.538Z" fill="white"/>
<mask id="mask2_4012_2223" style="mask-type:luminance" maskUnits="userSpaceOnUse" x="326" y="393" width="50" height="55">
<path d="M369.159 424.538L366.921 393.036L334.283 400.587L332.545 425.882C330.479 426.133 328.522 426.43 326.613 426.727L334.596 445.831L350.203 447.879L375.155 424.913C373.135 424.757 371.132 424.632 369.159 424.538Z" fill="white"/>
</mask>
<g mask="url(#mask2_4012_2223)">
<path d="M333.798 411.734C334.017 434.137 360.237 427.274 367.484 404.886L366.905 393.036L334.267 400.587L333.782 411.749L333.798 411.734Z" fill="#222236"/>
</g>
<path d="M369.159 424.538L366.921 393.036L334.283 400.587L332.545 425.882C330.479 426.133 328.522 426.43 326.613 426.727L334.596 445.831L350.203 447.879L375.155 424.913C373.135 424.757 371.132 424.632 369.159 424.538Z" stroke="#222236" stroke-linecap="round" stroke-linejoin="round"/>
<path d="M313.808 366.442C313.808 366.442 301.896 345.837 300.127 334.971C294.679 301.405 318.942 312.724 318.942 312.724C318.942 312.724 336.099 297.388 357.466 300.077C378.833 302.766 384.468 311.849 398.839 317.415C398.839 317.415 388.038 372.149 374.215 384.421C360.393 396.694 313.808 366.442 313.808 366.442Z" fill="#222236" stroke="#222236" stroke-linecap="round" stroke-linejoin="round"/>
<path d="M320.085 317.712C320.085 317.712 314.716 304.673 328.335 294.698" stroke="#222236" stroke-linecap="round" stroke-linejoin="round"/>
<path d="M343.534 309.879C359.485 302.828 366.592 314.616 384.406 317.712" stroke="white" stroke-miterlimit="10"/>
<path d="M331.215 317.712C332.624 315.867 334.44 314.335 336.381 313.084" stroke="white" stroke-miterlimit="10"/>
<path d="M347.589 322.824C347.589 322.824 354.492 316.195 368.189 324.809C375.687 329.515 381.87 330.187 381.87 330.187" stroke="white" stroke-miterlimit="10"/>
<path d="M368.69 337.144C348.825 337.66 328.335 328.702 328.335 328.702C309.832 339.849 312.587 357.969 312.587 357.969C316.814 401.275 322.527 412.797 342.783 412.797C363.039 412.797 379.506 390.972 380.821 359.735C373.151 360.095 368.69 337.144 368.69 337.144Z" fill="white" stroke="#222236" stroke-linecap="round" stroke-linejoin="round"/>
<path d="M379.131 357.969C380.242 356.531 381.667 355.671 383.201 355.671C386.801 355.671 389.478 360.392 388.194 366.208C386.942 371.899 385.267 376.745 381.667 376.745C379.976 376.745 378.771 375.698 377.972 373.994" fill="white"/>
<path d="M379.131 357.969C380.242 356.531 381.667 355.671 383.201 355.671C386.801 355.671 389.478 360.392 388.194 366.208C386.942 371.899 385.267 376.745 381.667 376.745C379.976 376.745 378.771 375.698 377.972 373.994" stroke="#222236" stroke-linecap="round" stroke-linejoin="round"/>
<path d="M339.668 379.231C339.668 379.231 342.094 382.545 337.445 385.031C332.796 387.517 329.086 387.47 327.896 384.624C326.707 381.779 331.872 358.078 331.872 358.078" stroke="#222236" stroke-linecap="round" stroke-linejoin="round"/>
<path d="M331.105 361.846C328.601 360.58 318.567 356.202 309.065 362.174L309.675 371.367C309.675 371.367 313.182 373.29 321.228 373.29C324.86 373.29 327.395 372.899 329.07 372.477" stroke="#222236" stroke-linecap="round" stroke-linejoin="round"/>
<path d="M339.417 362.174L342.329 371.758C342.329 371.758 343.519 373.321 351.58 373.321C359.642 373.321 362.287 371.398 362.287 371.398L362.052 362.206C362.052 362.206 350.359 355.28 339.417 362.174Z" stroke="#222236" stroke-linecap="round" stroke-linejoin="round"/>
<path d="M331.747 362.174H339.417" stroke="#222236" stroke-linecap="round" stroke-linejoin="round"/>
<path d="M333.375 393.723C333.375 393.723 339.637 395.787 346.133 393.332C351.392 391.363 354.069 387.36 354.069 387.36" stroke="#222236" stroke-linecap="round" stroke-linejoin="round"/>
<path d="M346.133 353.107C356.198 348.964 360.644 353.935 360.644 353.935" stroke="#222236" stroke-linecap="round" stroke-linejoin="round"/>
<path d="M319.569 352.7C323.091 351.012 327.286 351.496 330.338 353.935" stroke="#222236" stroke-linecap="round" stroke-linejoin="round"/>
<path d="M350.14 360.095C351.079 360.095 351.737 361.58 351.737 363.488C351.737 365.395 350.954 366.88 350.046 366.88C349.138 366.88 348.465 365.317 348.465 363.488C348.497 361.643 349.217 360.095 350.14 360.095Z" fill="#222236"/>
<path d="M325.141 359.673C326.049 359.673 326.722 361.158 326.722 363.065C326.722 364.973 325.94 366.458 325.032 366.458C324.124 366.458 323.451 364.895 323.451 363.065C323.498 361.236 324.233 359.673 325.141 359.673Z" fill="#222236"/>
<path d="M308.439 342.413C308.799 344.242 309.253 346.087 310.004 347.791" stroke="white" stroke-miterlimit="10"/>
<path d="M320.461 321.761C310.568 319.103 306.654 325.044 307.39 334.409" stroke="white" stroke-miterlimit="10"/>
<path d="M330.933 424.413L342.986 446.081L371.93 423.271L380.821 424.522L362.1 457.588C361.379 458.839 359.751 459.245 358.53 458.479L342.517 448.395L330.025 456.024C328.429 456.994 326.362 455.978 326.159 454.133L323.059 425.914L330.917 424.444L330.933 424.413Z" fill="#40FFB7"/>
<mask id="mask3_4012_2223" style="mask-type:luminance" maskUnits="userSpaceOnUse" x="323" y="423" width="58" height="36">
<path d="M330.933 424.413L342.986 446.081L371.93 423.271L380.821 424.522L362.1 457.588C361.379 458.839 359.751 459.245 358.53 458.479L342.517 448.395L330.025 456.024C328.429 456.994 326.362 455.978 326.159 454.133L323.059 425.914L330.917 424.444L330.933 424.413Z" fill="white"/>
</mask>
<g mask="url(#mask3_4012_2223)">
<path opacity="0.3" d="M329.869 424.272L342.986 446.081L372.431 422.865L381.306 424.256L362.1 457.572C361.379 458.823 359.751 459.229 358.53 458.463L342.517 448.379L330.025 456.009C328.429 456.978 326.362 455.962 326.159 454.117L323.059 425.898L329.869 424.272Z" fill="#15151F"/>
</g>
<path d="M330.933 424.413L342.986 446.081L371.93 423.271L380.821 424.522L362.1 457.588C361.379 458.839 359.751 459.245 358.53 458.479L342.517 448.395L330.025 456.024C328.429 456.994 326.362 455.978 326.159 454.133L323.059 425.914L330.917 424.444L330.933 424.413Z" stroke="#222236" stroke-linecap="round" stroke-linejoin="round"/>
<path d="M151.464 566.728H230.171V577.203H151.464C149.758 577.203 148.381 575.827 148.381 574.123V569.808C148.381 568.104 149.758 566.728 151.464 566.728Z" fill="#222236" stroke="#222236" stroke-linecap="round" stroke-linejoin="round"/>
<path d="M297.888 577.218H230.155V566.744L298.029 571.215C299.156 571.293 300.033 572.231 300.033 573.357V575.092C300.033 576.28 299.078 577.234 297.888 577.234V577.218Z" fill="#40FFB7" stroke="#222236" stroke-linecap="round" stroke-linejoin="round"/>
<path d="M362.084 363.706L379.131 357.969L377.111 360.517" stroke="#222236" stroke-linecap="round" stroke-linejoin="round"/>
<path d="M471.19 383.28C471.19 383.28 451.576 323.481 500.9 319.275C550.225 315.085 556.032 360.986 560.556 383.999C564.094 401.994 597.78 434.903 571.701 459.464C544.48 485.104 478.202 476.552 474.399 440.094C470.595 403.635 474.054 396.162 471.174 383.28H471.19Z" fill="#222236" stroke="#222236" stroke-linecap="round" stroke-linejoin="round"/>
<path d="M528.732 392.801C528.732 392.801 526.572 419.332 540.285 442.142C540.285 442.142 521.829 448.145 502.575 442.439C503.373 435.388 502.982 428.275 501.417 421.349L500.759 418.456L514.754 406.371L528.732 392.801Z" fill="white"/>
<mask id="mask4_4012_2223" style="mask-type:luminance" maskUnits="userSpaceOnUse" x="500" y="392" width="41" height="53">
<path d="M528.732 392.801C528.732 392.801 526.572 419.332 540.285 442.142C540.285 442.142 521.829 448.145 502.575 442.439C503.373 435.388 502.982 428.275 501.417 421.349L500.759 418.456L514.754 406.371L528.732 392.801Z" fill="white"/>
</mask>
<g mask="url(#mask4_4012_2223)">
<path d="M494.858 412.813C497.409 427.086 499.742 430.198 511.858 427.649C520.827 425.758 528.482 412.312 528.92 402.541C528.231 396.6 528.278 389.19 528.278 389.19L514.754 406.372L494.858 412.797V412.813Z" fill="#222236"/>
</g>
<path d="M528.732 392.801C528.732 392.801 526.572 419.332 540.285 442.142C540.285 442.142 521.829 448.145 502.575 442.439C503.373 435.388 502.982 428.275 501.417 421.349L500.759 418.456L514.754 406.371L528.732 392.801Z" stroke="#222236" stroke-linecap="round" stroke-linejoin="round"/>
<path d="M391.387 544.606C391.387 544.606 364.072 532.068 362.553 542.449C361.035 552.845 367.703 568.76 392.702 560.912L445.173 567.822C445.173 567.822 454.158 549.953 444.547 540.213C444.547 540.213 398.306 547.389 391.372 544.606H391.387Z" fill="white" stroke="#222236" stroke-linecap="round" stroke-linejoin="round"/>
<path d="M349.31 555.8C349.31 555.8 344.99 557.191 344.348 560.037C343.722 562.898 342.313 566.947 343.973 566.962C345.632 566.962 347.651 561.272 347.651 561.272L351.862 560.177L349.31 555.784V555.8Z" fill="white" stroke="#222236" stroke-linecap="round" stroke-linejoin="round"/>
<path d="M377.922 528.639L349.526 531.61L353.762 572.006L382.159 569.035L377.922 528.639Z" fill="white" stroke="#222236" stroke-linecap="round" stroke-linejoin="round"/>
<path d="M349.515 531.608L345.28 532.051L349.517 572.447L353.752 572.004L349.515 531.608Z" fill="#40FFB7" stroke="#222236" stroke-linecap="round" stroke-linejoin="round"/>
<path d="M370.286 522.797C366.889 523.156 364.432 526.189 364.776 529.582C364.776 529.723 364.839 529.863 364.854 530.004L366.295 529.848L367.813 529.691C367.782 529.551 367.735 529.41 367.719 529.269C367.531 527.503 368.815 525.924 370.584 525.736C372.353 525.548 373.934 526.83 374.121 528.597C374.247 529.769 373.699 530.864 372.807 531.521C372.994 532.177 373.574 533.021 375.202 533.365C376.516 532.083 377.283 530.254 377.08 528.3C376.72 524.907 373.683 522.453 370.286 522.797Z" fill="white" stroke="#222236" stroke-linecap="round" stroke-linejoin="round"/>
<path d="M354.867 539.994L364.635 538.962" stroke="#222236" stroke-linecap="round" stroke-linejoin="round"/>
<path d="M355.337 544.434L374.325 542.448" stroke="#222236" stroke-linecap="round" stroke-linejoin="round"/>
<path d="M355.807 548.89L365.293 547.905" stroke="#222236" stroke-linecap="round" stroke-linejoin="round"/>
<path d="M356.276 553.345L372.133 551.688" stroke="#222236" stroke-linecap="round" stroke-linejoin="round"/>
<path d="M356.746 557.801L366.232 556.801" stroke="#222236" stroke-linecap="round" stroke-linejoin="round"/>
<path d="M357.2 562.241L378.035 560.068" stroke="#222236" stroke-linecap="round" stroke-linejoin="round"/>
<path d="M357.669 566.697L367.437 565.68" stroke="#222236" stroke-linecap="round" stroke-linejoin="round"/>
<path d="M365.027 523.344C361.63 523.703 359.172 526.736 359.517 530.129C359.532 530.285 359.579 530.41 359.611 530.567L361.051 530.41L362.569 530.238C362.538 530.098 362.491 529.957 362.475 529.816C362.287 528.05 363.571 526.471 365.34 526.283C367.109 526.095 368.69 527.377 368.877 529.144C369.003 530.317 368.455 531.411 367.563 532.068C367.75 532.724 368.33 533.568 369.958 533.912C371.272 532.63 372.04 530.801 371.836 528.847C371.476 525.454 368.439 523 365.042 523.344H365.027Z" fill="white" stroke="#222236" stroke-linecap="round" stroke-linejoin="round"/>
<path d="M359.767 523.891C356.37 524.251 353.913 527.284 354.257 530.676C354.257 530.817 354.32 530.958 354.335 531.098L355.775 530.942L357.294 530.786C357.262 530.645 357.216 530.504 357.2 530.364C357.012 528.597 358.296 527.018 360.064 526.83C361.833 526.643 363.414 527.925 363.602 529.691C363.727 530.864 363.18 531.958 362.287 532.615C362.475 533.272 363.054 534.116 364.682 534.46C365.997 533.178 366.764 531.349 366.561 529.394C366.201 526.002 363.164 523.547 359.767 523.891Z" fill="white" stroke="#222236" stroke-linecap="round" stroke-linejoin="round"/>
<path d="M354.523 524.438C351.126 524.798 348.669 527.831 349.013 531.223C349.013 531.364 349.076 531.505 349.091 531.646L350.531 531.489L352.05 531.333C352.019 531.192 351.972 531.052 351.956 530.911C351.768 529.144 353.052 527.565 354.821 527.378C356.589 527.19 358.17 528.472 358.358 530.239C358.483 531.411 357.936 532.505 357.043 533.162C357.231 533.819 357.81 534.663 359.438 535.007C360.753 533.725 361.52 531.896 361.317 529.942C360.957 526.549 357.92 524.094 354.523 524.438Z" fill="white" stroke="#222236" stroke-linecap="round" stroke-linejoin="round"/>
<path d="M346.712 531.474C346.524 529.707 347.808 528.128 349.577 527.94C351.345 527.753 352.926 529.035 353.114 530.801C353.24 531.974 352.692 533.068 351.799 533.725C351.987 534.381 352.566 535.226 354.194 535.57C355.509 534.288 356.276 532.458 356.073 530.504C355.713 527.112 352.676 524.657 349.279 525.001C345.882 525.361 343.425 528.394 343.769 531.786C343.926 533.287 344.646 534.6 345.663 535.57L345.287 532.052L346.806 531.896C346.775 531.755 346.728 531.614 346.712 531.474Z" fill="white" stroke="#222236" stroke-linecap="round" stroke-linejoin="round"/>
<path d="M342 542.902C342.251 543.449 342.548 544.012 342.924 544.606C342.924 544.606 341.812 547.905 344.051 550.969C344.051 550.969 344.176 555.425 345.757 556.128C347.338 556.832 349.858 557.692 349.811 556.457C349.764 555.221 349.029 551.454 346.18 550.625C346.18 550.625 349.451 551.282 349.076 549.453C348.7 547.623 348.105 545.028 346.086 544.278L345.006 543.809C345.006 543.809 347.589 544.278 347.385 542.324C347.182 540.369 346.947 538.087 345.46 537.524C345.115 537.399 344.724 537.289 344.317 537.18C342.125 536.664 340.717 540.104 341.985 542.902H342Z" fill="white" stroke="#222236" stroke-linecap="round" stroke-linejoin="round"/>
<path d="M388.335 544.246C388.335 544.246 385.282 537.493 380.289 533.975C375.28 530.457 373.433 523.61 371.398 525.267C369.363 526.94 371.21 534.178 374.356 536.664C377.503 539.15 373.981 544.7 381.776 551.547" fill="white"/>
<path d="M388.335 544.246C388.335 544.246 385.282 537.493 380.289 533.975C375.28 530.457 373.433 523.61 371.398 525.267C369.363 526.94 371.21 534.178 374.356 536.664C377.503 539.15 373.981 544.7 381.776 551.547" stroke="#222236" stroke-linecap="round" stroke-linejoin="round"/>
<path d="M572.218 563.976C571.529 568.229 570.794 572.638 570.011 577.218H462.658C462.486 575.78 463.504 572.888 464.474 567.854C452.515 571.903 431.648 565.618 431.648 565.618C434.247 558.786 432.447 541.432 432.447 541.432L444.625 538.853C444.625 538.853 449.681 485.979 453.532 470.83C457.618 454.758 479.971 437.217 555.156 442.392C555.156 442.392 589.844 441.735 595.229 464.701C600.254 486.12 573.658 562.992 572.218 563.976Z" fill="#40FFB7"/>
<mask id="mask5_4012_2223" style="mask-type:luminance" maskUnits="userSpaceOnUse" x="431" y="441" width="165" height="137">
<path d="M572.218 563.976C571.529 568.229 570.794 572.638 570.011 577.218H462.658C462.486 575.78 463.504 572.888 464.474 567.854C452.515 571.903 431.648 565.618 431.648 565.618C434.247 558.786 432.447 541.432 432.447 541.432L444.625 538.853C444.625 538.853 449.681 485.979 453.532 470.83C457.618 454.758 479.971 437.217 555.156 442.392C555.156 442.392 589.844 441.735 595.229 464.701C600.254 486.12 573.658 562.992 572.218 563.976Z" fill="white"/>
</mask>
<g mask="url(#mask5_4012_2223)">
<path opacity="0.2" d="M464.474 567.854C456.162 570.668 443.561 568.495 436.642 566.9C438.442 565.524 439.569 562.71 439.992 559.145C445.627 558.27 451.262 549.327 454.972 508.679C455.849 499.143 457.727 493.155 460.138 489.121C458.119 497.298 457.242 506.459 459.856 517.075C461.203 522.531 465.429 535.663 465.805 541.104C466.666 553.502 465.586 562.085 464.474 567.854Z" fill="#15151F"/>
<path opacity="0.2" d="M572.202 563.992C571.529 568.244 570.794 572.653 570.011 577.218H462.658C464.584 571.34 469.311 543.355 462.643 526.346C462.377 525.658 485.701 515.871 501.323 519.873C567.538 536.836 544.73 482.18 563.64 472.237L547.329 536.132L538.422 538.962C557.707 540.15 552.134 569.026 552.134 569.026C561.182 570.496 568.633 566.462 572.202 563.992Z" fill="#15151F"/>
</g>
<path d="M572.218 563.976C571.529 568.229 570.794 572.638 570.011 577.218H462.658C462.486 575.78 463.504 572.888 464.474 567.854C452.515 571.903 431.648 565.618 431.648 565.618C434.247 558.786 432.447 541.432 432.447 541.432L444.625 538.853C444.625 538.853 449.681 485.979 453.532 470.83C457.618 454.758 479.971 437.217 555.156 442.392C555.156 442.392 589.844 441.735 595.229 464.701C600.254 486.12 573.658 562.992 572.218 563.976Z" stroke="#222236" stroke-linecap="round" stroke-linejoin="round"/>
<path d="M434.404 538.446C434.404 538.446 438.473 540.619 439.804 550.172C441.135 559.724 439.084 567.947 433.777 567.822C428.471 567.697 427.547 565.618 428.612 563.648C429.676 561.678 432.024 559.036 430.255 550.86C428.032 540.619 423.462 541.542 423.462 541.542C423.462 541.542 429.567 535.71 434.404 538.431V538.446Z" fill="#40FFB7" stroke="#222236" stroke-linecap="round" stroke-linejoin="round"/>
<path opacity="0.2" d="M439.992 559.146C439.569 562.71 438.442 565.524 436.642 566.9C435.828 567.525 434.873 567.854 433.777 567.823C428.455 567.697 427.532 565.618 428.612 563.648C429.676 561.694 432.024 559.036 430.255 550.86C428.032 540.62 423.462 541.558 423.462 541.558C423.462 541.558 429.567 535.726 434.404 538.446C434.404 538.446 438.473 540.62 439.804 550.172C440.242 553.408 440.305 556.488 439.992 559.146Z" fill="#15151F"/>
<path d="M536.669 423.271C536.669 423.271 509.682 431.448 497.394 427.086L494.842 443.455C494.842 443.455 506.77 453.851 545.043 441.078L536.653 423.287L536.669 423.271Z" fill="#40FFB7" stroke="#222236" stroke-linecap="round" stroke-linejoin="round"/>
<path d="M440.775 533.678C443.984 544.106 446.848 552.486 444.015 553.361C441.182 554.237 438.849 545.685 435.64 535.257C432.431 524.829 429.567 516.449 432.4 515.574C435.233 514.698 437.566 523.25 440.775 533.678Z" fill="#40FFB7" stroke="#222236" stroke-linecap="round" stroke-linejoin="round"/>
<path d="M435.233 533.928L440.368 532.349C439.616 529.879 438.912 527.55 438.223 525.455L433.12 527.018C433.746 529.144 434.466 531.458 435.233 533.928Z" fill="#222236"/>
<path d="M434.764 520.514C434.764 520.514 437.159 515.715 439.366 519.107C441.573 522.5 442.027 532.802 443.577 532.818" stroke="#222236" stroke-linecap="round" stroke-linejoin="round"/>
<path d="M466.603 469.438C464.646 475.426 461.938 481.883 460.138 489.122C458.119 497.298 457.242 506.459 459.856 517.075C461.202 522.531 465.429 535.664 465.805 541.104C466.666 553.502 465.586 562.085 464.474 567.854C463.504 572.888 462.486 575.78 462.658 577.218" stroke="#222236" stroke-linecap="round" stroke-linejoin="round"/>
<path d="M533.037 540.744C533.037 540.744 489.363 546.701 474.649 547.045C472.379 547.092 465.632 546.263 465.632 546.263L455.16 539.275C455.16 539.275 447.083 538.087 443.138 538.993L438.63 544.872C438.63 544.872 433.01 546.685 436.219 550.938C436.219 550.938 434.983 554.205 437.706 556.675C437.706 556.675 437.957 560.381 440.43 561.866C440.43 561.866 440.931 565.321 443.639 566.306C446.363 567.291 463.41 564.57 468.607 563.101C473.804 561.616 524.224 569.526 543.994 569.026C543.994 569.026 560.932 549.281 533.053 540.76L533.037 540.744Z" fill="white" stroke="#222236" stroke-linecap="round" stroke-linejoin="round"/>
<path d="M533.726 375.588C533.726 375.588 522.205 380.075 515.38 367.677C512.421 362.299 506.441 351.074 506.441 351.074C504.735 355.467 506.833 362.174 506.833 362.174C502.935 360.47 495.374 360.064 495.374 360.064C492.698 355.577 491.915 345.43 491.915 345.43C488.205 351.621 489.285 360.501 489.285 360.501C481.364 361.596 476.465 364.301 472.849 367.459C473.835 371.445 474.195 377.667 473.866 390.581C473.444 407.466 481.552 412.078 489.473 418.394C497.378 424.71 519.074 427.977 526.556 394.974C526.556 394.974 542.241 389.143 534.571 376.901C534.305 376.495 534.039 376.057 533.741 375.604L533.726 375.588Z" fill="white" stroke="#222236" stroke-linecap="round" stroke-linejoin="round"/>
<path d="M520.89 355.342C525.821 365.442 534.414 373.212 545.419 376.073" stroke="white" stroke-miterlimit="10"/>
<path d="M516.773 342.835C517.102 344.883 517.634 346.9 518.276 348.886" stroke="white" stroke-miterlimit="10"/>
<path d="M524.6 343.586C524.6 343.586 533.491 360.533 547.391 360.939" stroke="white" stroke-miterlimit="10"/>
<path d="M551.853 386.688C551.853 386.688 574.472 423.272 574.472 444.549" stroke="white" stroke-miterlimit="10"/>
<path d="M545.873 396.444C545.873 396.444 551.477 416.846 560.462 427.086" stroke="white" stroke-miterlimit="10"/>
<path d="M474.79 343.398C474.164 346.15 473.71 349.183 473.459 352.544" stroke="white" stroke-miterlimit="10"/>
<path d="M493.292 324.231C493.292 324.231 482.773 326.201 475.886 338.598" stroke="white" stroke-miterlimit="10"/>
<path d="M479.971 418.957C479.971 418.957 479.627 435.372 488.001 444.58" stroke="white" stroke-miterlimit="10"/>
<path d="M494.858 368.725C506.254 366.489 511.263 372.29 511.263 372.29" stroke="#222236" stroke-linecap="round" stroke-linejoin="round"/>
<path d="M475.839 373.525C478.375 370.945 481.881 369.554 485.497 369.679" stroke="#222236" stroke-linecap="round" stroke-linejoin="round"/>
<path d="M502.293 406.934C505.815 404.918 507.772 399.711 507.772 399.711L507.036 400.102C502.45 402.572 497.441 404.167 492.275 404.824C495.578 408.294 499.961 408.279 502.293 406.934Z" stroke="#222236" stroke-linecap="round" stroke-linejoin="round"/>
<path d="M488.315 396.069C486.828 395.881 482.585 393.88 482.225 391.003C482.116 390.143 482.742 389.362 483.666 388.674C487.344 385.985 489.551 381.732 489.223 377.199C489.207 376.87 489.191 376.683 489.191 376.683" stroke="#222236" stroke-linecap="round" stroke-linejoin="round"/>
<path d="M502.919 373.29C504 373.165 505.111 374.947 505.393 377.277C505.674 379.606 505.033 381.607 503.953 381.732C502.872 381.873 501.761 380.075 501.479 377.761C501.198 375.416 501.839 373.431 502.919 373.29Z" fill="#222236"/>
<path d="M484.104 380.028C484.386 382.311 483.759 384.281 482.695 384.406C481.63 384.531 480.55 382.796 480.269 380.497C479.987 378.215 480.613 376.245 481.677 376.12C482.742 375.995 483.822 377.73 484.104 380.028Z" fill="#222236"/>
<path d="M519.137 375.26C519.137 375.26 517.665 371.133 519.34 368.944" stroke="#222236" stroke-linecap="round" stroke-linejoin="round"/>
<path d="M572.202 563.992C568.633 566.462 561.182 570.496 552.134 569.026C552.134 569.026 557.691 540.15 538.422 538.962L547.313 536.132L563.624 472.237" stroke="#222236" stroke-linecap="round" stroke-linejoin="round"/>
<path d="M552.134 536.132C552.134 536.132 562.466 538.853 565.362 547.733" stroke="#222236" stroke-linecap="round" stroke-linejoin="round"/>
<path d="M509.979 433.293C519.794 433.293 529.531 431.088 538.469 427.071" stroke="#222236" stroke-linecap="round" stroke-linejoin="round"/>
<path d="M496.674 431.776C498.881 432.37 501.135 432.73 503.405 432.965" stroke="#222236" stroke-linecap="round" stroke-linejoin="round"/>
<path d="M540.676 450.099C543.462 449.114 546.389 447.973 549.442 446.644" stroke="#222236" stroke-linecap="round" stroke-linejoin="round"/>
<path d="M492.338 450.333C492.338 450.333 502.841 460.292 530.626 453.179" stroke="#222236" stroke-linecap="round" stroke-linejoin="round"/>
<path d="M501.417 499.815C501.417 499.815 503.06 523.86 520.89 532.802" stroke="#222236" stroke-linecap="round" stroke-linejoin="round"/>
<path d="M532.599 541.12C532.599 541.12 536.121 533.397 546.593 537.211C546.593 537.211 556.502 540.619 559.476 550.797C562.45 560.975 558.74 570.058 551.508 570.418C544.276 570.793 542.961 570.23 544.182 568.01C545.403 565.79 547.908 559.755 544.746 552.204C540.253 541.464 532.614 541.12 532.614 541.12H532.599Z" fill="#40FFB7"/>
<mask id="mask6_4012_2223" style="mask-type:luminance" maskUnits="userSpaceOnUse" x="532" y="536" width="29" height="35">
<path d="M532.599 541.12C532.599 541.12 536.121 533.397 546.593 537.211C546.593 537.211 556.502 540.619 559.476 550.797C562.45 560.975 558.74 570.058 551.508 570.418C544.276 570.793 542.961 570.23 544.182 568.01C545.403 565.79 547.908 559.755 544.746 552.204C540.253 541.464 532.614 541.12 532.614 541.12H532.599Z" fill="white"/>
</mask>
<g mask="url(#mask6_4012_2223)">
<g opacity="0.2">
<path d="M532.599 541.12C532.599 541.12 536.121 533.397 546.593 537.211C546.593 537.211 556.502 540.619 559.476 550.797C562.45 560.975 558.74 570.058 551.508 570.418C544.276 570.793 542.961 570.23 544.182 568.01C545.403 565.79 547.908 559.755 544.746 552.204C540.253 541.464 532.614 541.12 532.614 541.12H532.599Z" fill="#15151F"/>
</g>
</g>
<path d="M532.599 541.12C532.599 541.12 536.121 533.397 546.593 537.211C546.593 537.211 556.502 540.619 559.476 550.797C562.45 560.975 558.74 570.058 551.508 570.418C544.276 570.793 542.961 570.23 544.182 568.01C545.403 565.79 547.908 559.755 544.746 552.204C540.253 541.464 532.614 541.12 532.614 541.12H532.599Z" stroke="#222236" stroke-linecap="round" stroke-linejoin="round"/>
<path d="M52.9875 509.336C52.9875 509.336 47.6027 463.357 0 481.883C0 481.883 40.5116 481.586 47.3522 516.231L53.645 515.558L52.9875 509.336Z" fill="#40FFB7"/>
<path opacity="0.1" d="M52.9875 509.336C52.9875 509.336 47.6027 463.357 0 481.883C0 481.883 40.5116 481.586 47.3522 516.231L53.645 515.558L52.9875 509.336Z" fill="#15151F"/>
<path d="M53.645 508.554C53.645 508.554 49.5281 459.527 40.5585 421.411C40.5585 421.411 67.9524 450.349 61.6909 504.849L53.645 508.554Z" fill="#40FFB7"/>
<path opacity="0.1" d="M53.645 508.554C53.645 508.554 49.5281 459.527 40.5585 421.411C40.5585 421.411 67.9524 450.349 61.6909 504.849L53.645 508.554Z" fill="#15151F"/>
<path d="M50.9838 541.01C50.9838 541.01 43.0944 473.472 16.812 450.287C16.812 450.287 63.8198 461.965 56.8539 533.694L50.9995 541.026L50.9838 541.01Z" fill="#40FFB7"/>
<path d="M59.2489 538.181C59.2489 538.181 70.77 471.158 98.2578 449.411C98.2578 449.411 50.7021 458.557 53.8015 530.551L59.2646 538.181H59.2489Z" fill="#40FFB7"/>
<path d="M83.3712 516.262H27.8008V525.908H29.648V559.943C29.648 569.48 37.3965 577.218 46.9452 577.218H64.2112C73.7599 577.218 81.5084 569.48 81.5084 559.943V525.908H83.3555V516.262H83.3712Z" fill="white" stroke="#222236" stroke-miterlimit="10"/>
<path d="M66.1366 525.455H73.5407H66.1366Z" fill="white"/>
<path d="M66.1366 525.455H73.5407" stroke="#222236" stroke-miterlimit="10"/>
<path d="M37.1774 525.455H58.6228H37.1774Z" fill="white"/>
<path d="M37.1774 525.455H58.6228" stroke="#222236" stroke-miterlimit="10"/>
<path d="M271.465 534.757L257.22 418.91C256.766 415.236 253.416 412.25 249.738 412.25H233.395L252.274 541.432H265.626C269.305 541.432 271.935 538.446 271.481 534.772L271.465 534.757Z" fill="#40FFB7" stroke="#222236" stroke-linecap="round" stroke-linejoin="round"/>
<path d="M262.089 541.417H97.9447C94.2661 541.417 90.9006 538.431 90.4623 534.757L76.2175 418.91C75.7635 415.236 78.3777 412.25 82.0719 412.25H246.216C249.894 412.25 253.26 415.236 253.698 418.91L267.943 534.757C268.397 538.431 265.783 541.417 262.089 541.417Z" fill="#222236"/>
<mask id="mask7_4012_2223" style="mask-type:luminance" maskUnits="userSpaceOnUse" x="76" y="412" width="192" height="130">
<path d="M262.089 541.417H97.9447C94.2661 541.417 90.9006 538.431 90.4623 534.757L76.2175 418.91C75.7635 415.236 78.3777 412.25 82.0719 412.25H246.216C249.894 412.25 253.26 415.236 253.698 418.91L267.943 534.757C268.397 538.431 265.783 541.417 262.089 541.417Z" fill="white"/>
</mask>
<g mask="url(#mask7_4012_2223)">
<path opacity="0.1" d="M262.089 541.417H97.9447C94.2661 541.417 90.9006 538.431 90.4623 534.757L76.2175 418.91C75.7635 415.236 78.3777 412.25 82.0719 412.25H246.216C249.894 412.25 253.26 415.236 253.698 418.91L267.943 534.757C268.397 538.431 265.783 541.417 262.089 541.417Z" fill="white"/>
</g>
<path d="M262.089 541.417H97.9447C94.2661 541.417 90.9006 538.431 90.4623 534.757L76.2175 418.91C75.7635 415.236 78.3777 412.25 82.0719 412.25H246.216C249.894 412.25 253.26 415.236 253.698 418.91L267.943 534.757C268.397 538.431 265.783 541.417 262.089 541.417Z" stroke="#222236" stroke-linecap="round" stroke-linejoin="round"/>
<path d="M185.558 567.744L192.117 493.124C192.273 491.326 190.865 489.794 189.064 489.794H147.629C146.033 489.794 144.702 491.013 144.577 492.592L137.439 573.873C137.282 575.671 138.691 577.203 140.491 577.203H222.579C224.269 577.203 225.647 575.827 225.647 574.138C225.647 572.45 224.269 571.074 222.579 571.074H188.642C186.842 571.074 185.417 569.526 185.589 567.744H185.558Z" fill="#222236" stroke="#222236" stroke-linecap="round" stroke-linejoin="round"/>
<path d="M225.631 574.154C225.631 572.466 224.254 571.09 222.563 571.09H188.626C186.826 571.09 185.401 569.542 185.574 567.76L192.133 493.139C192.289 491.357 190.88 489.809 189.08 489.809C187.499 489.809 186.168 491.029 186.028 492.608L178.89 573.888C178.733 575.686 180.142 577.218 181.942 577.218H222.563C224.254 577.218 225.631 575.843 225.631 574.154Z" fill="#40FFB7" stroke="#222236" stroke-linecap="round" stroke-linejoin="round"/>
<path d="M37.4278 577.219H624.438" stroke="#222236" stroke-linecap="round" stroke-linejoin="round"/>
</g>
<defs>
<filter id="filter0_d_4012_2223" x="71.3702" y="35.7107" width="517.326" height="370.779" filterUnits="userSpaceOnUse" color-interpolation-filters="sRGB">
<feFlood flood-opacity="0" result="BackgroundImageFix"/>
<feColorMatrix in="SourceAlpha" type="matrix" values="0 0 0 0 0 0 0 0 0 0 0 0 0 0 0 0 0 0 127 0" result="hardAlpha"/>
<feOffset dx="30" dy="45"/>
<feGaussianBlur stdDeviation="25"/>
<feComposite in2="hardAlpha" operator="out"/>
<feColorMatrix type="matrix" values="0 0 0 0 0.50875 0 0 0 0 0.825 0 0 0 0 0.705785 0 0 0 0.57 0"/>
<feBlend mode="normal" in2="BackgroundImageFix" result="effect1_dropShadow_4012_2223"/>
<feBlend mode="normal" in="SourceGraphic" in2="effect1_dropShadow_4012_2223" result="shape"/>
</filter>
<clipPath id="clip0_4012_2223">
<rect width="641" height="578" fill="white"/>
</clipPath>
</defs>
</svg>
