<svg width="624" height="285" viewBox="0 0 624 285" fill="none" xmlns="http://www.w3.org/2000/svg">
<path d="M177.653 257.427C177.653 257.427 169.435 271.544 172.675 272.045C175.916 272.561 182.678 260.351 182.678 260.351L201.228 255.442L187.265 254.003L177.669 257.427H177.653Z" fill="white" stroke="#222236" stroke-linecap="round" stroke-linejoin="round"/>
<path opacity="0.3" d="M177.653 257.427C177.653 257.427 169.435 271.544 172.675 272.045C175.916 272.561 182.678 260.351 182.678 260.351L201.228 255.442L187.265 254.003L177.669 257.427H177.653Z" fill="#15151F" stroke="#222236" stroke-linecap="round" stroke-linejoin="round"/>
<path d="M183.899 247.796C183.899 247.796 172.409 245.06 169.247 250.454C166.069 255.848 156.787 271.779 160.262 273.608C163.737 275.437 166.789 269.543 166.789 269.543L183.899 247.796Z" fill="white" stroke="#222236" stroke-linecap="round" stroke-linejoin="round"/>
<path d="M230.891 264.15C230.891 264.15 219.37 268.496 207.348 266.62L194.278 270.95C194.278 270.95 182.788 276.594 177.45 273.749C172.112 270.903 191.069 264.619 191.069 264.619C191.069 264.619 203.826 259.1 200.022 257.787C196.219 256.458 181.817 256.708 179 258.881C176.166 261.054 168.762 275.078 163.409 274.28C158.055 273.483 165.663 265.838 167.588 262.899C169.514 259.96 173.818 248.234 182.553 247.734C191.288 247.249 220.701 248.75 220.701 248.75L255.28 245.061L263.435 264.712L230.907 264.15H230.891Z" fill="white" stroke="#222236" stroke-linecap="round" stroke-linejoin="round"/>
<path d="M248.94 269.012C250.615 270.059 252.978 270.731 255.53 268.918C255.53 268.918 259.271 270.544 261.807 267.761C264.327 264.978 264.562 240.714 257.565 237.978C255.546 237.197 250.521 237.275 249.691 240.089C249.691 240.089 245.34 238.604 244.604 243.247C243.915 247.624 248.267 251.705 246.811 264.29C246.592 266.151 247.437 268.058 248.94 269.012Z" fill="#40FFB7" stroke="#222236" stroke-linecap="round" stroke-linejoin="round"/>
<path opacity="0.3" d="M248.94 269.012C250.615 270.059 252.978 270.731 255.53 268.918C255.53 268.918 259.271 270.544 261.807 267.761C264.327 264.978 264.562 240.714 257.565 237.978C255.546 237.197 250.521 237.275 249.691 240.089C249.691 240.089 245.34 238.604 244.604 243.247C243.915 247.624 248.267 251.705 246.811 264.29C246.592 266.151 247.437 268.058 248.94 269.012Z" fill="#15151F" stroke="#222236" stroke-linecap="round" stroke-linejoin="round"/>
<path d="M256.908 263.352C256.908 263.352 257.111 252.831 252.775 244.169" stroke="#222236" stroke-linecap="round" stroke-linejoin="round"/>
<path d="M421.489 254.535C420.331 263.43 419.016 273.061 417.513 283.52H283.143L283.784 266.229C275.754 268.167 260.147 266.979 260.147 266.979V241.418C269.634 236.055 271.042 237.556 271.042 237.556C271.042 237.556 271.528 175.177 277.21 159.606C279.621 153.008 283.847 148.302 288.324 145.004C289.733 143.94 291.157 143.034 292.566 142.252C292.644 142.205 292.707 142.174 292.77 142.127C294.335 141.298 296.229 140.423 298.389 139.516C298.577 139.438 298.781 139.36 298.984 139.282C320.023 130.699 365.935 120.74 408.716 139C411.706 140.282 436.125 151.929 438.207 168.767C439.397 178.366 432.854 226.112 421.489 254.535Z" fill="#40FFB7"/>
<mask id="mask0_5011_6210" style="mask-type:luminance" maskUnits="userSpaceOnUse" x="260" y="128" width="179" height="156">
<path d="M421.489 254.535C420.331 263.43 419.016 273.061 417.513 283.52H283.143L283.784 266.229C275.754 268.167 260.147 266.979 260.147 266.979V241.418C269.634 236.055 271.042 237.556 271.042 237.556C271.042 237.556 271.528 175.177 277.21 159.606C279.621 153.008 283.847 148.302 288.324 145.004C289.733 143.94 291.157 143.034 292.566 142.252C292.644 142.205 292.707 142.174 292.77 142.127C294.335 141.298 296.229 140.423 298.389 139.516C298.577 139.438 298.781 139.36 298.984 139.282C320.023 130.699 365.935 120.74 408.716 139C411.706 140.282 436.125 151.929 438.207 168.767C439.397 178.366 432.854 226.112 421.489 254.535Z" fill="white"/>
</mask>
<g mask="url(#mask0_5011_6210)">
<path opacity="0.2" d="M400.201 177.632L386.801 239.745C384.719 238.103 378.724 237.994 371.101 238.713C372.776 236.853 374.137 234.836 375.155 232.647C395.411 188.872 399.841 178.507 400.201 177.632Z" fill="#15151F"/>
<path opacity="0.2" d="M424.683 245.874C420.8 259.694 419.094 272.279 417.513 283.52H283.143L284.379 263.602C292.754 262.414 307.453 261.195 322.715 258.49C324.656 266.542 323.075 273.045 323.075 273.045C323.075 273.045 384.875 280.706 405.616 275.719C411.534 274.296 416.887 266.041 421.474 254.675C422.585 251.908 423.649 248.953 424.683 245.874Z" fill="#15151F"/>
<path opacity="0.3" d="M272.639 238.729C272.639 238.729 269.634 236.055 260.132 241.418V266.979C260.132 266.979 275.785 266.416 281.937 263.102C287.228 266.369 286.289 206.539 287.228 174.317C279.558 176.428 278.948 190.998 277.758 204.709C276.13 223.611 272.655 238.729 272.655 238.729H272.639Z" fill="#15151F"/>
</g>
<path d="M421.489 254.535C420.331 263.43 419.016 273.061 417.513 283.52H283.143L283.784 266.229C275.754 268.167 260.147 266.979 260.147 266.979V241.418C269.634 236.055 271.042 237.556 271.042 237.556C271.042 237.556 271.528 175.177 277.21 159.606C279.621 153.008 283.847 148.302 288.324 145.004C289.733 143.94 291.157 143.034 292.566 142.252C292.644 142.205 292.707 142.174 292.77 142.127C294.335 141.298 296.229 140.423 298.389 139.516C298.577 139.438 298.781 139.36 298.984 139.282C320.023 130.699 365.935 120.74 408.716 139C411.706 140.282 436.125 151.929 438.207 168.767C439.397 178.366 432.854 226.112 421.489 254.535Z" stroke="#222236" stroke-linecap="round" stroke-linejoin="round"/>
<path d="M438.207 168.767C438.254 169.142 438.301 169.58 438.317 170.065C439.006 182.072 432.462 227.379 421.473 254.675C416.887 266.041 411.533 274.296 405.616 275.718C384.875 280.706 323.075 273.045 323.075 273.045C323.075 273.045 326.143 260.382 318.457 248.5C318.457 248.5 379.13 233.679 386.801 239.745L400.232 177.569" stroke="#222236" stroke-linecap="round" stroke-linejoin="round"/>
<path d="M391.028 243.122C391.028 243.122 396.789 245.42 401.782 252.33" stroke="#222236" stroke-linecap="round" stroke-linejoin="round"/>
<path d="M236.448 245.357C236.448 245.357 230.798 244.169 228.496 246.733C226.086 249.422 216.334 264.102 219.668 266.932C223.002 269.762 229.78 254.284 229.78 254.284L236.448 245.357Z" fill="white" stroke="#222236" stroke-linecap="round" stroke-linejoin="round"/>
<path d="M247.813 245.092C247.813 245.092 235.243 242.403 232.425 246.233C229.607 250.063 213.766 269.871 223.628 270.512L239.375 252.877L247.828 245.092H247.813Z" fill="white" stroke="#222236" stroke-linecap="round" stroke-linejoin="round"/>
<path d="M276.224 266.166C276.224 266.166 263.31 268.98 258.066 269.996C252.822 271.012 243.085 277.797 237.341 275.108C231.58 272.419 256.156 262.461 256.156 262.461L264.609 259.068L276.24 266.166H276.224Z" fill="white" stroke="#222236" stroke-linecap="round" stroke-linejoin="round"/>
<path d="M286.682 188.997C286.869 184.104 287.042 179.21 287.23 174.317" stroke="#222236" stroke-linecap="round" stroke-linejoin="round"/>
<path d="M283.144 283.52C285.539 253.925 286.431 195.657 286.431 195.657" stroke="#222236" stroke-linecap="round" stroke-linejoin="round"/>
<path d="M323.075 250.188H278.541C278.541 250.188 243.993 239.838 238.233 247.89C232.472 255.941 220.184 268.214 223.644 270.512C227.103 272.81 241.692 256.129 241.692 256.129L254.356 256.254C254.356 256.254 243.602 260.929 241.301 263.227C239 265.525 234.006 272.044 236.699 273.201C239.391 274.358 247.828 265.916 247.828 265.916C247.828 265.916 260.492 262.852 263.576 264.384C266.644 265.916 278.932 272.06 295.447 267.448L329.431 271.669L323.091 250.204L323.075 250.188Z" fill="white" stroke="#222236" stroke-linecap="round" stroke-linejoin="round"/>
<path d="M395.583 199.097C394.362 191.999 394.3 184.682 395.443 177.569" stroke="#222236" stroke-linecap="round" stroke-linejoin="round"/>
<path d="M405.68 161.81C405.68 161.81 427.282 133.388 438.208 168.767" stroke="#222236" stroke-linecap="round" stroke-linejoin="round"/>
<path d="M313.934 246.686C315.296 245.248 317.409 244.013 320.352 245.154C320.352 245.154 323.576 242.653 326.707 244.716C329.853 246.78 336.099 270.231 330.01 274.624C328.257 275.89 323.357 277.063 321.854 274.53C321.854 274.53 318.019 277.047 316.141 272.732C314.388 268.667 317.581 263.633 313.041 251.799C312.368 250.048 312.713 247.984 313.934 246.702V246.686Z" fill="#40FFB7"/>
<mask id="mask1_5011_6210" style="mask-type:luminance" maskUnits="userSpaceOnUse" x="312" y="243" width="21" height="34">
<path d="M313.934 246.686C315.296 245.248 317.409 244.013 320.352 245.154C320.352 245.154 323.576 242.653 326.707 244.716C329.853 246.78 336.099 270.231 330.01 274.624C328.257 275.89 323.357 277.063 321.854 274.53C321.854 274.53 318.019 277.047 316.141 272.732C314.388 268.667 317.581 263.633 313.041 251.799C312.368 250.048 312.713 247.984 313.934 246.702V246.686Z" fill="white"/>
</mask>
<g mask="url(#mask1_5011_6210)">
<path opacity="0.3" d="M313.934 246.686C315.296 245.248 317.409 244.013 320.352 245.154C320.352 245.154 323.576 242.653 326.707 244.716C329.853 246.78 336.099 270.231 330.01 274.624C328.257 275.89 323.357 277.063 321.854 274.53C321.854 274.53 318.019 277.047 316.141 272.732C314.388 268.667 317.581 263.633 313.041 251.799C312.368 250.048 312.713 247.984 313.934 246.702V246.686Z" fill="#15151F"/>
</g>
<path d="M313.934 246.686C315.296 245.248 317.409 244.013 320.352 245.154C320.352 245.154 323.576 242.653 326.707 244.716C329.853 246.78 336.099 270.231 330.01 274.624C328.257 275.89 323.357 277.063 321.854 274.53C321.854 274.53 318.019 277.047 316.141 272.732C314.388 268.667 317.581 263.633 313.041 251.799C312.368 250.048 312.713 247.984 313.934 246.702V246.686Z" stroke="#222236" stroke-linecap="round" stroke-linejoin="round"/>
<path d="M323.827 258.865C324.344 262.508 324.469 266.213 323.952 269.871" stroke="#222236" stroke-linecap="round" stroke-linejoin="round"/>
<path d="M343.394 188.653C343.3 190.326 341.86 191.608 340.169 191.514C338.494 191.421 337.211 189.982 337.305 188.294C337.399 186.605 338.839 185.339 340.529 185.433C342.204 185.527 343.488 186.965 343.394 188.653Z" fill="white" stroke="#222236" stroke-linecap="round" stroke-linejoin="round"/>
<path d="M341.203 235.868C341.109 237.541 339.669 238.823 337.978 238.729C336.287 238.635 335.019 237.197 335.113 235.508C335.207 233.82 336.647 232.553 338.338 232.647C340.029 232.741 341.296 234.179 341.203 235.868Z" fill="white" stroke="#222236" stroke-linecap="round" stroke-linejoin="round"/>
<path d="M369.16 130.839L366.921 99.3372L334.284 106.888L332.546 132.184C330.48 132.434 328.523 132.731 326.613 133.028L334.597 152.133L350.203 154.181L375.155 131.215C373.136 131.058 371.132 130.933 369.16 130.839Z" fill="white"/>
<mask id="mask2_5011_6210" style="mask-type:luminance" maskUnits="userSpaceOnUse" x="326" y="99" width="50" height="56">
<path d="M369.16 130.839L366.921 99.3372L334.284 106.888L332.546 132.184C330.48 132.434 328.523 132.731 326.613 133.028L334.597 152.133L350.203 154.181L375.155 131.215C373.136 131.058 371.132 130.933 369.16 130.839Z" fill="white"/>
</mask>
<g mask="url(#mask2_5011_6210)">
<path d="M333.798 118.035C334.017 140.439 360.237 133.575 367.484 111.188L366.905 99.3372L334.267 106.888L333.782 118.051L333.798 118.035Z" fill="#222236"/>
</g>
<path d="M369.16 130.839L366.921 99.3372L334.284 106.888L332.546 132.184C330.48 132.434 328.523 132.731 326.613 133.028L334.597 152.133L350.203 154.181L375.155 131.215C373.136 131.058 371.132 130.933 369.16 130.839Z" stroke="#222236" stroke-linecap="round" stroke-linejoin="round"/>
<path d="M313.808 72.7439C313.808 72.7439 301.896 52.1385 300.127 41.2729C294.68 7.707 318.943 19.0259 318.943 19.0259C318.943 19.0259 336.099 3.68911 357.466 6.37814C378.833 9.06716 384.469 18.1504 398.839 23.7161C398.839 23.7161 388.038 78.4503 374.216 90.7229C360.393 102.995 313.808 72.7439 313.808 72.7439Z" fill="#222236" stroke="#222236" stroke-linecap="round" stroke-linejoin="round"/>
<path d="M320.086 24.0131C320.086 24.0131 314.716 10.9744 328.335 1" stroke="#222236" stroke-linecap="round" stroke-linejoin="round"/>
<path d="M343.534 16.1806C359.485 9.12973 366.592 20.9177 384.406 24.0132" stroke="white" stroke-miterlimit="10"/>
<path d="M331.215 24.0129C332.624 22.1681 334.439 20.636 336.381 19.3853" stroke="white" stroke-miterlimit="10"/>
<path d="M347.589 29.1255C347.589 29.1255 354.492 22.4967 368.189 31.1109C375.687 35.8167 381.87 36.489 381.87 36.489" stroke="white" stroke-miterlimit="10"/>
<path d="M368.69 43.4459C348.826 43.9619 328.335 35.0037 328.335 35.0037C309.832 46.1506 312.587 64.2703 312.587 64.2703C316.814 107.576 322.527 119.098 342.783 119.098C363.039 119.098 379.507 97.2734 380.822 66.0369C373.151 66.3965 368.69 43.4459 368.69 43.4459Z" fill="white" stroke="#222236" stroke-linecap="round" stroke-linejoin="round"/>
<path d="M379.131 64.2703C380.242 62.832 381.667 61.9722 383.201 61.9722C386.801 61.9722 389.478 66.6936 388.194 72.5094C386.942 78.2001 385.267 83.0466 381.667 83.0466C379.976 83.0466 378.771 81.9992 377.973 80.2951" fill="white"/>
<path d="M379.131 64.2703C380.242 62.832 381.667 61.9722 383.201 61.9722C386.801 61.9722 389.478 66.6936 388.194 72.5094C386.942 78.2001 385.267 83.0466 381.667 83.0466C379.976 83.0466 378.771 81.9992 377.973 80.2951" stroke="#222236" stroke-linecap="round" stroke-linejoin="round"/>
<path d="M339.668 85.5323C339.668 85.5323 342.095 88.8467 337.445 91.3325C332.796 93.8182 329.086 93.7713 327.897 90.926C326.707 88.0806 331.873 64.3796 331.873 64.3796" stroke="#222236" stroke-linecap="round" stroke-linejoin="round"/>
<path d="M331.106 68.1476C328.601 66.8812 318.567 62.5037 309.065 68.4759L309.676 77.6686C309.676 77.6686 313.182 79.5916 321.228 79.5916C324.86 79.5916 327.396 79.2007 329.071 78.7786" stroke="#222236" stroke-linecap="round" stroke-linejoin="round"/>
<path d="M339.418 68.4758L342.33 78.0594C342.33 78.0594 343.519 79.6228 351.581 79.6228C359.642 79.6228 362.288 77.6998 362.288 77.6998L362.053 68.5071C362.053 68.5071 350.36 61.5813 339.418 68.4758Z" stroke="#222236" stroke-linecap="round" stroke-linejoin="round"/>
<path d="M331.747 68.4758H339.417" stroke="#222236" stroke-linecap="round" stroke-linejoin="round"/>
<path d="M333.375 100.025C333.375 100.025 339.636 102.089 346.133 99.6342C351.392 97.6644 354.069 93.6621 354.069 93.6621" stroke="#222236" stroke-linecap="round" stroke-linejoin="round"/>
<path d="M346.133 59.4081C356.198 55.2651 360.644 60.2367 360.644 60.2367" stroke="#222236" stroke-linecap="round" stroke-linejoin="round"/>
<path d="M319.568 59.0015C323.09 57.3131 327.286 57.7977 330.338 60.2366" stroke="#222236" stroke-linecap="round" stroke-linejoin="round"/>
<path d="M350.141 66.3965C351.08 66.3965 351.737 67.8817 351.737 69.789C351.737 71.6964 350.955 73.1816 350.047 73.1816C349.139 73.1816 348.466 71.6182 348.466 69.789C348.497 67.9442 349.217 66.3965 350.141 66.3965Z" fill="#222236"/>
<path d="M325.142 65.9744C326.05 65.9744 326.723 67.4596 326.723 69.3669C326.723 71.2742 325.94 72.7595 325.032 72.7595C324.124 72.7595 323.451 71.1961 323.451 69.3669C323.498 67.5378 324.234 65.9744 325.142 65.9744Z" fill="#222236"/>
<path d="M308.439 48.7146C308.799 50.5438 309.253 52.3886 310.005 54.0927" stroke="white" stroke-miterlimit="10"/>
<path d="M320.461 28.0622C310.568 25.4045 306.655 31.3453 307.39 40.71" stroke="white" stroke-miterlimit="10"/>
<path d="M330.933 130.714L342.987 152.383L371.93 129.573L380.821 130.824L362.1 163.889C361.38 165.14 359.752 165.547 358.531 164.781L342.517 154.697L330.025 162.326C328.429 163.295 326.362 162.279 326.159 160.434L323.06 132.215L330.918 130.746L330.933 130.714Z" fill="#40FFB7"/>
<mask id="mask3_5011_6210" style="mask-type:luminance" maskUnits="userSpaceOnUse" x="323" y="129" width="58" height="37">
<path d="M330.933 130.714L342.987 152.383L371.93 129.573L380.821 130.824L362.1 163.889C361.38 165.14 359.752 165.547 358.531 164.781L342.517 154.697L330.025 162.326C328.429 163.295 326.362 162.279 326.159 160.434L323.06 132.215L330.918 130.746L330.933 130.714Z" fill="white"/>
</mask>
<g mask="url(#mask3_5011_6210)">
<path opacity="0.3" d="M329.869 130.574L342.987 152.383L372.431 129.167L381.307 130.558L362.1 163.874C361.38 165.124 359.752 165.531 358.531 164.765L342.517 154.681L330.025 162.31C328.429 163.28 326.362 162.263 326.159 160.419L323.06 132.199L329.869 130.574Z" fill="#15151F"/>
</g>
<path d="M330.933 130.714L342.987 152.383L371.93 129.573L380.821 130.824L362.1 163.889C361.38 165.14 359.752 165.547 358.531 164.781L342.517 154.697L330.025 162.326C328.429 163.295 326.362 162.279 326.159 160.434L323.06 132.215L330.918 130.746L330.933 130.714Z" stroke="#222236" stroke-linecap="round" stroke-linejoin="round"/>
<path d="M151.465 273.03H230.171V283.504H151.465C149.758 283.504 148.381 282.128 148.381 280.424V276.109C148.381 274.405 149.758 273.03 151.465 273.03Z" fill="#222236" stroke="#222236" stroke-linecap="round" stroke-linejoin="round"/>
<path d="M297.888 283.52H230.155V273.045L298.029 277.516C299.156 277.595 300.033 278.533 300.033 279.658V281.394C300.033 282.582 299.078 283.535 297.888 283.535V283.52Z" fill="#40FFB7" stroke="#222236" stroke-linecap="round" stroke-linejoin="round"/>
<path d="M362.084 70.0079L379.131 64.2703L377.111 66.8186" stroke="#222236" stroke-linecap="round" stroke-linejoin="round"/>
<path d="M471.189 89.5816C471.189 89.5816 451.575 29.7821 500.899 25.5766C550.224 21.3867 556.032 67.2877 560.555 90.3008C564.093 108.295 597.78 141.205 571.701 165.766C544.479 191.405 478.202 182.853 474.398 146.395C470.594 109.937 474.054 102.464 471.173 89.5816H471.189Z" fill="#222236" stroke="#222236" stroke-linecap="round" stroke-linejoin="round"/>
<path d="M528.732 99.1028C528.732 99.1028 526.572 125.633 540.284 148.443C540.284 148.443 521.829 154.447 502.575 148.74C503.373 141.689 502.982 134.576 501.416 127.65L500.759 124.758L514.753 112.673L528.732 99.1028Z" fill="white"/>
<mask id="mask4_5011_6210" style="mask-type:luminance" maskUnits="userSpaceOnUse" x="500" y="99" width="41" height="53">
<path d="M528.732 99.1028C528.732 99.1028 526.572 125.633 540.284 148.443C540.284 148.443 521.829 154.447 502.575 148.74C503.373 141.689 502.982 134.576 501.416 127.65L500.759 124.758L514.753 112.673L528.732 99.1028Z" fill="white"/>
</mask>
<g mask="url(#mask4_5011_6210)">
<path d="M494.857 119.114C497.409 133.388 499.741 136.499 511.857 133.951C520.827 132.059 528.481 118.614 528.92 108.843C528.231 102.902 528.278 95.4915 528.278 95.4915L514.753 112.673L494.857 119.099V119.114Z" fill="#222236"/>
</g>
<path d="M528.732 99.1028C528.732 99.1028 526.572 125.633 540.284 148.443C540.284 148.443 521.829 154.447 502.575 148.74C503.373 141.689 502.982 134.576 501.416 127.65L500.759 124.758L514.753 112.673L528.732 99.1028Z" stroke="#222236" stroke-linecap="round" stroke-linejoin="round"/>
<path d="M391.387 250.908C391.387 250.908 364.072 238.369 362.553 248.75C361.035 259.147 367.703 275.062 392.702 267.214L445.173 274.124C445.173 274.124 454.158 256.254 444.547 246.515C444.547 246.515 398.306 253.69 391.372 250.908H391.387Z" fill="white" stroke="#222236" stroke-linecap="round" stroke-linejoin="round"/>
<path d="M349.31 262.101C349.31 262.101 344.99 263.493 344.348 266.338C343.722 269.199 342.313 273.248 343.972 273.264C345.632 273.264 347.651 267.573 347.651 267.573L351.862 266.479L349.31 262.086V262.101Z" fill="white" stroke="#222236" stroke-linecap="round" stroke-linejoin="round"/>
<path d="M377.922 234.94L349.525 237.911L353.762 278.307L382.159 275.336L377.922 234.94Z" fill="white" stroke="#222236" stroke-linecap="round" stroke-linejoin="round"/>
<path d="M349.515 237.91L345.28 238.353L349.517 278.748L353.752 278.305L349.515 237.91Z" fill="#40FFB7" stroke="#222236" stroke-linecap="round" stroke-linejoin="round"/>
<path d="M370.285 229.098C366.889 229.458 364.431 232.491 364.775 235.883C364.775 236.024 364.838 236.165 364.854 236.306L366.294 236.149L367.812 235.993C367.781 235.852 367.734 235.711 367.718 235.571C367.53 233.804 368.814 232.225 370.583 232.037C372.352 231.85 373.933 233.132 374.121 234.898C374.246 236.071 373.698 237.165 372.806 237.822C372.994 238.479 373.573 239.323 375.201 239.667C376.516 238.385 377.283 236.556 377.079 234.601C376.719 231.209 373.682 228.754 370.285 229.098Z" fill="white" stroke="#222236" stroke-linecap="round" stroke-linejoin="round"/>
<path d="M354.867 246.296L364.635 245.264" stroke="#222236" stroke-linecap="round" stroke-linejoin="round"/>
<path d="M355.337 250.735L374.325 248.75" stroke="#222236" stroke-linecap="round" stroke-linejoin="round"/>
<path d="M355.807 255.191L365.293 254.206" stroke="#222236" stroke-linecap="round" stroke-linejoin="round"/>
<path d="M356.275 259.647L372.132 257.99" stroke="#222236" stroke-linecap="round" stroke-linejoin="round"/>
<path d="M356.745 264.103L366.231 263.102" stroke="#222236" stroke-linecap="round" stroke-linejoin="round"/>
<path d="M357.199 268.543L378.034 266.369" stroke="#222236" stroke-linecap="round" stroke-linejoin="round"/>
<path d="M357.669 272.998L367.437 271.982" stroke="#222236" stroke-linecap="round" stroke-linejoin="round"/>
<path d="M365.026 229.645C361.629 230.005 359.171 233.038 359.516 236.431C359.531 236.587 359.578 236.712 359.61 236.868L361.05 236.712L362.568 236.54C362.537 236.399 362.49 236.259 362.474 236.118C362.286 234.351 363.57 232.772 365.339 232.585C367.108 232.397 368.689 233.679 368.876 235.446C369.002 236.618 368.454 237.712 367.562 238.369C367.749 239.026 368.329 239.87 369.957 240.214C371.271 238.932 372.038 237.103 371.835 235.149C371.475 231.756 368.438 229.301 365.041 229.645H365.026Z" fill="white" stroke="#222236" stroke-linecap="round" stroke-linejoin="round"/>
<path d="M359.767 230.193C356.37 230.552 353.912 233.585 354.257 236.978C354.257 237.119 354.319 237.259 354.335 237.4L355.775 237.244L357.294 237.087C357.262 236.947 357.215 236.806 357.2 236.665C357.012 234.899 358.295 233.32 360.064 233.132C361.833 232.944 363.414 234.226 363.602 235.993C363.727 237.165 363.179 238.26 362.287 238.916C362.475 239.573 363.054 240.417 364.682 240.761C365.997 239.479 366.764 237.65 366.561 235.696C366.201 232.303 363.164 229.849 359.767 230.193Z" fill="white" stroke="#222236" stroke-linecap="round" stroke-linejoin="round"/>
<path d="M354.523 230.74C351.126 231.099 348.668 234.132 349.013 237.525C349.013 237.666 349.075 237.806 349.091 237.947L350.531 237.791L352.049 237.634C352.018 237.494 351.971 237.353 351.956 237.212C351.768 235.446 353.051 233.867 354.82 233.679C356.589 233.491 358.17 234.773 358.358 236.54C358.483 237.713 357.935 238.807 357.043 239.464C357.231 240.12 357.81 240.964 359.438 241.308C360.753 240.026 361.52 238.197 361.316 236.243C360.956 232.85 357.92 230.396 354.523 230.74Z" fill="white" stroke="#222236" stroke-linecap="round" stroke-linejoin="round"/>
<path d="M346.711 237.775C346.524 236.008 347.807 234.429 349.576 234.242C351.345 234.054 352.926 235.336 353.114 237.103C353.239 238.275 352.691 239.37 351.799 240.026C351.987 240.683 352.566 241.527 354.194 241.871C355.509 240.589 356.276 238.76 356.072 236.806C355.712 233.413 352.675 230.959 349.279 231.303C345.882 231.662 343.424 234.695 343.769 238.088C343.925 239.589 344.645 240.902 345.663 241.871L345.287 238.354L346.805 238.197C346.774 238.056 346.727 237.916 346.711 237.775Z" fill="white" stroke="#222236" stroke-linecap="round" stroke-linejoin="round"/>
<path d="M342 249.204C342.25 249.751 342.548 250.314 342.924 250.908C342.924 250.908 341.812 254.206 344.051 257.271C344.051 257.271 344.176 261.726 345.757 262.43C347.338 263.133 349.858 263.993 349.811 262.758C349.764 261.523 349.028 257.755 346.179 256.927C346.179 256.927 349.451 257.583 349.075 255.754C348.7 253.925 348.105 251.33 346.086 250.579L345.005 250.11C345.005 250.11 347.588 250.579 347.385 248.625C347.181 246.671 346.947 244.388 345.459 243.825C345.115 243.7 344.724 243.591 344.317 243.482C342.125 242.966 340.716 246.405 341.984 249.204H342Z" fill="white" stroke="#222236" stroke-linecap="round" stroke-linejoin="round"/>
<path d="M388.335 250.548C388.335 250.548 385.283 243.794 380.289 240.276C375.28 236.759 373.433 229.911 371.398 231.568C369.363 233.241 371.21 240.48 374.356 242.965C377.503 245.451 373.981 251.001 381.776 257.849" fill="white"/>
<path d="M388.335 250.548C388.335 250.548 385.283 243.794 380.289 240.276C375.28 236.759 373.433 229.911 371.398 231.568C369.363 233.241 371.21 240.48 374.356 242.965C377.503 245.451 373.981 251.001 381.776 257.849" stroke="#222236" stroke-linecap="round" stroke-linejoin="round"/>
<path d="M572.218 270.278C571.529 274.53 570.793 278.939 570.011 283.52H462.658C462.486 282.082 463.504 279.189 464.474 274.155C452.515 278.204 431.648 271.92 431.648 271.92C434.247 265.088 432.447 247.734 432.447 247.734L444.625 245.154C444.625 245.154 449.681 192.281 453.532 177.131C457.618 161.06 479.971 143.519 555.155 148.693C555.155 148.693 589.844 148.037 595.229 171.003C600.254 192.421 573.658 269.293 572.218 270.278Z" fill="#40FFB7"/>
<mask id="mask5_5011_6210" style="mask-type:luminance" maskUnits="userSpaceOnUse" x="431" y="147" width="165" height="137">
<path d="M572.218 270.278C571.529 274.53 570.793 278.939 570.011 283.52H462.658C462.486 282.082 463.504 279.189 464.474 274.155C452.515 278.204 431.648 271.92 431.648 271.92C434.247 265.088 432.447 247.734 432.447 247.734L444.625 245.154C444.625 245.154 449.681 192.281 453.532 177.131C457.618 161.06 479.971 143.519 555.155 148.693C555.155 148.693 589.844 148.037 595.229 171.003C600.254 192.421 573.658 269.293 572.218 270.278Z" fill="white"/>
</mask>
<g mask="url(#mask5_5011_6210)">
<path opacity="0.2" d="M464.474 274.155C456.162 276.969 443.561 274.796 436.642 273.202C438.442 271.826 439.569 269.012 439.991 265.447C445.627 264.572 451.262 255.629 454.972 214.981C455.849 205.444 457.727 199.457 460.138 195.423C458.118 203.6 457.242 212.761 459.856 223.376C461.202 228.833 465.429 241.965 465.804 247.406C466.665 259.803 465.585 268.386 464.474 274.155Z" fill="#15151F"/>
<path opacity="0.2" d="M572.202 270.294C571.529 274.546 570.793 278.955 570.01 283.52H462.658C464.583 277.642 469.31 249.657 462.642 232.647C462.376 231.96 485.7 222.173 501.322 226.175C567.537 243.138 544.73 188.482 563.639 178.539L547.328 242.434L538.421 245.264C557.706 246.452 552.134 275.328 552.134 275.328C561.181 276.797 568.633 272.764 572.202 270.294Z" fill="#15151F"/>
</g>
<path d="M572.218 270.278C571.529 274.53 570.793 278.939 570.011 283.52H462.658C462.486 282.082 463.504 279.189 464.474 274.155C452.515 278.204 431.648 271.92 431.648 271.92C434.247 265.088 432.447 247.734 432.447 247.734L444.625 245.154C444.625 245.154 449.681 192.281 453.532 177.131C457.618 161.06 479.971 143.519 555.155 148.693C555.155 148.693 589.844 148.037 595.229 171.003C600.254 192.421 573.658 269.293 572.218 270.278Z" stroke="#222236" stroke-linecap="round" stroke-linejoin="round"/>
<path d="M434.403 244.748C434.403 244.748 438.473 246.921 439.803 256.473C441.134 266.026 439.083 274.249 433.777 274.124C428.47 273.999 427.547 271.92 428.611 269.95C429.675 267.98 432.023 265.338 430.255 257.161C428.032 246.921 423.461 247.844 423.461 247.844C423.461 247.844 429.566 242.012 434.403 244.732V244.748Z" fill="#40FFB7" stroke="#222236" stroke-linecap="round" stroke-linejoin="round"/>
<path opacity="0.2" d="M439.991 265.447C439.569 269.012 438.441 271.826 436.641 273.202C435.827 273.827 434.872 274.156 433.777 274.124C428.454 273.999 427.531 271.92 428.611 269.95C429.675 267.996 432.023 265.338 430.255 257.162C428.032 246.921 423.461 247.859 423.461 247.859C423.461 247.859 429.566 242.028 434.403 244.748C434.403 244.748 438.473 246.921 439.803 256.474C440.242 259.71 440.304 262.79 439.991 265.447Z" fill="#15151F"/>
<path d="M536.668 129.573C536.668 129.573 509.681 137.75 497.393 133.388L494.842 149.756C494.842 149.756 506.77 160.153 545.043 147.38L536.653 129.589L536.668 129.573Z" fill="#40FFB7" stroke="#222236" stroke-linecap="round" stroke-linejoin="round"/>
<path d="M440.774 239.979C443.983 250.407 446.848 258.787 444.014 259.663C441.181 260.538 438.849 251.986 435.64 241.559C432.431 231.131 429.566 222.751 432.399 221.875C435.233 221 437.565 229.552 440.774 239.979Z" fill="#40FFB7" stroke="#222236" stroke-linecap="round" stroke-linejoin="round"/>
<path d="M435.232 240.23L440.367 238.651C439.615 236.18 438.911 233.851 438.222 231.756L433.119 233.319C433.745 235.446 434.465 237.759 435.232 240.23Z" fill="#222236"/>
<path d="M434.763 226.816C434.763 226.816 437.158 222.016 439.365 225.409C441.572 228.801 442.026 239.104 443.576 239.12" stroke="#222236" stroke-linecap="round" stroke-linejoin="round"/>
<path d="M466.602 175.74C464.646 181.728 461.938 188.184 460.137 195.423C458.118 203.599 457.242 212.761 459.856 223.376C461.202 228.832 465.428 241.965 465.804 247.405C466.665 259.803 465.585 268.386 464.474 274.155C463.503 279.189 462.485 282.081 462.658 283.52" stroke="#222236" stroke-linecap="round" stroke-linejoin="round"/>
<path d="M533.037 247.046C533.037 247.046 489.363 253.003 474.649 253.347C472.379 253.394 465.633 252.565 465.633 252.565L455.16 245.577C455.16 245.577 447.083 244.388 443.138 245.295L438.63 251.173C438.63 251.173 433.01 252.987 436.219 257.239C436.219 257.239 434.983 260.507 437.706 262.977C437.706 262.977 437.957 266.682 440.43 268.168C440.43 268.168 440.931 271.623 443.639 272.608C446.363 273.592 463.41 270.872 468.607 269.403C473.804 267.917 524.224 275.828 543.995 275.328C543.995 275.328 560.932 255.582 533.053 247.062L533.037 247.046Z" fill="white" stroke="#222236" stroke-linecap="round" stroke-linejoin="round"/>
<path d="M533.726 81.8897C533.726 81.8897 522.204 86.3766 515.379 73.9789C512.421 68.6009 506.441 57.3758 506.441 57.3758C504.735 61.7689 506.833 68.4758 506.833 68.4758C502.935 66.7717 495.374 66.3652 495.374 66.3652C492.697 61.8783 491.915 51.7319 491.915 51.7319C488.205 57.9229 489.285 66.803 489.285 66.803C481.364 67.8974 476.465 70.602 472.849 73.7601C473.835 77.7467 474.195 83.969 473.866 96.8826C473.443 113.767 481.552 118.379 489.473 124.695C497.378 131.011 519.074 134.279 526.556 101.276C526.556 101.276 542.241 95.4443 534.571 83.2029C534.305 82.7965 534.039 82.3587 533.741 81.9053L533.726 81.8897Z" fill="white" stroke="#222236" stroke-linecap="round" stroke-linejoin="round"/>
<path d="M520.89 61.6438C525.821 71.7433 534.414 79.5133 545.419 82.3743" stroke="white" stroke-miterlimit="10"/>
<path d="M516.772 49.1367C517.101 51.1848 517.633 53.2015 518.275 55.187" stroke="white" stroke-miterlimit="10"/>
<path d="M524.6 49.8872C524.6 49.8872 533.491 66.8343 547.391 67.2408" stroke="white" stroke-miterlimit="10"/>
<path d="M551.853 92.9897C551.853 92.9897 574.472 129.573 574.472 150.851" stroke="white" stroke-miterlimit="10"/>
<path d="M545.873 102.745C545.873 102.745 551.477 123.148 560.462 133.388" stroke="white" stroke-miterlimit="10"/>
<path d="M474.79 49.6997C474.163 52.4513 473.709 55.4843 473.459 58.8455" stroke="white" stroke-miterlimit="10"/>
<path d="M493.293 30.5325C493.293 30.5325 482.773 32.5023 475.886 44.9" stroke="white" stroke-miterlimit="10"/>
<path d="M479.971 125.258C479.971 125.258 479.626 141.674 488.001 150.882" stroke="white" stroke-miterlimit="10"/>
<path d="M494.858 75.0263C506.254 72.7907 511.263 78.5909 511.263 78.5909" stroke="#222236" stroke-linecap="round" stroke-linejoin="round"/>
<path d="M475.839 79.8258C478.375 77.2463 481.881 75.8549 485.497 75.9799" stroke="#222236" stroke-linecap="round" stroke-linejoin="round"/>
<path d="M502.294 113.236C505.816 111.219 507.772 106.013 507.772 106.013L507.037 106.404C502.45 108.874 497.441 110.468 492.275 111.125C495.578 114.596 499.961 114.58 502.294 113.236Z" stroke="#222236" stroke-linecap="round" stroke-linejoin="round"/>
<path d="M488.315 102.37C486.828 102.182 482.585 100.181 482.225 97.3045C482.116 96.4447 482.742 95.663 483.665 94.9751C487.344 92.286 489.551 88.0336 489.222 83.4998C489.207 83.1715 489.191 82.9839 489.191 82.9839" stroke="#222236" stroke-linecap="round" stroke-linejoin="round"/>
<path d="M502.92 79.5914C504 79.4663 505.111 81.2486 505.393 83.578C505.675 85.9075 505.033 87.9086 503.953 88.0337C502.873 88.1744 501.761 86.3765 501.479 84.0627C501.198 81.7176 501.839 79.7321 502.92 79.5914Z" fill="#222236"/>
<path d="M484.104 86.3296C484.386 88.6122 483.759 90.582 482.695 90.7071C481.63 90.8322 480.55 89.0968 480.269 86.7986C479.987 84.5161 480.613 82.5462 481.677 82.4212C482.742 82.2961 483.822 84.0314 484.104 86.3296Z" fill="#222236"/>
<path d="M519.137 81.5612C519.137 81.5612 517.665 77.4339 519.34 75.2451" stroke="#222236" stroke-linecap="round" stroke-linejoin="round"/>
<path d="M572.201 270.294C568.632 272.764 561.181 276.797 552.133 275.328C552.133 275.328 557.691 246.452 538.421 245.264L547.312 242.434L563.623 178.538" stroke="#222236" stroke-linecap="round" stroke-linejoin="round"/>
<path d="M552.134 242.434C552.134 242.434 562.465 245.154 565.361 254.034" stroke="#222236" stroke-linecap="round" stroke-linejoin="round"/>
<path d="M509.979 139.594C519.793 139.594 529.53 137.39 538.468 133.372" stroke="#222236" stroke-linecap="round" stroke-linejoin="round"/>
<path d="M496.673 138.078C498.88 138.672 501.134 139.032 503.404 139.266" stroke="#222236" stroke-linecap="round" stroke-linejoin="round"/>
<path d="M540.676 156.401C543.462 155.416 546.389 154.274 549.442 152.946" stroke="#222236" stroke-linecap="round" stroke-linejoin="round"/>
<path d="M492.337 156.635C492.337 156.635 502.841 166.594 530.626 159.48" stroke="#222236" stroke-linecap="round" stroke-linejoin="round"/>
<path d="M501.416 206.116C501.416 206.116 503.06 230.161 520.889 239.104" stroke="#222236" stroke-linecap="round" stroke-linejoin="round"/>
<path d="M532.599 247.421C532.599 247.421 536.121 239.698 546.593 243.513C546.593 243.513 556.502 246.921 559.476 257.099C562.45 267.276 558.74 276.36 551.508 276.719C544.276 277.094 542.961 276.532 544.182 274.312C545.403 272.092 547.908 266.057 544.746 258.506C540.253 247.765 532.614 247.421 532.614 247.421H532.599Z" fill="#40FFB7"/>
<mask id="mask6_5011_6210" style="mask-type:luminance" maskUnits="userSpaceOnUse" x="532" y="242" width="29" height="35">
<path d="M532.599 247.421C532.599 247.421 536.121 239.698 546.593 243.513C546.593 243.513 556.502 246.921 559.476 257.099C562.45 267.276 558.74 276.36 551.508 276.719C544.276 277.094 542.961 276.532 544.182 274.312C545.403 272.092 547.908 266.057 544.746 258.506C540.253 247.765 532.614 247.421 532.614 247.421H532.599Z" fill="white"/>
</mask>
<g mask="url(#mask6_5011_6210)">
<g opacity="0.2">
<path d="M532.599 247.421C532.599 247.421 536.121 239.698 546.593 243.513C546.593 243.513 556.502 246.921 559.476 257.099C562.45 267.276 558.74 276.36 551.508 276.719C544.276 277.094 542.961 276.532 544.182 274.312C545.403 272.092 547.908 266.057 544.746 258.506C540.253 247.765 532.614 247.421 532.614 247.421H532.599Z" fill="#15151F"/>
</g>
</g>
<path d="M532.599 247.421C532.599 247.421 536.121 239.698 546.593 243.513C546.593 243.513 556.502 246.921 559.476 257.099C562.45 267.276 558.74 276.36 551.508 276.719C544.276 277.094 542.961 276.532 544.182 274.312C545.403 272.092 547.908 266.057 544.746 258.506C540.253 247.765 532.614 247.421 532.614 247.421H532.599Z" stroke="#222236" stroke-linecap="round" stroke-linejoin="round"/>
<path d="M52.9875 215.638C52.9875 215.638 47.6027 169.658 0 188.184C0 188.184 40.5116 187.887 47.3522 222.532L53.645 221.86L52.9875 215.638Z" fill="#40FFB7"/>
<path opacity="0.1" d="M52.9875 215.638C52.9875 215.638 47.6027 169.658 0 188.184C0 188.184 40.5116 187.887 47.3522 222.532L53.645 221.86L52.9875 215.638Z" fill="#15151F"/>
<path d="M53.644 214.856C53.644 214.856 49.5271 165.828 40.5576 127.713C40.5576 127.713 67.9515 156.651 61.69 211.151L53.644 214.856Z" fill="#40FFB7"/>
<path opacity="0.1" d="M53.644 214.856C53.644 214.856 49.5271 165.828 40.5576 127.713C40.5576 127.713 67.9515 156.651 61.69 211.151L53.644 214.856Z" fill="#15151F"/>
<path d="M50.9834 247.312C50.9834 247.312 43.094 179.773 16.8115 156.588C16.8115 156.588 63.8193 168.267 56.8535 239.995L50.999 247.327L50.9834 247.312Z" fill="#40FFB7"/>
<path d="M59.2489 244.482C59.2489 244.482 70.77 177.46 98.2577 155.713C98.2577 155.713 50.702 164.859 53.8014 236.853L59.2645 244.482H59.2489Z" fill="#40FFB7"/>
<path d="M83.3711 222.563H27.8008V232.21H29.6479V266.245C29.6479 275.781 37.3964 283.52 46.9452 283.52H64.2111C73.7598 283.52 81.5083 275.781 81.5083 266.245V232.21H83.3555V222.563H83.3711Z" fill="white" stroke="#222236" stroke-miterlimit="10"/>
<path d="M66.1367 231.756H73.5409H66.1367Z" fill="white"/>
<path d="M66.1367 231.756H73.5409" stroke="#222236" stroke-miterlimit="10"/>
<path d="M37.1777 231.756H58.6232H37.1777Z" fill="white"/>
<path d="M37.1777 231.756H58.6232" stroke="#222236" stroke-miterlimit="10"/>
<path d="M271.465 241.058L257.22 125.211C256.766 121.537 253.416 118.551 249.738 118.551H233.396L252.274 247.734H265.626C269.305 247.734 271.935 244.748 271.481 241.074L271.465 241.058Z" fill="#40FFB7" stroke="#222236" stroke-linecap="round" stroke-linejoin="round"/>
<path d="M262.088 247.718H97.9444C94.2658 247.718 90.9003 244.732 90.462 241.058L76.2172 125.211C75.7633 121.537 78.3774 118.551 82.0717 118.551H246.215C249.894 118.551 253.26 121.537 253.698 125.211L267.943 241.058C268.397 244.732 265.783 247.718 262.088 247.718Z" fill="#222236"/>
<mask id="mask7_5011_6210" style="mask-type:luminance" maskUnits="userSpaceOnUse" x="76" y="118" width="192" height="130">
<path d="M262.088 247.718H97.9444C94.2658 247.718 90.9003 244.732 90.462 241.058L76.2172 125.211C75.7633 121.537 78.3774 118.551 82.0717 118.551H246.215C249.894 118.551 253.26 121.537 253.698 125.211L267.943 241.058C268.397 244.732 265.783 247.718 262.088 247.718Z" fill="white"/>
</mask>
<g mask="url(#mask7_5011_6210)">
<path opacity="0.1" d="M262.088 247.718H97.9444C94.2658 247.718 90.9003 244.732 90.462 241.058L76.2172 125.211C75.7633 121.537 78.3774 118.551 82.0717 118.551H246.215C249.894 118.551 253.26 121.537 253.698 125.211L267.943 241.058C268.397 244.732 265.783 247.718 262.088 247.718Z" fill="white"/>
</g>
<path d="M262.088 247.718H97.9444C94.2658 247.718 90.9003 244.732 90.462 241.058L76.2172 125.211C75.7633 121.537 78.3774 118.551 82.0717 118.551H246.215C249.894 118.551 253.26 121.537 253.698 125.211L267.943 241.058C268.397 244.732 265.783 247.718 262.088 247.718Z" stroke="#222236" stroke-linecap="round" stroke-linejoin="round"/>
<path d="M185.558 274.046L192.117 199.425C192.273 197.627 190.864 196.095 189.064 196.095H147.629C146.032 196.095 144.702 197.315 144.577 198.894L137.439 280.174C137.282 281.972 138.691 283.504 140.491 283.504H222.579C224.269 283.504 225.647 282.128 225.647 280.44C225.647 278.751 224.269 277.376 222.579 277.376H188.642C186.841 277.376 185.417 275.828 185.589 274.046H185.558Z" fill="#222236" stroke="#222236" stroke-linecap="round" stroke-linejoin="round"/>
<path d="M225.631 280.456C225.631 278.767 224.253 277.391 222.562 277.391H188.625C186.825 277.391 185.401 275.844 185.573 274.061L192.132 199.441C192.288 197.659 190.88 196.111 189.079 196.111C187.498 196.111 186.168 197.33 186.027 198.909L178.889 280.19C178.732 281.988 180.141 283.52 181.941 283.52H222.562C224.253 283.52 225.631 282.144 225.631 280.456Z" fill="#40FFB7" stroke="#222236" stroke-linecap="round" stroke-linejoin="round"/>
<path d="M37.4277 283.52H624.438" stroke="#222236" stroke-linecap="round" stroke-linejoin="round"/>
</svg>
