<svg width="488" height="525" viewBox="0 0 488 525" fill="none" xmlns="http://www.w3.org/2000/svg">
<g clip-path="url(#clip0_4846_616)">
<g opacity="0.1">
<mask id="mask0_4846_616" style="mask-type:luminance" maskUnits="userSpaceOnUse" x="0" y="-932" width="2792" height="2483">
<path d="M2791.25 -932H0V1550.95H2791.25V-932Z" fill="white"/>
</mask>
<g mask="url(#mask0_4846_616)">
<path d="M126.319 857.707C216.853 988.096 310.314 1123.1 438.809 1213.96C881.209 1526.77 988.978 1421.2 1467.41 1533.1C1661.59 1578.51 1827.52 1519.84 1972.89 1426.51C2182.11 1292.19 2348.76 1086.04 2495.79 1015.02C2918.32 810.944 2794.11 304.677 2675.31 101.609C2547.46 -116.942 2490.26 -239.507 2165.82 -408.597C1882.88 -556.056 1968.28 -671.647 1588.34 -828.29C1132.07 -1016.38 645.566 -936.276 466.88 -644.915C405.059 -544.11 361.168 -463.618 208.649 -273.921C21.5206 -41.1611 -5.38611 214.839 3.70974 359.274C19.8342 615.144 103.634 825.023 126.33 857.707H126.319Z" stroke="#40FFB7" stroke-width="4" stroke-miterlimit="10"/>
</g>
</g>
<g opacity="0.14">
<mask id="mask1_4846_616" style="mask-type:luminance" maskUnits="userSpaceOnUse" x="56" y="-886" width="2709" height="2402">
<path d="M2764.85 -885.803H56.6748V1515.63H2764.85V-885.803Z" fill="white"/>
</mask>
<g mask="url(#mask1_4846_616)">
<path d="M503.96 -603.766C443.543 -505.583 400.74 -426.484 254.967 -243.272C75.9765 -17.7797 51.0064 230.05 60.6136 371.405C77.3256 617.472 157.622 819.3 180.426 851.93C268.056 977.879 358.699 1107.65 482.766 1194.95C909.466 1495.34 1018.17 1393.08 1476.02 1498.87C1662.69 1541.51 1822.51 1485.6 1962.77 1396.9C2164.25 1269.2 2324.96 1072.86 2467.48 1006.08C2882.29 811.717 2772.64 324.131 2659.22 123.108C2538.43 -90.9818 2480.23 -213.493 2164.65 -378.959C1889.26 -523.372 1965.35 -635.873 1598.88 -786.358C1148.66 -969.918 676.923 -885.204 503.96 -603.766Z" stroke="#40FFB7" stroke-width="4.01" stroke-miterlimit="10"/>
</g>
</g>
<g opacity="0.19">
<mask id="mask2_4846_616" style="mask-type:luminance" maskUnits="userSpaceOnUse" x="113" y="-841" width="2626" height="2322">
<path d="M2738.78 -840.149H113.328V1480.52H2738.78V-840.149Z" fill="white"/>
</mask>
<g mask="url(#mask2_4846_616)">
<path d="M541.04 -562.628C482.015 -467.056 440.3 -389.349 301.294 -212.633C130.453 5.59124 107.42 245.25 117.528 383.537C134.805 619.801 211.696 813.534 234.544 846.153C319.54 967.478 407.093 1092.2 526.732 1175.95C937.732 1463.91 1047.11 1366.1 1484.64 1464.65C1663.69 1504.98 1817.51 1451.36 1952.67 1367.29C2146.41 1246.22 2301.2 1059.73 2439.19 997.159C2846.34 812.533 2751.16 343.65 2643.14 144.64C2529.39 -64.956 2470.22 -187.456 2163.5 -349.278C1895.66 -490.633 1962.8 -600.926 1609.44 -744.382C1165.69 -924.547 708.279 -834.121 541.04 -562.628Z" stroke="#40FFB7" stroke-width="4.01" stroke-miterlimit="10"/>
</g>
</g>
<g opacity="0.23">
<mask id="mask3_4846_616" style="mask-type:luminance" maskUnits="userSpaceOnUse" x="169" y="-795" width="2545" height="2241">
<path d="M2713.07 -794.29H169.949V1445.31H2713.07V-794.29Z" fill="white"/>
</mask>
<g mask="url(#mask3_4846_616)">
<path d="M578.12 -521.479C520.498 -428.519 479.872 -352.216 347.612 -181.984C184.909 28.9723 163.802 260.46 174.431 395.679C192.232 622.129 265.716 807.799 288.652 840.375C370.863 957.184 455.478 1076.75 570.689 1156.96C965.988 1432.48 1076.17 1338.54 1493.25 1430.42C1664.76 1468.21 1812.51 1417.11 1942.57 1337.68C2128.57 1223.23 2277.46 1046.61 2410.9 988.215C2810.47 813.359 2729.66 363.18 2627.07 166.139C2520.31 -38.9203 2460.22 -161.442 2162.35 -319.641C1902.08 -457.939 1960.05 -565.533 1620.03 -702.45C1182.48 -878.633 739.637 -783.05 578.12 -521.49V-521.479Z" stroke="#40FFB7" stroke-width="4.02" stroke-miterlimit="10"/>
</g>
</g>
<g opacity="0.27">
<mask id="mask4_4846_616" style="mask-type:luminance" maskUnits="userSpaceOnUse" x="226" y="-749" width="2462" height="2160">
<path d="M2687.74 -748.462H226.504V1410.14H2687.74V-748.462Z" fill="white"/>
</mask>
<g mask="url(#mask4_4846_616)">
<path d="M615.199 -480.33C558.97 -389.981 519.04 -315.375 393.929 -151.334C238.875 51.9734 220.182 275.66 231.346 407.811C249.646 624.457 319.758 802.055 342.77 834.598C422.174 946.903 503.873 1061.3 614.666 1137.96C994.266 1401.05 1105.28 1310.96 1501.88 1396.2C1665.84 1431.44 1807.69 1383.16 1932.48 1308.07C2110.98 1200.66 2253.76 1033.53 2382.61 979.283C2774.66 814.219 2708.15 382.775 2611 187.66C2511.2 -12.7966 2450.22 -135.416 2161.21 -289.981C1908.49 -425.233 1957.28 -530.085 1630.61 -660.495C1199.28 -832.675 771.004 -731.967 615.21 -480.33H615.199Z" stroke="#40FFB7" stroke-width="4.03" stroke-miterlimit="10"/>
</g>
</g>
<g opacity="0.31">
<mask id="mask5_4846_616" style="mask-type:luminance" maskUnits="userSpaceOnUse" x="283" y="-703" width="2380" height="2078">
<path d="M2662.83 -702.689H283.038V1374.94H2662.83V-702.689Z" fill="white"/>
</mask>
<g mask="url(#mask5_4846_616)">
<path d="M652.269 -439.192C597.443 -351.454 558.503 -278.317 440.246 -120.706C293.222 75.2465 276.553 290.838 288.249 419.932C306.996 626.764 373.779 796.3 396.877 828.81C473.474 936.611 552.247 1045.84 658.623 1118.95C1022.52 1369.61 1134.36 1283.35 1510.49 1361.97C1666.89 1394.67 1802.73 1348.98 1922.37 1278.46C2093.19 1177.77 2230.06 1020.48 2354.31 970.339C2738.94 815.122 2686.6 402.393 2594.92 209.16C2502.02 13.3381 2440.21 -109.402 2160.05 -260.332C1914.87 -392.526 1954.49 -494.615 1641.16 -618.552C1216.04 -786.705 802.339 -680.895 652.269 -439.192Z" stroke="#40FFB7" stroke-width="4.03" stroke-miterlimit="10"/>
</g>
</g>
<g opacity="0.36">
<mask id="mask6_4846_616" style="mask-type:luminance" maskUnits="userSpaceOnUse" x="339" y="-657" width="2300" height="1997">
<path d="M2638.41 -656.97H339.527V1339.74H2638.41V-656.97Z" fill="white"/>
</mask>
<g mask="url(#mask6_4846_616)">
<path d="M689.347 -398.043C635.926 -312.927 597.975 -241.237 486.562 -90.0569C347.567 98.5515 332.901 306.037 345.152 432.073C364.301 629.092 427.798 790.565 450.973 823.032C524.73 926.35 600.619 1030.39 702.567 1099.94C1050.78 1338.17 1163.44 1255.74 1519.09 1327.74C1667.96 1357.88 1797.76 1314.8 1912.26 1248.84C2075.39 1154.88 2206.41 1007.46 2326 961.406C2703.3 816.09 2665 422.074 2578.83 230.67C2492.77 39.5481 2430.18 -83.3873 2158.88 -230.684C1921.27 -359.821 1951.67 -459.103 1651.71 -576.609C1232.78 -740.715 833.684 -629.824 689.336 -398.054L689.347 -398.043Z" stroke="#40FFB7" stroke-width="4.04" stroke-miterlimit="10"/>
</g>
</g>
<g opacity="0.4">
<mask id="mask7_4846_616" style="mask-type:luminance" maskUnits="userSpaceOnUse" x="395" y="-612" width="2220" height="1917">
<path d="M2614.45 -611.23H395.952V1304.55H2614.45V-611.23Z" fill="white"/>
</mask>
<g mask="url(#mask7_4846_616)">
<path d="M726.427 -356.894C674.572 -274.281 637.46 -204.147 532.89 -59.4074C401.925 121.857 389.26 321.226 402.077 444.216C421.585 631.421 481.84 784.831 505.102 817.265C576.019 916.101 649.025 1014.95 746.555 1080.96C1079.07 1306.76 1192.59 1228.12 1527.73 1293.52C1669.06 1321.11 1792.81 1280.63 1902.17 1219.23C2057.6 1131.99 2182.82 994.504 2297.73 952.474C2667.77 817.124 2643.39 441.8 2562.77 252.191C2483.52 65.8129 2420.19 -57.351 2157.75 -201.024C1927.69 -327.115 1948.86 -423.535 1662.3 -534.655C1249.54 -694.692 865.509 -578.448 726.438 -356.894H726.427Z" stroke="#40FFB7" stroke-width="4.05" stroke-miterlimit="10"/>
</g>
</g>
<g opacity="0.44">
<mask id="mask8_4846_616" style="mask-type:luminance" maskUnits="userSpaceOnUse" x="452" y="-566" width="2140" height="1836">
<path d="M2591.02 -565.598H452.334V1269.35H2591.02V-565.598Z" fill="white"/>
</mask>
<g mask="url(#mask8_4846_616)">
<path d="M763.508 -315.756C713.067 -235.743 676.945 -167.067 579.208 -28.7687C456.283 145.162 445.577 336.404 458.982 456.336C478.795 633.727 535.85 779.087 559.21 811.466C627.266 905.841 697.411 999.476 790.512 1061.94C1107.32 1275.3 1221.71 1200.44 1536.34 1259.28C1670.12 1284.3 1787.82 1246.44 1892.07 1189.61C2039.79 1109.08 2159.23 981.568 2269.43 943.519C2632.33 818.212 2621.72 461.559 2546.68 273.679C2474.16 92.0996 2410.17 -31.3581 2156.58 -171.397C1934.07 -294.431 1946 -387.968 1672.85 -492.723C1266.25 -648.669 896.899 -527.365 763.497 -315.767L763.508 -315.756Z" stroke="#40FFB7" stroke-width="4.05" stroke-miterlimit="10"/>
</g>
</g>
</g>
<defs>
<clipPath id="clip0_4846_616">
<rect width="1834" height="525" fill="white"/>
</clipPath>
</defs>
</svg>
