<svg width="53" height="53" viewBox="0 0 53 53" fill="none" xmlns="http://www.w3.org/2000/svg">
<path d="M32.0523 53H20.9559C9.42932 53 0 43.5714 0 32.0498V20.9543C0 9.42859 9.42932 0 20.9518 0H32.0482C43.5707 0 53 9.42859 53 20.9502V32.0457C53 43.5673 43.5707 52.9959 32.0482 52.9959" fill="#40FFB7"/>
<path d="M31.1021 45.1608C28.7468 45.1608 26.2154 44.6693 23.7372 43.6453C20.5463 42.3306 19.51 41.1796 18.5064 40.0656C17.7937 39.271 17.1178 38.5215 15.4958 37.6777C10.9368 35.3021 9.85947 33.4426 8.2251 30.6329L7.91789 30.1086C6.59074 27.8436 5.60767 23.9485 6.58255 20.7497C7.24613 18.5707 8.68387 16.9323 10.8548 15.8838C11.8092 15.421 12.9357 14.4134 14.1276 13.3444C15.3114 12.2836 16.6591 11.0794 18.1501 10.121C20.8166 8.40893 23.3849 7.87648 26.0147 8.49085C28.0873 8.97416 29.6561 9.16257 31.0406 9.33049C34.1496 9.70731 36.3984 9.97763 40.8837 13.1478C42.8252 14.524 44.1933 16.49 45.5164 18.3905L45.5328 18.4109C45.9793 19.054 47.1999 22.2324 47.4334 25.9309C47.5358 27.5324 47.4334 31.6691 44.3326 35.5274C42.4648 37.8497 41.7807 38.9802 41.0516 40.1803L40.7526 40.6759C38.9667 43.588 35.3211 45.1567 31.1103 45.1567M23.9092 10.1087C22.3568 10.1087 20.8126 10.6289 19.1536 11.6897C17.7855 12.5662 16.5567 13.668 15.3688 14.7329C14.0744 15.892 12.8537 16.9856 11.6618 17.559C9.97825 18.3741 8.8682 19.6274 8.36028 21.2903C7.49599 24.1287 8.58147 27.5528 9.51949 29.1625L9.8267 29.6949C11.3996 32.4023 12.268 33.8973 16.3478 36.023C18.2648 37.0224 19.0881 37.9357 19.8827 38.8164C20.7839 39.8198 21.64 40.766 24.4376 41.921C30.4098 44.3826 36.8694 43.4078 39.1428 39.7051L39.4377 39.2177C40.1996 37.9644 40.9164 36.7807 42.8621 34.3642C45.5533 31.0138 45.6434 27.4381 45.5574 26.0538C45.3444 22.6583 44.2466 19.8854 43.9885 19.4759L43.9762 19.4554C42.7474 17.686 41.4776 15.8551 39.8023 14.6715C35.702 11.7716 33.8629 11.5504 30.8112 11.1818C29.3776 11.0098 27.7555 10.8132 25.5846 10.3053C25.0193 10.1742 24.4622 10.1087 23.9092 10.1087Z" fill="#15151F"/>
<path d="M29.4144 38.591C27.7432 38.591 25.904 38.2347 24.0116 37.4114C22.0168 36.5431 21.1443 35.6912 20.3005 34.8679C19.6902 34.274 19.1167 33.7129 18.0722 33.0739C15.2581 31.3537 14.4266 29.957 13.3862 27.86C12.1205 25.3124 11.6085 20.467 15.6063 18.3126C16.1183 18.0382 16.7205 17.5835 17.3554 17.1002C18.2893 16.3957 19.3502 15.593 20.5667 15.0032C22.3609 14.1348 24.073 13.926 25.8016 14.3642C27.4237 14.7738 28.6157 14.9663 29.7667 15.1588C30.4507 15.2735 31.0938 15.38 31.7861 15.5233C33.0764 15.7937 34.3789 16.3097 35.7593 17.1084C37.2012 17.944 38.299 19.2464 39.1796 20.4097C39.6834 21.0773 40.4822 23.1006 40.6788 25.5212C40.7894 26.8852 40.7034 29.5474 38.8806 32.0582C38.1269 33.0985 37.6477 33.8071 37.2299 34.4338C36.9882 34.7942 36.767 35.1219 36.5253 35.4659C35.2555 37.2763 32.6381 38.5951 29.4103 38.5951M24.0444 16.0107C23.1801 16.0107 22.3117 16.2319 21.3778 16.6865C20.321 17.1985 19.342 17.9399 18.4777 18.5952C17.7814 19.1195 17.1301 19.6151 16.487 19.9591C13.3002 21.6753 14.4102 25.7465 15.0533 27.0367C15.9954 28.9331 16.6017 29.9939 19.043 31.4848C20.2677 32.2343 20.9764 32.9265 21.6031 33.5327C22.3936 34.3027 23.0777 34.9703 24.7571 35.7035C29.226 37.6531 33.4778 36.5677 35.0016 34.3928C35.235 34.0569 35.4521 33.7375 35.6856 33.3893C36.1157 32.7504 36.6031 32.0254 37.3773 30.9564C38.9011 28.8593 38.897 26.5575 38.8274 25.6687C38.643 23.416 37.8975 21.794 37.7009 21.536C36.9308 20.5202 35.9846 19.3939 34.8295 18.7222C33.6212 18.0259 32.5029 17.5753 31.4092 17.346C30.7539 17.2108 30.1271 17.1084 29.4636 16.9978C28.3289 16.8094 27.0468 16.6005 25.3469 16.1746C24.9128 16.064 24.4827 16.0066 24.0485 16.0066" fill="#15151F"/>
<path d="M27.8211 32.0747C25.8877 32.0747 23.4095 31.2227 20.534 28.3679C18.5966 26.4429 18.0927 23.8462 19.2765 21.9088C20.1982 20.4057 22.3568 19.181 25.6419 20.2582C25.9041 20.3442 26.1621 20.4466 26.4202 20.5449C27.0633 20.7989 27.6163 21.0159 28.1201 20.9422C28.8574 20.8316 30.7375 20.7006 32.1999 21.8064C33.1666 22.5355 33.7482 23.6373 33.9366 25.0749C34.2029 27.1228 33.5803 29.0438 32.2285 30.338C31.7739 30.7763 30.2091 32.0788 27.8211 32.0788M23.2621 21.7163C22.1889 21.7163 21.341 22.1177 20.8699 22.8877C20.2637 23.8748 20.3333 25.5418 21.8489 27.0491C26.9117 32.0829 30.0863 29.8097 30.9382 28.9946C31.8599 28.114 32.2777 26.7747 32.0893 25.3206C31.9705 24.395 31.6305 23.7151 31.0775 23.2973C30.1518 22.5969 28.7878 22.7321 28.3945 22.7894C27.3992 22.9369 26.5185 22.5887 25.7402 22.2856C25.515 22.1955 25.2897 22.1095 25.0644 22.0358C24.4172 21.8228 23.811 21.7204 23.2662 21.7204" fill="#15151F"/>
</svg>
