<svg width="130" height="130" viewBox="0 0 130 130" fill="none" xmlns="http://www.w3.org/2000/svg">
<path d="M78.25 129.4H51.16C23.02 129.4 0 106.38 0 78.25V51.16C0 23.02 23.02 0 51.15 0H78.24C106.37 0 129.39 23.02 129.39 51.15V78.24C129.39 106.37 106.37 129.39 78.24 129.39" fill="#40FFB7"/>
<path d="M75.93 110.26C70.18 110.26 64 109.06 57.95 106.56C50.16 103.35 47.63 100.54 45.18 97.8201C43.44 95.8801 41.79 94.05 37.83 91.9901C26.7 86.19 24.07 81.6501 20.08 74.7901L19.33 73.5101C16.09 67.9801 13.69 58.4701 16.07 50.6601C17.69 45.3401 21.2 41.3401 26.5 38.7801C28.83 37.6501 31.58 35.1901 34.49 32.5801C37.38 29.9901 40.67 27.0501 44.31 24.7101C50.82 20.5301 57.09 19.2301 63.51 20.7301C68.57 21.9101 72.4 22.3701 75.78 22.7801C83.37 23.7001 88.86 24.3601 99.81 32.1001C104.55 35.4601 107.89 40.2601 111.12 44.9001L111.16 44.9501C112.25 46.5201 115.23 54.2801 115.8 63.3101C116.05 67.2201 115.8 77.3201 108.23 86.7401C103.67 92.41 102 95.1701 100.22 98.1001L99.49 99.3101C95.13 106.42 86.23 110.25 75.95 110.25M58.37 24.6801C54.58 24.6801 50.81 25.9501 46.76 28.5401C43.42 30.6801 40.42 33.3701 37.52 35.9701C34.36 38.8001 31.38 41.4701 28.47 42.8701C24.36 44.8601 21.65 47.9201 20.41 51.9801C18.3 58.9101 20.95 67.2701 23.24 71.2001L23.99 72.5001C27.83 79.1101 29.95 82.7601 39.91 87.9501C44.59 90.3901 46.6 92.62 48.54 94.7701C50.74 97.22 52.83 99.5301 59.66 102.35C74.24 108.36 90.01 105.98 95.56 96.9401L96.28 95.7501C98.14 92.6901 99.89 89.8001 104.64 83.9001C111.21 75.7201 111.43 66.9901 111.22 63.6101C110.7 55.3201 108.02 48.5501 107.39 47.5501L107.36 47.5001C104.36 43.1801 101.26 38.7101 97.17 35.8201C87.16 28.7401 82.67 28.2001 75.22 27.3001C71.72 26.8801 67.76 26.4001 62.46 25.1601C61.08 24.8401 59.72 24.6801 58.37 24.6801Z" fill="#15151F"/>
<path d="M71.81 94.2201C67.73 94.2201 63.24 93.3501 58.62 91.3401C53.75 89.2201 51.62 87.1401 49.56 85.1301C48.07 83.6801 46.67 82.3101 44.12 80.7501C37.25 76.5501 35.22 73.1401 32.68 68.0201C29.59 61.8001 28.34 49.9701 38.1 44.7101C39.35 44.0401 40.82 42.9301 42.37 41.7501C44.65 40.0301 47.24 38.0701 50.21 36.6301C54.59 34.5101 58.77 34.0001 62.99 35.0701C66.95 36.0701 69.86 36.5401 72.67 37.0101C74.34 37.2901 75.91 37.5501 77.6 37.9001C80.75 38.5601 83.93 39.8201 87.3 41.7701C90.82 43.8101 93.5 46.9901 95.65 49.8301C96.88 51.4601 98.83 56.4001 99.31 62.3101C99.58 65.6401 99.37 72.1401 94.92 78.2701C93.08 80.8101 91.91 82.5401 90.89 84.0701C90.3 84.9501 89.76 85.7501 89.17 86.5901C86.07 91.0101 79.68 94.2301 71.8 94.2301M58.7 39.0901C56.59 39.0901 54.47 39.6301 52.19 40.7401C49.61 41.9901 47.22 43.8001 45.11 45.4001C43.41 46.6801 41.82 47.8901 40.25 48.7301C32.47 52.9201 35.18 62.8601 36.75 66.0101C39.05 70.6401 40.53 73.2301 46.49 76.8701C49.48 78.7001 51.21 80.3901 52.74 81.8701C54.67 83.7501 56.34 85.3801 60.44 87.1701C71.35 91.9301 81.73 89.2801 85.45 83.9701C86.02 83.1501 86.55 82.3701 87.12 81.5201C88.17 79.9601 89.36 78.1901 91.25 75.5801C94.97 70.4601 94.96 64.8401 94.79 62.6701C94.34 57.1701 92.52 53.2101 92.04 52.5801C90.16 50.1001 87.85 47.3501 85.03 45.7101C82.08 44.0101 79.35 42.9101 76.68 42.3501C75.08 42.0201 73.55 41.7701 71.93 41.5001C69.16 41.0401 66.03 40.5301 61.88 39.4901C60.82 39.2201 59.77 39.0801 58.71 39.0801" fill="#15151F"/>
<path d="M67.92 78.3102C63.2 78.3102 57.15 76.2302 50.13 69.2602C45.4 64.5602 44.17 58.2202 47.06 53.4902C49.31 49.8202 54.58 46.8302 62.6 49.4602C63.24 49.6702 63.87 49.9202 64.5 50.1602C66.07 50.7802 67.42 51.3102 68.65 51.1302C70.45 50.8602 75.04 50.5402 78.61 53.2402C80.97 55.0202 82.39 57.7102 82.85 61.2202C83.5 66.2202 81.98 70.9102 78.68 74.0702C77.57 75.1402 73.75 78.3202 67.92 78.3202M56.79 53.0202C54.17 53.0202 52.1 54.0002 50.95 55.8802C49.47 58.2902 49.64 62.3602 53.34 66.0402C65.7 78.3302 73.45 72.7802 75.53 70.7902C77.78 68.6402 78.8 65.3702 78.34 61.8202C78.05 59.5602 77.22 57.9002 75.87 56.8802C73.61 55.1702 70.28 55.5002 69.32 55.6402C66.89 56.0002 64.74 55.1502 62.84 54.4102C62.29 54.1902 61.74 53.9802 61.19 53.8002C59.61 53.2802 58.13 53.0302 56.8 53.0302" fill="#15151F"/>
</svg>
