<svg width="178" height="77" viewBox="0 0 178 77" fill="none" xmlns="http://www.w3.org/2000/svg">
<g clip-path="url(#clip0_4004_402)">
<path d="M89.1156 20.0237C87.3088 20.0237 86.6808 21.7493 86.6808 23.7785C86.6808 25.8076 87.3325 27.3964 89.2519 27.3964C89.862 27.3964 90.3597 27.2298 90.7388 27.0572C91.0113 26.9501 91.2838 26.7954 91.5741 26.7954C92.048 26.7954 92.3205 27.1643 92.3205 27.5749C92.3205 27.8486 92.1961 28.1105 91.8644 28.3366C91.2127 28.765 89.9627 28.9911 89.1156 28.9911C86.1951 28.9911 84.9214 26.7002 84.9214 23.7249C84.9214 20.7496 86.1062 18.3992 89.0564 18.3992C89.8798 18.3992 90.6855 18.6134 91.2127 18.8395C91.8348 19.1311 92.2139 19.5714 92.2613 20.3509L92.3087 20.9162C92.3679 21.6184 91.9888 21.91 91.5504 21.91C91.1416 21.91 90.7921 21.6482 90.6973 21.1007L90.6085 20.3807C90.2116 20.1486 89.6192 20.0118 89.1215 20.0118" fill="#40FFB7"/>
<path d="M94.0444 19.3512C94.0444 18.8454 94.4413 18.4646 94.9271 18.4646C95.4425 18.4646 95.8216 18.8454 95.8216 19.3512V27.2774H99.2872C99.7138 27.2774 100.063 27.6284 100.063 28.0569C100.063 28.4853 99.7138 28.8483 99.2872 28.8483H94.9271C94.4413 28.8483 94.0444 28.4675 94.0444 27.9617V19.3512Z" fill="#40FFB7"/>
<path d="M101.035 19.3511C101.035 18.8632 101.432 18.4645 101.917 18.4645C102.403 18.4645 102.8 18.8632 102.8 19.3511V25.26C102.8 26.4679 103.41 27.3962 104.666 27.3962C105.922 27.3962 106.538 26.462 106.538 25.26V19.3511C106.538 18.8632 106.935 18.4645 107.421 18.4645C107.907 18.4645 108.303 18.8632 108.303 19.3511V25.2302C108.303 27.2594 107.101 29.0029 104.672 29.0029C102.243 29.0029 101.041 27.2653 101.041 25.2302V19.3511H101.035ZM103.179 16.953C103.179 16.7269 103.315 16.5127 103.529 16.3877L105.567 15.2452C105.732 15.156 105.898 15.0786 106.082 15.0786C106.538 15.0786 106.87 15.519 106.87 15.9474C106.87 16.2509 106.686 16.5246 106.366 16.6496L104.192 17.5957C104.103 17.6433 103.961 17.673 103.86 17.673C103.481 17.673 103.179 17.3696 103.179 16.953Z" fill="#40FFB7"/>
<path d="M113.517 27.4439C114.613 27.4439 115.187 26.9262 115.187 26.1288C115.187 25.1648 114.275 24.7721 113.09 24.2663C111.692 23.6713 110.276 23.0465 110.276 21.2732C110.276 19.607 111.52 18.405 113.653 18.405C114.293 18.405 115.033 18.53 115.596 18.7561C116.218 19.0179 116.526 19.3512 116.585 19.976L116.662 20.6603C116.721 21.3624 116.325 21.6362 115.886 21.6362C115.448 21.6362 115.11 21.3446 115.033 20.8448L114.956 20.2021C114.53 20.0474 114.026 19.976 113.617 19.976C112.598 19.976 112.065 20.3866 112.065 21.1363C112.065 21.9575 112.735 22.2669 113.996 22.7846C115.454 23.3975 116.976 24.1294 116.976 25.992C116.976 27.8545 115.56 28.997 113.528 28.997C112.889 28.997 111.935 28.878 111.295 28.6459C110.626 28.4019 110.324 28.033 110.276 27.3784L110.217 26.6287C110.17 25.8789 110.578 25.6528 110.975 25.6528C111.402 25.6528 111.763 25.9265 111.828 26.4621L111.905 27.1642C112.379 27.3487 113.09 27.438 113.517 27.438" fill="#40FFB7"/>
<path d="M120.477 20.1485H118.564C118.126 20.1485 117.776 19.7796 117.776 19.3571C117.776 18.9346 118.126 18.5657 118.564 18.5657H124.174C124.612 18.5657 124.962 18.9346 124.962 19.3571C124.962 19.7796 124.612 20.1485 124.174 20.1485H122.261V28.0568C122.261 28.5626 121.881 28.9434 121.366 28.9434C120.851 28.9434 120.483 28.5626 120.483 28.0568V20.1485H120.477Z" fill="#40FFB7"/>
<path d="M126.39 19.4464C126.39 18.9585 126.787 18.5598 127.272 18.5598H131.893C132.32 18.5598 132.681 18.9287 132.681 19.3512C132.681 19.7737 132.32 20.1427 131.893 20.1427H128.167V22.7549H131.07C131.508 22.7549 131.858 23.106 131.858 23.5345C131.858 23.9629 131.508 24.3259 131.07 24.3259H128.167V27.2714H131.905C132.332 27.2714 132.681 27.6225 132.681 28.0509C132.681 28.4794 132.332 28.8424 131.905 28.8424H127.266C126.781 28.8424 126.384 28.4615 126.384 27.9557V19.4345L126.39 19.4464Z" fill="#40FFB7"/>
<path d="M136.271 28.0569C136.271 28.5448 135.874 28.9435 135.376 28.9435C134.879 28.9435 134.494 28.5448 134.494 28.0569V19.4464C134.494 18.9704 134.891 18.5598 135.376 18.5598H137.9C139.802 18.5598 141.348 19.9046 141.348 21.8564C141.348 23.1417 140.631 24.0403 139.648 24.5104L141.395 27.5213C141.484 27.6582 141.591 27.9022 141.591 28.0866C141.591 28.6043 141.194 28.9435 140.708 28.9435C140.358 28.9435 140.068 28.6995 139.932 28.4734L137.989 24.9745C137.758 24.9745 137.55 24.9923 137.319 24.9923H136.271V28.0628V28.0569ZM136.271 23.5999H137.787C138.836 23.5999 139.582 22.9156 139.582 21.8624C139.582 20.8091 138.836 20.1546 137.787 20.1546H136.271V23.6059V23.5999Z" fill="#40FFB7"/>
<path d="M87.0954 35.2867H85.1819C84.7436 35.2867 84.394 34.9178 84.394 34.4953C84.394 34.0728 84.7436 33.7039 85.1819 33.7039H90.792C91.2304 33.7039 91.5799 34.0728 91.5799 34.4953C91.5799 34.9178 91.2304 35.2867 90.792 35.2867H88.8785V43.195C88.8785 43.7008 88.4994 44.0816 87.984 44.0816C87.4686 44.0816 87.1013 43.7008 87.1013 43.195V35.2867H87.0954Z" fill="#40FFB7"/>
<path d="M93.0076 34.5846C93.0076 34.0967 93.4045 33.698 93.8903 33.698H98.5111C98.9376 33.698 99.299 34.0669 99.299 34.4894C99.299 34.9119 98.9376 35.2808 98.5111 35.2808H94.7848V37.8931H97.6876C98.126 37.8931 98.4755 38.2442 98.4755 38.6726C98.4755 39.1011 98.126 39.4641 97.6876 39.4641H94.7848V42.4096H98.5229C98.9495 42.4096 99.299 42.7607 99.299 43.1891C99.299 43.6175 98.9495 43.9805 98.5229 43.9805H93.8844C93.3986 43.9805 93.0017 43.5997 93.0017 43.0939V34.5727L93.0076 34.5846Z" fill="#40FFB7"/>
<path d="M104.725 35.1676C102.919 35.1676 102.291 36.8933 102.291 38.9224C102.291 40.9515 102.942 42.5403 104.862 42.5403C105.472 42.5403 105.97 42.3737 106.349 42.2071C106.621 42.1 106.894 41.9453 107.184 41.9453C107.658 41.9453 107.93 42.3142 107.93 42.7248C107.93 42.9985 107.806 43.2604 107.474 43.4865C106.823 43.9149 105.573 44.141 104.725 44.141C101.805 44.141 100.531 41.8501 100.531 38.8748C100.531 35.8995 101.716 33.5491 104.666 33.5491C105.49 33.5491 106.295 33.7633 106.823 33.9894C107.445 34.281 107.824 34.7213 107.871 35.5008L107.919 36.0662C107.978 36.7683 107.599 37.0599 107.16 37.0599C106.752 37.0599 106.402 36.7981 106.307 36.2506L106.218 35.5306C105.821 35.2985 105.229 35.1617 104.731 35.1617" fill="#40FFB7"/>
<path d="M109.654 34.4953C109.654 34.0252 110.051 33.6086 110.626 33.6086C111.034 33.6086 111.354 33.805 111.55 34.1442L115.181 40.4815H115.24V34.4953C115.24 34.0252 115.637 33.6086 116.123 33.6086C116.609 33.6086 117.006 34.0073 117.006 34.4953V43.195C117.006 43.6532 116.639 44.0816 116.034 44.0816C115.626 44.0816 115.288 43.8852 115.092 43.546L111.473 37.3456H111.425V43.195C111.425 43.6829 111.029 44.0816 110.531 44.0816C110.033 44.0816 109.648 43.6829 109.648 43.195V34.4953H109.654Z" fill="#40FFB7"/>
<path d="M118.973 38.8629C118.973 36.0245 120.11 33.5491 123.078 33.5491C126.046 33.5491 127.183 36.0245 127.183 38.8629C127.183 41.7013 126.01 44.147 123.078 44.147C120.146 44.147 118.973 41.737 118.973 38.8629ZM125.418 38.8629C125.418 37.0896 124.885 35.1676 123.078 35.1676C121.271 35.1676 120.738 37.0896 120.738 38.8629C120.738 40.8504 121.36 42.5403 123.078 42.5403C124.796 42.5403 125.418 40.8444 125.418 38.8629Z" fill="#40FFB7"/>
<path d="M129.144 34.4953C129.144 33.9895 129.541 33.6086 130.027 33.6086C130.542 33.6086 130.922 33.9895 130.922 34.4953V42.4214H134.387C134.814 42.4214 135.163 42.7725 135.163 43.2009C135.163 43.6294 134.814 43.9923 134.387 43.9923H130.027C129.541 43.9923 129.144 43.6115 129.144 43.1057V34.4953Z" fill="#40FFB7"/>
<path d="M135.726 38.8631C135.726 36.0247 136.863 33.5493 139.831 33.5493C142.799 33.5493 143.937 36.0247 143.937 38.8631C143.937 41.7015 142.764 44.1472 139.831 44.1472C136.899 44.1472 135.726 41.7372 135.726 38.8631ZM142.171 38.8631C142.171 37.0898 141.638 35.1678 139.831 35.1678C138.025 35.1678 137.491 37.0898 137.491 38.8631C137.491 40.8506 138.113 42.5405 139.831 42.5405C141.549 42.5405 142.171 40.8446 142.171 38.8631ZM138.345 32.0973C138.345 31.8712 138.481 31.657 138.694 31.532L140.732 30.3895C140.898 30.3003 141.064 30.2229 141.247 30.2229C141.703 30.2229 142.035 30.6632 142.035 31.0917C142.035 31.3952 141.852 31.6689 141.532 31.7938L139.358 32.74C139.269 32.7876 139.126 32.8173 139.026 32.8173C138.647 32.8173 138.345 32.5139 138.345 32.0973Z" fill="#40FFB7"/>
<path d="M151.354 40.0054H150.169C149.713 40.0054 149.363 39.6543 149.363 39.2259C149.363 38.7974 149.695 38.4345 150.169 38.4345H152.295C152.704 38.4345 153.024 38.7736 153.024 39.1842V42.3321C153.024 42.9569 152.781 43.308 152.295 43.5995C151.626 43.9804 150.684 44.147 149.849 44.147C146.792 44.147 145.518 41.8441 145.518 38.8927C145.518 35.9412 146.733 33.5491 149.76 33.5491C150.489 33.5491 151.662 33.7157 152.402 34.2036C152.675 34.4 152.87 34.6321 152.87 34.9534C152.87 35.364 152.598 35.7746 152.112 35.7746C151.839 35.7746 151.579 35.6199 151.288 35.5008C150.957 35.3342 150.483 35.1676 149.872 35.1676C147.852 35.1676 147.272 36.9825 147.272 38.8748C147.272 40.9337 147.953 42.5403 149.902 42.5403C150.388 42.5403 150.98 42.4154 151.348 42.219V40.0054H151.354Z" fill="#40FFB7"/>
<path d="M155.198 42.4155H156.265V35.2867H155.198C154.76 35.2867 154.41 34.9237 154.41 34.4953C154.41 34.0668 154.76 33.7039 155.198 33.7039H159.102C159.541 33.7039 159.89 34.0728 159.89 34.4953C159.89 34.9178 159.541 35.2867 159.102 35.2867H158.024V42.4155H159.102C159.541 42.4155 159.89 42.7665 159.89 43.195C159.89 43.6234 159.541 43.9864 159.102 43.9864H155.198C154.76 43.9864 154.41 43.6353 154.41 43.195C154.41 42.7546 154.76 42.4155 155.198 42.4155Z" fill="#40FFB7"/>
<path d="M165.246 35.1676C163.439 35.1676 162.811 36.8933 162.811 38.9224C162.811 40.9515 163.462 42.5403 165.382 42.5403C165.992 42.5403 166.49 42.3737 166.869 42.2071C167.141 42.1 167.414 41.9453 167.704 41.9453C168.178 41.9453 168.45 42.3142 168.45 42.7248C168.45 42.9985 168.326 43.2604 167.994 43.4865C167.343 43.9149 166.093 44.141 165.246 44.141C162.325 44.141 161.051 41.8501 161.051 38.8748C161.051 35.8995 162.236 33.5491 165.186 33.5491C166.01 33.5491 166.815 33.7633 167.343 33.9894C167.965 34.281 168.344 34.7213 168.391 35.5008L168.439 36.0662C168.498 36.7683 168.119 37.0599 167.68 37.0599C167.272 37.0599 166.922 36.7981 166.827 36.2506L166.738 35.5306C166.341 35.2985 165.749 35.1617 165.251 35.1617" fill="#40FFB7"/>
<path d="M169.795 38.8629C169.795 36.0245 170.933 33.5491 173.901 33.5491C176.868 33.5491 178.006 36.0245 178.006 38.8629C178.006 41.7013 176.833 44.147 173.901 44.147C170.968 44.147 169.795 41.737 169.795 38.8629ZM176.241 38.8629C176.241 37.0896 175.707 35.1676 173.901 35.1676C172.094 35.1676 171.561 37.0896 171.561 38.8629C171.561 40.8504 172.183 42.5403 173.901 42.5403C175.619 42.5403 176.241 40.8444 176.241 38.8629Z" fill="#40FFB7"/>
<path d="M85.3005 49.7287C85.3005 49.2586 85.6974 48.842 86.1832 48.842H88.0967C90.8632 48.842 92.6404 50.3059 92.6404 54.0012C92.6404 57.6964 90.6973 59.1305 88.0671 59.1305H86.1832C85.6974 59.1305 85.3005 58.7318 85.3005 58.2439V49.7227V49.7287ZM88.0493 57.5596C89.9035 57.5596 90.8751 56.6432 90.8751 54.0012C90.8751 51.3591 89.9331 50.4308 88.0611 50.4308H87.0718V57.5596H88.0434H88.0493Z" fill="#40FFB7"/>
<path d="M94.619 49.7287C94.619 49.2407 95.0159 48.842 95.5016 48.842H100.122C100.549 48.842 100.91 49.211 100.91 49.6394C100.91 50.0679 100.549 50.4308 100.122 50.4308H96.3962V53.0431H99.299C99.7373 53.0431 100.087 53.3942 100.087 53.8226C100.087 54.2511 99.7373 54.6141 99.299 54.6141H96.3962V57.5596H100.134C100.561 57.5596 100.91 57.9107 100.91 58.3391C100.91 58.7675 100.561 59.1305 100.134 59.1305H95.4957C95.0099 59.1305 94.613 58.7497 94.613 58.2439V49.7227L94.619 49.7287Z" fill="#40FFB7"/>
<path d="M102.723 49.6335C102.723 49.1277 103.12 48.7468 103.606 48.7468C104.121 48.7468 104.5 49.1277 104.5 49.6335V57.5596H107.966C108.392 57.5596 108.742 57.9107 108.742 58.3391C108.742 58.7675 108.392 59.1305 107.966 59.1305H103.606C103.12 59.1305 102.723 58.7497 102.723 58.2439V49.6335Z" fill="#40FFB7"/>
<path d="M114.684 50.4307H112.77C112.332 50.4307 111.982 50.0618 111.982 49.6393C111.982 49.2168 112.332 48.8479 112.77 48.8479H118.38C118.819 48.8479 119.168 49.2109 119.168 49.6393C119.168 50.0678 118.819 50.4307 118.38 50.4307H116.467V58.339C116.467 58.8448 116.088 59.2256 115.572 59.2256C115.057 59.2256 114.69 58.8448 114.69 58.339V50.4307H114.684Z" fill="#40FFB7"/>
<path d="M119.826 54.0011C119.826 51.1627 120.963 48.6873 123.931 48.6873C126.899 48.6873 128.036 51.1627 128.036 54.0011C128.036 56.8395 126.863 59.2852 123.931 59.2852C120.999 59.2852 119.826 56.8752 119.826 54.0011ZM126.271 54.0011C126.271 52.2278 125.738 50.3058 123.931 50.3058C122.124 50.3058 121.591 52.2278 121.591 54.0011C121.591 55.9886 122.213 57.6785 123.931 57.6785C125.649 57.6785 126.271 55.9826 126.271 54.0011Z" fill="#40FFB7"/>
<path d="M129.997 49.6335C129.997 49.1277 130.394 48.7468 130.88 48.7468C131.395 48.7468 131.775 49.1277 131.775 49.6335V57.5596H135.24C135.667 57.5596 136.016 57.9107 136.016 58.3391C136.016 58.7675 135.667 59.1305 135.24 59.1305H130.88C130.394 59.1305 129.997 58.7497 129.997 58.2439V49.6335Z" fill="#40FFB7"/>
<path d="M137.551 57.5596H138.617V50.4308H137.551C137.112 50.4308 136.763 50.0619 136.763 49.6394C136.763 49.2169 137.112 48.842 137.551 48.842H141.455C141.893 48.842 142.242 49.211 142.242 49.6394C142.242 50.0679 141.893 50.4308 141.455 50.4308H140.376V57.5596H141.455C141.893 57.5596 142.242 57.9107 142.242 58.3391C142.242 58.7675 141.893 59.1305 141.455 59.1305H137.551C137.112 59.1305 136.763 58.7794 136.763 58.3391C136.763 57.8988 137.112 57.5596 137.551 57.5596Z" fill="#40FFB7"/>
<path d="M143.919 49.6512C143.919 49.1633 144.316 48.7527 144.813 48.7527C145.27 48.7527 145.59 48.9491 145.773 49.3358L148.172 54.0963H148.202L150.619 49.3358C150.803 48.955 151.134 48.7527 151.579 48.7527C152.082 48.7527 152.461 49.1633 152.461 49.6512V58.339C152.461 58.827 152.082 59.2256 151.579 59.2256C151.075 59.2256 150.696 58.827 150.696 58.339V52.5848H150.619L149.162 55.5006C148.978 55.8814 148.646 56.1254 148.19 56.1254C147.764 56.1254 147.402 55.8814 147.219 55.5006L145.773 52.5848H145.696V58.339C145.696 58.827 145.299 59.2256 144.802 59.2256C144.304 59.2256 143.919 58.827 143.919 58.339V49.6512Z" fill="#40FFB7"/>
<path d="M156.448 50.157C156.75 49.1335 157.236 48.7527 158.137 48.7527C159.108 48.7527 159.535 49.1335 159.825 50.157L162.118 58.0355C162.165 58.1724 162.177 58.2617 162.177 58.339C162.177 58.827 161.78 59.2256 161.294 59.2256C160.885 59.2256 160.548 58.9638 160.441 58.6008L159.926 56.7086H156.342L155.826 58.6008C155.72 58.9698 155.388 59.2256 154.973 59.2256C154.487 59.2256 154.091 58.827 154.091 58.339C154.091 58.2617 154.108 58.1724 154.15 58.0355L156.442 50.157H156.448ZM156.739 55.2566H159.535L158.196 50.3415H158.077L156.739 55.2566Z" fill="#40FFB7"/>
<path d="M46.3557 77H30.3075C13.6372 77 0 63.3019 0 46.563V30.443C0 13.6981 13.6372 0 30.3015 0H46.3498C63.0141 0 76.6513 13.6981 76.6513 30.437V46.557C76.6513 63.2959 63.0141 76.9941 46.3498 76.9941" fill="#40FFB7"/>
<path d="M44.9814 65.6107C41.5751 65.6107 37.914 64.8966 34.3299 63.409C29.7151 61.4989 28.2163 59.8268 26.7649 58.2082C25.7341 57.0538 24.7567 55.9649 22.4108 54.7391C15.8173 51.2877 14.2593 48.5862 11.8956 44.5041L11.4513 43.7425C9.53186 40.4518 8.11009 34.7928 9.52002 30.1455C10.4797 26.9798 12.5591 24.5996 15.6988 23.0762C17.0791 22.4038 18.7082 20.94 20.4321 19.3869C22.1442 17.8457 24.0932 16.0962 26.2495 14.7038C30.1061 12.2165 33.8205 11.4429 37.6237 12.3355C40.6213 13.0377 42.8902 13.3114 44.8925 13.5554C49.3889 14.1028 52.6412 14.4955 59.128 19.1013C61.936 21.1006 63.9147 23.9569 65.8281 26.718L65.8518 26.7477C66.4976 27.6819 68.2629 32.2996 68.6006 37.6729C68.7487 39.9996 68.6006 46.0096 64.1161 51.615C61.4147 54.989 60.4254 56.6313 59.3709 58.3748L58.9385 59.0948C56.3556 63.3257 51.0832 65.6047 44.9932 65.6047M34.5788 14.686C32.3335 14.686 30.1002 15.4417 27.7009 16.9829C25.7223 18.2563 23.9451 19.857 22.2271 21.4041C20.3551 23.0881 18.5897 24.6769 16.8658 25.51C14.4311 26.6942 12.8256 28.515 12.0911 30.9309C10.8411 35.0547 12.411 40.0293 13.7676 42.3679L14.2119 43.1415C16.4867 47.0748 17.7426 49.2467 23.643 52.335C26.4154 53.787 27.6061 55.1139 28.7554 56.3933C30.0587 57.8512 31.2968 59.2258 35.343 60.9038C43.9802 64.4801 53.3225 63.0639 56.6103 57.6846L57.0368 56.9765C58.1387 55.1556 59.1754 53.4359 61.9893 49.9251C65.8815 45.0575 66.0118 39.8627 65.8874 37.8514C65.5793 32.9184 63.9917 28.8899 63.6185 28.2949L63.6007 28.2651C61.8235 25.6945 59.987 23.0346 57.5641 21.3149C51.6341 17.1019 48.9742 16.7806 44.5608 16.245C42.4874 15.9951 40.1414 15.7095 37.0017 14.9716C36.1842 14.7812 35.3785 14.686 34.5788 14.686Z" fill="#15151F"/>
<path d="M42.5406 56.066C40.1236 56.066 37.4637 55.5484 34.7268 54.3523C31.8418 53.0908 30.58 51.8531 29.3596 50.657C28.4769 49.7942 27.6476 48.979 26.1369 48.0507C22.0671 45.5514 20.8645 43.5223 19.3598 40.4756C17.5293 36.7744 16.7888 29.7349 22.5706 26.6049C23.3111 26.2062 24.182 25.5457 25.1002 24.8436C26.4509 23.8201 27.9852 22.6538 29.7447 21.7969C32.3394 20.5354 34.8157 20.2319 37.3156 20.8686C39.6615 21.4637 41.3854 21.7433 43.0501 22.023C44.0394 22.1896 44.9695 22.3443 45.9706 22.5526C47.8367 22.9453 49.7206 23.6951 51.717 24.8555C53.8022 26.0694 55.3899 27.9616 56.6636 29.6516C57.3922 30.6215 58.5474 33.5611 58.8318 37.0779C58.9917 39.0594 58.8673 42.9273 56.2311 46.5749C55.1411 48.0864 54.448 49.1158 53.8437 50.0262C53.4942 50.5499 53.1743 51.0259 52.8248 51.5258C50.9883 54.1559 47.2029 56.072 42.5347 56.072M34.7742 23.2607C33.5242 23.2607 32.2683 23.582 30.9176 24.2426C29.3892 24.9864 27.9734 26.0634 26.7234 27.0155C25.7163 27.7772 24.7744 28.4972 23.8443 28.997C19.2354 31.4903 20.8408 37.4052 21.7709 39.2796C23.1334 42.0347 24.0102 43.5759 27.5409 45.7419C29.3122 46.8308 30.3371 47.8365 31.2435 48.7171C32.3868 49.8358 33.3761 50.8058 35.805 51.8709C42.2681 54.7034 48.4173 53.1265 50.621 49.9667C50.9587 49.4788 51.2727 49.0147 51.6103 48.5089C52.2324 47.5806 52.9373 46.5273 54.057 44.9742C56.2607 41.9276 56.2548 38.5834 56.1541 37.2921C55.8875 34.0193 54.8093 31.6629 54.525 31.288C53.4113 29.8123 52.0428 28.1759 50.3722 27.2C48.6246 26.1884 47.0074 25.5338 45.4256 25.2006C44.4778 25.0042 43.5714 24.8555 42.6117 24.6948C40.9707 24.4211 39.1165 24.1176 36.658 23.4987C36.0301 23.3381 35.4081 23.2548 34.7801 23.2548" fill="#15151F"/>
<path d="M40.2362 46.5988C37.4401 46.5988 33.856 45.3611 29.6973 41.2136C26.8952 38.4168 26.1666 34.6442 27.8786 31.8296C29.2115 29.6457 32.3335 27.8665 37.0846 29.4315C37.4637 29.5565 37.837 29.7052 38.2102 29.848C39.1403 30.217 39.94 30.5323 40.6687 30.4252C41.735 30.2646 44.4541 30.0742 46.569 31.6808C47.9671 32.74 48.8083 34.3407 49.0808 36.4293C49.4659 39.4046 48.5654 42.1954 46.6105 44.0758C45.9529 44.7125 43.6899 46.6048 40.2362 46.6048M33.6427 31.5499C32.0906 31.5499 30.8644 32.133 30.1831 33.2517C29.3063 34.6858 29.407 37.1077 31.5989 39.2975C38.9211 46.6107 43.5122 43.3082 44.7444 42.124C46.0773 40.8446 46.6816 38.8988 46.4091 36.7864C46.2373 35.4415 45.7456 34.4537 44.9458 33.8468C43.607 32.8293 41.6343 33.0256 41.0656 33.1089C39.626 33.3231 38.3524 32.8173 37.2268 32.377C36.901 32.2461 36.5751 32.1211 36.2493 32.014C35.3133 31.7046 34.4366 31.5558 33.6487 31.5558" fill="#15151F"/>
</g>
<defs>
<clipPath id="clip0_4004_402">
<rect width="178" height="77" fill="white"/>
</clipPath>
</defs>
</svg>
