<svg width="34" height="34" viewBox="0 0 34 34" fill="none" xmlns="http://www.w3.org/2000/svg">
<path d="M13.4587 12.75H13.4728M20.542 12.75H20.5562M13.4587 18.4167C13.9203 18.8879 14.4714 19.2622 15.0795 19.5178C15.6877 19.7733 16.3407 19.9049 17.0003 19.9049C17.66 19.9049 18.313 19.7733 18.9211 19.5178C19.5293 19.2622 20.0803 18.8879 20.542 18.4167M5.66699 29.75V11.3334C5.66699 10.2062 6.11476 9.1252 6.91179 8.32817C7.70882 7.53114 8.78982 7.08337 9.91699 7.08337H24.0837C25.2108 7.08337 26.2918 7.53114 27.0889 8.32817C27.8859 9.1252 28.3337 10.2062 28.3337 11.3334V19.8334C28.3337 20.9605 27.8859 22.0415 27.0889 22.8386C26.2918 23.6356 25.2108 24.0834 24.0837 24.0834H11.3337L5.66699 29.75Z" stroke="#07CB81" stroke-width="2" stroke-linecap="round" stroke-linejoin="round"/>
</svg>
