<svg width="36" height="36" viewBox="0 0 36 36" fill="none" xmlns="http://www.w3.org/2000/svg">
<path d="M8.454 8.45397C9.79715 7.11058 11.4087 6.06579 13.1833 5.38789C14.9579 4.71 16.8556 4.41426 18.7523 4.52002C20.6491 4.62578 22.5021 5.13065 24.1904 6.00163C25.8786 6.87261 27.364 8.09009 28.5495 9.57447L20.121 18L28.5495 26.4255C27.403 27.8585 25.9764 29.0428 24.3568 29.9059C22.7371 30.769 20.9585 31.2928 19.1297 31.4453C17.3008 31.5978 15.46 31.3758 13.7198 30.7929C11.9796 30.21 10.3765 29.2783 9.0085 28.0549C7.64051 26.8315 6.53632 25.3421 5.76341 23.6775C4.99051 22.013 4.56511 20.2083 4.51321 18.3738C4.46131 16.5393 4.78401 14.7134 5.46158 13.0079C6.13914 11.3023 7.15736 9.75275 8.454 8.45397Z" stroke="#07CB81" stroke-width="2.5" stroke-linecap="round" stroke-linejoin="round"/>
<path d="M17.25 12.75C18.0784 12.75 18.75 12.0784 18.75 11.25C18.75 10.4216 18.0784 9.75 17.25 9.75C16.4216 9.75 15.75 10.4216 15.75 11.25C15.75 12.0784 16.4216 12.75 17.25 12.75Z" stroke="#07CB81" stroke-width="2.5" stroke-linecap="round" stroke-linejoin="round"/>
</svg>
