<svg width="34" height="34" viewBox="0 0 34 34" fill="none" xmlns="http://www.w3.org/2000/svg">
<path d="M9.91664 19.8333C8.44221 20.6657 7.24998 21.9195 6.49277 23.4339C5.73557 24.9483 5.4479 26.6543 5.66664 28.3333C7.34561 28.552 9.05166 28.2644 10.5661 27.5072C12.0805 26.7499 13.3342 25.5577 14.1666 24.0833M5.66665 18.4166C8.19269 18.7168 10.5443 19.8581 12.3431 21.6569C14.1418 23.4556 15.2831 25.8072 15.5833 28.3333C16.8355 27.6114 17.883 26.5821 18.6266 25.3426C19.3703 24.1032 19.7856 22.6946 19.8333 21.25C22.2121 20.4132 24.2892 18.8898 25.8022 16.8725C27.3152 14.8552 28.196 12.4345 28.3333 9.91663C28.3333 8.78946 27.8855 7.70845 27.0885 6.91142C26.2915 6.11439 25.2105 5.66663 24.0833 5.66663C21.5654 5.80391 19.1448 6.68473 17.1275 8.19772C15.1102 9.7107 13.5868 11.7879 12.75 14.1666C11.3054 14.2143 9.89675 14.6296 8.65732 15.3733C7.41789 16.117 6.38857 17.1644 5.66665 18.4166ZM19.8333 12.75C19.8333 13.1257 19.9826 13.486 20.2482 13.7517C20.5139 14.0174 20.8743 14.1666 21.25 14.1666C21.6257 14.1666 21.986 14.0174 22.2517 13.7517C22.5174 13.486 22.6666 13.1257 22.6666 12.75C22.6666 12.3742 22.5174 12.0139 22.2517 11.7482C21.986 11.4825 21.6257 11.3333 21.25 11.3333C20.8743 11.3333 20.5139 11.4825 20.2482 11.7482C19.9826 12.0139 19.8333 12.3742 19.8333 12.75Z" stroke="currentColor" stroke-width="2" stroke-linecap="round" stroke-linejoin="round"/>
</svg>
