<svg width="74" height="74" viewBox="0 0 74 74" fill="none" xmlns="http://www.w3.org/2000/svg">
<path d="M40.1392 63.7849C39.1125 64.1518 38.0641 64.4725 37.0004 64.75C32.2003 63.505 27.6994 61.3077 23.7653 58.2888C19.8312 55.2699 16.544 51.491 14.0992 47.1766C11.6544 42.8622 10.1018 38.1004 9.53367 33.1741C8.96554 28.2479 9.39347 23.2576 10.7921 18.5C20.3983 18.9396 29.7982 15.6219 37.0004 9.25C44.2025 15.6219 53.6025 18.9396 63.2087 18.5C64.5438 23.0387 64.9816 27.7438 64.5531 32.3596M64.7501 46.25H57.0418C55.8152 46.25 54.6388 46.7373 53.7714 47.6046C52.9041 48.472 52.4168 49.6484 52.4168 50.875C52.4168 52.1016 52.9041 53.278 53.7714 54.1454C54.6388 55.0127 55.8152 55.5 57.0418 55.5H60.1251C61.3518 55.5 62.5282 55.9873 63.3955 56.8546C64.2629 57.722 64.7501 58.8984 64.7501 60.125C64.7501 61.3516 64.2629 62.528 63.3955 63.3954C62.5282 64.2627 61.3518 64.75 60.1251 64.75H52.4168M58.5835 64.75V67.8333M58.5835 43.1667V46.25" stroke="#40FFB7" stroke-width="2" stroke-linecap="round" stroke-linejoin="round"/>
</svg>
