<svg width="36" height="36" viewBox="0 0 36 36" fill="none" xmlns="http://www.w3.org/2000/svg">
<path d="M6 15H30M15 9L13.5 21M21 9L22.5 21M18 21V27M10.5 27H25.5M6.42 21H29.58C29.808 21 30.033 20.948 30.2379 20.848C30.4428 20.748 30.6222 20.6026 30.7625 20.4228C30.9028 20.2431 31.0002 20.0337 31.0474 19.8106C31.0947 19.5876 31.0904 19.3567 31.035 19.1355L28.785 10.1355C28.7037 9.81113 28.5164 9.52321 28.2528 9.31748C27.9892 9.11175 27.6644 9.00001 27.33 9H8.67C8.33561 9.00001 8.01081 9.11175 7.74719 9.31748C7.48358 9.52321 7.29626 9.81113 7.215 10.1355L4.965 19.1355C4.9096 19.3567 4.90534 19.5876 4.95256 19.8106C4.99978 20.0337 5.09723 20.2431 5.2375 20.4228C5.37778 20.6026 5.55718 20.748 5.76209 20.848C5.96699 20.948 6.192 21 6.42 21Z" stroke="#07CB81" stroke-width="2.5" stroke-linecap="round" stroke-linejoin="round"/>
</svg>
