<svg width="34" height="34" viewBox="0 0 34 34" fill="none" xmlns="http://www.w3.org/2000/svg">
<path d="M25.5 11.3334C26.6272 11.3334 27.7082 11.7811 28.5052 12.5782C29.3022 13.3752 29.75 14.4562 29.75 15.5834C29.75 16.7105 29.3022 17.7915 28.5052 18.5886C27.7082 19.3856 26.6272 19.8334 25.5 19.8334M14.1667 11.3334V26.9167C14.1667 27.2924 14.0174 27.6528 13.7517 27.9184C13.4861 28.1841 13.1257 28.3334 12.75 28.3334H11.3333C10.9576 28.3334 10.5973 28.1841 10.3316 27.9184C10.0659 27.6528 9.91667 27.2924 9.91667 26.9167V19.8334M17 11.3333L23.409 5.99247C23.5952 5.83735 23.8218 5.73853 24.0622 5.70758C24.3026 5.67663 24.5468 5.71484 24.7662 5.81772C24.9857 5.9206 25.1713 6.0839 25.3012 6.28848C25.4312 6.49306 25.5001 6.73044 25.5 6.9728V24.1938C25.5001 24.4362 25.4312 24.6735 25.3012 24.8781C25.1713 25.0827 24.9857 25.246 24.7662 25.3489C24.5468 25.4518 24.3026 25.49 24.0622 25.459C23.8218 25.4281 23.5952 25.3292 23.409 25.1741L17 19.8333H5.66667C5.29094 19.8333 4.93061 19.684 4.66493 19.4184C4.39926 19.1527 4.25 18.7924 4.25 18.4166V12.75C4.25 12.3742 4.39926 12.0139 4.66493 11.7482C4.93061 11.4826 5.29094 11.3333 5.66667 11.3333H17Z" stroke="#07CB81" stroke-width="2" stroke-linecap="round" stroke-linejoin="round"/>
</svg>
