<svg width="34" height="34" viewBox="0 0 34 34" fill="none" xmlns="http://www.w3.org/2000/svg">
<path d="M4.25 24.0833H7.64575C8.78464 24.0832 9.90672 23.8085 10.9168 23.2825C11.927 22.7565 12.7954 21.9946 13.4484 21.0615L13.6992 20.7031M18.8842 13.2982L19.1349 12.9384C19.788 12.0053 20.6564 11.2435 21.6665 10.7174C22.6766 10.1914 23.7987 9.91671 24.9376 9.91663H29.75M29.75 9.91663L25.5 5.66663M29.75 9.91663L25.5 14.1666M4.25 9.91663H7.64575C8.78464 9.91671 9.90672 10.1914 10.9168 10.7174C11.927 11.2435 12.7954 12.0053 13.4484 12.9384L19.1349 21.0615C19.788 21.9946 20.6564 22.7565 21.6665 23.2825C22.6766 23.8085 23.7987 24.0832 24.9376 24.0833H29.75M29.75 24.0833L25.5 28.3333M29.75 24.0833L25.5 19.8333" stroke="#07CB81" stroke-width="2" stroke-linecap="round" stroke-linejoin="round"/>
</svg>
