<svg width="1920" height="597" viewBox="0 0 1920 597" fill="none" xmlns="http://www.w3.org/2000/svg">
<g clip-path="url(#clip0_5011_5606)">
<mask id="mask0_5011_5606" style="mask-type:luminance" maskUnits="userSpaceOnUse" x="-10" y="0" width="1940" height="597">
<path d="M1930 0H-10V597H1930V0Z" fill="white"/>
</mask>
<g mask="url(#mask0_5011_5606)">
<mask id="mask1_5011_5606" style="mask-type:luminance" maskUnits="userSpaceOnUse" x="210" y="-408" width="1420" height="1263">
<path d="M1629.02 -407.353H210.904V854.13H1629.02V-407.353Z" fill="white"/>
</mask>
<g mask="url(#mask1_5011_5606)">
<g opacity="0.1">
<mask id="mask2_5011_5606" style="mask-type:luminance" maskUnits="userSpaceOnUse" x="210" y="-408" width="1420" height="1263">
<path d="M1629.02 -407.353H210.904V854.13H1629.02V-407.353Z" fill="white"/>
</mask>
<g mask="url(#mask2_5011_5606)">
<path d="M275.083 501.922C321.08 568.167 368.563 636.756 433.846 682.918C658.611 841.848 713.364 788.211 956.437 845.059C1055.09 868.132 1139.39 838.326 1213.25 790.909C1319.55 722.663 1404.21 617.928 1478.91 581.849C1693.58 478.164 1630.48 220.951 1570.12 117.78C1505.16 6.74398 1476.1 -55.5264 1311.27 -141.434C1167.52 -216.352 1210.91 -275.079 1017.87 -354.662C786.065 -450.221 538.891 -409.525 448.108 -261.497C416.699 -210.282 394.4 -169.388 316.912 -73.0108C221.84 45.245 208.169 175.308 212.791 248.689C220.983 378.686 263.558 485.317 275.089 501.922H275.083Z" stroke="#40FFB7" stroke-opacity="0.56" stroke-width="4" stroke-miterlimit="10"/>
</g>
</g>
<g opacity="0.14">
<mask id="mask3_5011_5606" style="mask-type:luminance" maskUnits="userSpaceOnUse" x="239" y="-384" width="1377" height="1221">
<path d="M1615.61 -383.882H239.698V836.187H1615.61V-383.882Z" fill="white"/>
</mask>
<g mask="url(#mask3_5011_5606)">
<path d="M466.945 -240.591C436.25 -190.708 414.503 -150.521 340.442 -57.439C249.505 57.1241 236.818 183.036 241.699 254.853C250.19 379.869 290.985 482.409 302.571 498.987C347.092 562.977 393.144 628.906 456.177 673.261C672.966 825.878 728.194 773.922 960.808 827.669C1055.65 849.332 1136.85 820.93 1208.1 775.862C1310.47 710.983 1392.12 611.234 1464.53 577.305C1675.27 478.556 1619.56 230.835 1561.94 128.703C1500.57 19.9333 1471.01 -42.3095 1310.67 -126.376C1170.76 -199.746 1209.41 -256.903 1023.23 -333.358C794.488 -426.617 554.82 -383.578 466.945 -240.591Z" stroke="#40FFB7" stroke-opacity="0.56" stroke-width="4.01" stroke-miterlimit="10"/>
</g>
</g>
<g opacity="0.19">
<mask id="mask4_5011_5606" style="mask-type:luminance" maskUnits="userSpaceOnUse" x="268" y="-361" width="1335" height="1180">
<path d="M1602.36 -360.688H268.483V818.349H1602.36V-360.688Z" fill="white"/>
</mask>
<g mask="url(#mask4_5011_5606)">
<path d="M485.785 -219.69C455.797 -171.134 434.603 -131.655 363.981 -41.8729C277.183 68.9978 265.481 190.758 270.616 261.016C279.395 381.052 318.459 479.479 330.068 496.052C373.251 557.692 417.733 621.057 478.516 663.61C687.328 809.908 742.899 760.213 965.187 810.284C1056.16 830.775 1134.3 803.534 1202.98 760.821C1301.41 699.308 1380.05 604.562 1450.16 572.772C1657.01 478.971 1608.65 240.751 1553.77 139.643C1495.98 33.1556 1465.92 -29.0816 1310.09 -111.296C1174.01 -183.113 1208.12 -239.148 1028.6 -312.032C803.146 -403.566 570.753 -357.625 485.785 -219.69Z" stroke="#40FFB7" stroke-opacity="0.56" stroke-width="4.01" stroke-miterlimit="10"/>
</g>
</g>
<g opacity="0.23">
<mask id="mask5_5011_5606" style="mask-type:luminance" maskUnits="userSpaceOnUse" x="297" y="-338" width="1293" height="1139">
<path d="M1589.3 -337.388H297.25V800.461H1589.3V-337.388Z" fill="white"/>
</mask>
<g mask="url(#mask5_5011_5606)">
<path d="M504.625 -198.784C475.35 -151.555 454.709 -112.789 387.513 -26.3012C304.851 80.8769 294.127 198.486 299.528 267.185C308.571 382.235 345.906 476.566 357.558 493.116C399.326 552.463 442.316 613.207 500.849 653.958C701.685 793.938 757.664 746.211 969.566 792.893C1056.7 812.091 1131.77 786.133 1197.85 745.775C1292.34 687.628 1367.99 597.895 1435.78 568.228C1638.79 479.391 1597.73 250.674 1545.61 150.566C1491.37 46.3835 1460.84 -15.8648 1309.51 -96.2387C1177.27 -166.502 1206.72 -221.166 1033.98 -290.728C811.676 -380.239 586.685 -331.678 504.625 -198.79V-198.784Z" stroke="#40FFB7" stroke-opacity="0.56" stroke-width="4.02" stroke-miterlimit="10"/>
</g>
</g>
<g opacity="0.27">
<mask id="mask6_5011_5606" style="mask-type:luminance" maskUnits="userSpaceOnUse" x="325" y="-315" width="1252" height="1098">
<path d="M1576.43 -314.105H325.983V782.589H1576.43V-314.105Z" fill="white"/>
</mask>
<g mask="url(#mask6_5011_5606)">
<path d="M523.463 -177.879C494.895 -131.976 474.608 -94.072 411.044 -10.7297C332.268 92.5624 322.771 206.208 328.443 273.348C337.74 383.417 373.361 473.647 385.053 490.181C425.394 547.239 466.902 605.358 523.192 644.306C716.05 777.974 772.45 732.198 973.949 775.508C1057.25 793.413 1129.32 768.88 1192.72 730.733C1283.4 676.163 1355.95 591.251 1421.41 563.689C1620.59 479.827 1586.8 260.629 1537.45 161.499C1486.74 59.6555 1455.76 -2.64253 1308.93 -81.1701C1180.53 -149.886 1205.32 -203.157 1039.35 -269.413C820.21 -356.89 602.62 -305.725 523.468 -177.879H523.463Z" stroke="#40FFB7" stroke-opacity="0.56" stroke-width="4.03" stroke-miterlimit="10"/>
</g>
</g>
<g opacity="0.31">
<mask id="mask7_5011_5606" style="mask-type:luminance" maskUnits="userSpaceOnUse" x="354" y="-291" width="1210" height="1056">
<path d="M1563.78 -290.849H354.703V764.708H1563.78V-290.849Z" fill="white"/>
</mask>
<g mask="url(#mask7_5011_5606)">
<path d="M542.295 -156.978C514.44 -112.402 494.656 -75.2441 434.575 4.83129C359.878 104.387 351.409 213.92 357.352 279.507C366.876 384.59 400.806 470.723 412.541 487.24C451.457 542.01 491.478 597.503 545.523 634.65C730.405 761.999 787.225 718.174 978.32 758.118C1057.78 774.729 1126.8 751.518 1187.58 715.687C1274.37 664.533 1343.91 584.618 1407.03 559.146C1602.44 480.286 1575.85 270.596 1529.27 172.422C1482.08 72.9335 1450.67 10.5747 1308.33 -66.1067C1183.77 -133.269 1203.9 -185.136 1044.71 -248.103C828.722 -333.535 618.539 -279.777 542.295 -156.978Z" stroke="#40FFB7" stroke-opacity="0.56" stroke-width="4.03" stroke-miterlimit="10"/>
</g>
</g>
<g opacity="0.36">
<mask id="mask8_5011_5606" style="mask-type:luminance" maskUnits="userSpaceOnUse" x="383" y="-268" width="1169" height="1015">
<path d="M1551.37 -267.621H383.404V746.825H1551.37V-267.621Z" fill="white"/>
</mask>
<g mask="url(#mask8_5011_5606)">
<path d="M561.133 -136.072C533.992 -92.8278 514.711 -56.4053 458.106 20.4032C387.489 116.227 380.038 221.642 386.262 285.676C395.991 385.773 428.251 467.81 440.025 484.305C477.498 536.797 516.054 589.654 567.849 624.993C744.76 746.023 802 704.145 982.692 740.728C1058.32 756.04 1124.27 734.15 1182.44 700.64C1265.32 652.903 1331.89 578.007 1392.65 554.608C1584.34 480.779 1564.88 280.596 1521.1 183.351C1477.38 86.2501 1445.58 23.7917 1307.74 -51.0433C1187.02 -116.653 1202.47 -167.094 1050.07 -226.794C837.229 -310.169 634.465 -253.83 561.128 -136.077L561.133 -136.072Z" stroke="#40FFB7" stroke-opacity="0.56" stroke-width="4.04" stroke-miterlimit="10"/>
</g>
</g>
<g opacity="0.4">
<mask id="mask9_5011_5606" style="mask-type:luminance" maskUnits="userSpaceOnUse" x="412" y="-245" width="1128" height="974">
<path d="M1539.2 -244.383H412.071V728.942H1539.2V-244.383Z" fill="white"/>
</mask>
<g mask="url(#mask9_5011_5606)">
<path d="M579.973 -115.166C553.628 -73.1934 534.773 -37.5614 481.645 35.9746C415.107 128.067 408.673 229.358 415.185 291.844C425.096 386.955 455.709 464.897 467.527 481.375C503.557 531.59 540.649 581.81 590.2 615.347C759.134 730.065 816.811 690.115 987.083 723.343C1058.88 737.356 1121.76 716.792 1177.32 685.599C1256.29 641.272 1319.91 571.423 1378.28 550.069C1566.29 481.303 1553.9 290.617 1512.94 194.285C1472.68 99.5938 1440.5 37.0194 1307.17 -35.9749C1190.28 -100.036 1201.04 -149.023 1055.45 -205.479C845.743 -286.787 650.635 -227.728 579.979 -115.166H579.973Z" stroke="#40FFB7" stroke-opacity="0.56" stroke-width="4.05" stroke-miterlimit="10"/>
</g>
</g>
<g opacity="0.44">
<mask id="mask10_5011_5606" style="mask-type:luminance" maskUnits="userSpaceOnUse" x="440" y="-222" width="1088" height="934">
<path d="M1527.3 -221.199H440.718V711.06H1527.3V-221.199Z" fill="white"/>
</mask>
<g mask="url(#mask10_5011_5606)">
<path d="M598.811 -94.2649C573.185 -53.6137 554.832 -18.7224 505.176 51.5412C442.724 139.908 437.284 237.07 444.095 298.003C454.161 388.128 483.148 461.979 495.016 478.429C529.593 526.377 565.23 573.949 612.531 605.684C773.489 714.084 831.603 676.053 991.455 705.947C1059.42 718.656 1119.22 699.419 1172.19 670.547C1247.24 629.636 1307.92 564.851 1363.91 545.52C1548.28 481.857 1542.89 300.656 1504.76 205.202C1467.92 112.949 1435.41 50.2256 1306.57 -20.9224C1193.52 -83.4305 1199.59 -130.953 1060.81 -184.174C854.234 -263.404 666.582 -201.775 598.806 -94.2705L598.811 -94.2649Z" stroke="#40FFB7" stroke-opacity="0.56" stroke-width="4.05" stroke-miterlimit="10"/>
</g>
</g>
<g opacity="0.49">
<mask id="mask11_5011_5606" style="mask-type:luminance" maskUnits="userSpaceOnUse" x="469" y="-199" width="1047" height="893">
<path d="M1515.67 -198.044H469.318V693.183H1515.67V-198.044Z" fill="white"/>
</mask>
<g mask="url(#mask11_5011_5606)">
<path d="M617.65 -73.3592C592.742 -34.029 574.898 0.127085 528.708 67.1127C470.34 151.76 465.891 244.787 473.005 304.171C483.204 389.31 510.594 459.071 522.506 475.499C555.623 521.181 589.812 566.105 634.864 596.038C787.845 698.12 846.406 661.995 995.833 688.568C1059.98 699.971 1116.7 682.061 1167.05 655.511C1238.18 618.011 1295.95 558.322 1349.53 540.987C1530.33 482.486 1531.85 310.733 1496.59 216.142C1463.13 126.354 1430.33 63.4588 1305.99 -5.84294C1196.78 -66.7977 1198.13 -112.828 1066.18 -162.848C862.719 -239.977 682.524 -175.794 617.645 -73.3482L617.65 -73.3592Z" stroke="#40FFB7" stroke-opacity="0.56" stroke-width="4.06" stroke-miterlimit="10"/>
</g>
</g>
<g opacity="0.53">
<mask id="mask12_5011_5606" style="mask-type:luminance" maskUnits="userSpaceOnUse" x="497" y="-175" width="1008" height="851">
<path d="M1504.34 -174.91H497.877V675.312H1504.34V-174.91Z" fill="white"/>
</mask>
<g mask="url(#mask12_5011_5606)">
<path d="M636.481 -52.4531C612.292 -14.4496 594.956 18.9769 552.238 82.6845C497.961 163.617 494.484 252.503 501.918 310.34C512.217 390.493 538.037 456.158 549.994 472.57C581.646 515.99 614.392 558.261 657.194 586.392C802.198 682.155 861.218 647.922 1000.2 671.183C1060.53 681.282 1114.16 664.693 1161.91 640.47C1229.13 606.375 1284.01 551.821 1335.15 536.449C1512.43 483.172 1520.77 320.832 1488.42 227.07C1458.31 139.77 1425.24 76.6758 1305.4 9.22032C1200.03 -50.1867 1196.67 -94.7019 1071.54 -141.539C871.196 -216.545 698.47 -149.836 636.476 -52.4476L636.481 -52.4531Z" stroke="#40FFB7" stroke-opacity="0.56" stroke-width="4.07" stroke-miterlimit="10"/>
</g>
</g>
<g opacity="0.57">
<mask id="mask13_5011_5606" style="mask-type:luminance" maskUnits="userSpaceOnUse" x="526" y="-152" width="968" height="810">
<path d="M1493.31 -151.809H526.393V657.441H1493.31V-151.809Z" fill="white"/>
</mask>
<g mask="url(#mask13_5011_5606)">
<path d="M655.322 -31.5525C631.845 5.12987 615.035 37.8322 575.771 98.2508C525.59 175.474 523.07 260.209 530.831 316.504C541.195 391.671 565.473 453.25 577.485 469.629C607.667 510.794 638.976 550.406 679.533 576.73C816.561 666.18 876.051 633.81 1004.58 653.787C1061.1 662.571 1111.63 647.319 1156.79 625.418C1220.07 594.728 1272.09 545.343 1320.78 531.905C1494.6 483.929 1509.66 330.948 1480.26 237.999C1453.44 153.208 1420.16 89.8983 1304.82 24.2836C1203.28 -33.5701 1195.2 -76.5431 1076.92 -120.229C879.667 -193.085 714.414 -123.883 655.322 -31.547V-31.5525Z" stroke="#40FFB7" stroke-opacity="0.56" stroke-width="4.08" stroke-miterlimit="10"/>
</g>
</g>
<g opacity="0.61">
<mask id="mask14_5011_5606" style="mask-type:luminance" maskUnits="userSpaceOnUse" x="554" y="-129" width="929" height="769">
<path d="M1482.6 -128.731H554.849V639.575H1482.6V-128.731Z" fill="white"/>
</mask>
<g mask="url(#mask14_5011_5606)">
<path d="M674.16 -10.6466C651.402 24.7091 635.111 56.6928 599.302 113.817C553.223 187.336 551.631 267.915 559.74 322.662C570.138 392.848 592.912 450.331 604.974 466.688C633.674 505.604 663.557 542.546 701.865 567.073C830.916 650.205 890.887 619.675 1008.96 636.396C1061.67 643.859 1109.09 629.94 1151.65 610.372C1211.01 583.075 1260.18 538.903 1306.4 527.361C1476.83 484.792 1498.5 341.086 1472.09 248.921C1448.52 166.668 1415.08 103.11 1304.23 39.3466C1206.54 -16.9538 1193.71 -58.3624 1082.29 -98.9197C888.118 -169.598 730.344 -97.9302 674.16 -10.6411V-10.6466Z" stroke="#40FFB7" stroke-opacity="0.56" stroke-width="4.08" stroke-miterlimit="10"/>
</g>
</g>
<g opacity="0.66">
<mask id="mask15_5011_5606" style="mask-type:luminance" maskUnits="userSpaceOnUse" x="583" y="-106" width="890" height="728">
<path d="M1472.19 -105.68H583.237V621.715H1472.19V-105.68Z" fill="white"/>
</mask>
<g mask="url(#mask15_5011_5606)">
<path d="M692.996 10.2597C670.951 44.2887 655.192 75.5649 622.837 129.389C580.865 199.216 580.18 275.626 588.654 328.831C599.046 394.037 620.35 447.424 632.467 463.759C659.68 500.424 688.143 534.702 724.2 557.427C845.275 634.241 905.744 605.518 1013.34 619.017C1062.25 625.153 1106.55 612.572 1146.52 595.336C1201.93 571.434 1248.29 532.524 1292.02 522.828C1459.1 485.787 1487.28 351.257 1463.91 259.855C1443.54 180.156 1409.98 116.338 1303.63 54.4156C1209.78 -0.331524 1192.2 -40.1426 1087.65 -77.6043C896.551 -146.071 746.262 -71.9715 692.985 10.2652L692.996 10.2597Z" stroke="#40FFB7" stroke-opacity="0.56" stroke-width="4.09" stroke-miterlimit="10"/>
</g>
</g>
<g opacity="0.7">
<mask id="mask16_5011_5606" style="mask-type:luminance" maskUnits="userSpaceOnUse" x="611" y="-83" width="852" height="687">
<path d="M1462.09 -82.6567H611.547V603.877H1462.09V-82.6567Z" fill="white"/>
</mask>
<g mask="url(#mask16_5011_5606)">
<path d="M711.838 31.1601C690.501 63.8624 675.288 94.4366 646.372 144.955C608.518 211.095 608.7 283.337 617.573 334.994C627.921 395.225 647.787 444.522 659.965 460.818C685.686 495.245 712.733 526.847 746.547 547.764C859.645 618.26 920.633 591.306 1017.73 601.616C1062.85 606.408 1104.02 595.176 1141.4 580.279C1192.87 559.765 1236.43 526.167 1277.66 518.273C1441.45 486.92 1476.01 361.423 1455.76 270.773C1438.53 193.644 1404.91 129.543 1303.07 69.4676C1213.05 16.2683 1190.71 -21.9176 1093.03 -56.3059C904.989 -122.512 762.207 -46.0409 711.843 31.1601H711.838Z" stroke="#40FFB7" stroke-opacity="0.56" stroke-width="4.1" stroke-miterlimit="10"/>
</g>
</g>
<g opacity="0.74">
<mask id="mask17_5011_5606" style="mask-type:luminance" maskUnits="userSpaceOnUse" x="639" y="-60" width="814" height="647">
<path d="M1452.32 -59.6503H639.767V586.055H1452.32V-59.6503Z" fill="white"/>
</mask>
<g mask="url(#mask17_5011_5606)">
<path d="M730.67 52.0661C710.04 83.4417 695.386 113.325 669.903 160.527C636.178 222.996 637.184 291.059 646.482 341.163C656.736 396.424 675.215 441.62 687.448 457.888C711.666 490.082 737.309 519.003 768.873 538.118C873.994 602.301 935.518 577.045 1022.09 584.236C1063.43 587.669 1101.45 577.796 1136.25 565.243C1183.77 548.101 1224.55 519.887 1263.27 513.741C1423.82 488.263 1464.64 371.621 1447.58 281.707C1433.43 207.159 1399.81 142.771 1302.47 84.5362C1216.29 32.8902 1189.18 -3.63734 1098.39 -34.9909C913.374 -98.8809 778.11 -20.0935 730.665 52.0661H730.67Z" stroke="#40FFB7" stroke-opacity="0.56" stroke-width="4.1" stroke-miterlimit="10"/>
</g>
</g>
<g opacity="0.79">
<mask id="mask18_5011_5606" style="mask-type:luminance" maskUnits="userSpaceOnUse" x="667" y="-37" width="776" height="607">
<path d="M1442.83 -36.6655H667.866V569.361H1442.83V-36.6655Z" fill="white"/>
</mask>
<g mask="url(#mask18_5011_5606)">
<path d="M749.507 72.9723C729.585 103.016 715.5 132.219 693.433 176.099C663.854 234.903 665.629 298.788 675.391 347.327C685.507 397.63 702.637 438.718 714.937 454.947C737.645 484.908 761.89 511.148 791.203 528.461C888.349 586.326 950.431 562.7 1026.47 566.846C1064.03 568.891 1098.88 560.395 1131.12 550.196C1174.67 536.416 1212.7 513.652 1248.89 509.202C1406.23 489.85 1453.2 381.826 1439.41 292.641C1428.27 220.68 1394.73 155.994 1301.88 99.6107C1219.53 49.5179 1187.64 14.6764 1103.75 -13.6701C921.747 -75.1776 794.011 5.85404 749.496 72.9834L749.507 72.9723Z" stroke="#40FFB7" stroke-opacity="0.56" stroke-width="4.11" stroke-miterlimit="10"/>
</g>
</g>
<g opacity="0.83">
<mask id="mask19_5011_5606" style="mask-type:luminance" maskUnits="userSpaceOnUse" x="695" y="-14" width="739" height="571">
<path d="M1433.65 -13.6923H695.839V556.714H1433.65V-13.6923Z" fill="white"/>
</mask>
<g mask="url(#mask19_5011_5606)">
<path d="M768.347 93.8726C749.126 122.584 735.639 151.124 716.966 191.665C691.56 246.826 694.02 306.515 704.307 353.49C714.235 398.846 730.061 435.821 742.432 452.012C763.626 479.75 786.478 503.299 813.547 518.809C902.721 570.356 965.539 554.099 1030.86 549.456C1064.59 547.056 1096.33 542.977 1126 535.15C1165.58 524.702 1200.86 507.478 1234.53 504.658C1388.68 491.74 1441.69 392.024 1431.25 303.563C1423.07 234.184 1389.65 169.211 1301.31 114.668C1222.8 66.1232 1186.11 33.0173 1109.14 7.63375C930.117 -51.3974 809.932 31.7791 768.358 93.8782L768.347 93.8726Z" stroke="#40FFB7" stroke-opacity="0.56" stroke-width="4.12" stroke-miterlimit="10"/>
</g>
</g>
<g opacity="0.87">
<mask id="mask20_5011_5606" style="mask-type:luminance" maskUnits="userSpaceOnUse" x="723" y="9" width="702" height="533">
<path d="M1424.77 9.27002H723.642V541.363H1424.77V9.27002Z" fill="white"/>
</mask>
<g mask="url(#mask20_5011_5606)">
<path d="M787.184 114.779C768.661 142.152 755.798 170.04 740.502 207.231C719.309 258.755 722.349 314.265 733.222 359.654C742.907 400.073 757.478 432.93 769.927 449.077C789.6 474.593 811.064 495.449 835.884 509.158C917.082 554.392 980.745 538.864 1035.23 532.071C1065.08 528.35 1093.76 525.542 1120.86 520.109C1156.46 512.967 1189 498.722 1220.15 500.12C1371.07 506.897 1430.04 402.212 1423.08 314.492C1417.78 247.683 1384.57 182.428 1300.72 129.731C1226.05 82.7398 1184.56 51.3973 1114.51 28.9435C938.424 -27.4951 825.818 57.7045 787.19 114.779H787.184Z" stroke="#40FFB7" stroke-opacity="0.56" stroke-width="4.12" stroke-miterlimit="10"/>
</g>
</g>
<g opacity="0.91">
<mask id="mask21_5011_5606" style="mask-type:luminance" maskUnits="userSpaceOnUse" x="751" y="32" width="666" height="493">
<path d="M1416.18 32.2435H751.249V524.426H1416.18V32.2435Z" fill="white"/>
</mask>
<g mask="url(#mask21_5011_5606)">
<path d="M806.024 135.685C788.186 161.715 775.998 188.973 764.035 222.803C747.098 270.712 750.575 322.054 762.134 365.823C771.515 401.328 784.881 430.045 797.418 446.142C815.565 469.447 835.648 487.6 858.218 499.501C931.439 538.417 995.312 518.843 1039.61 514.68C1065.93 512.204 1091.17 508.069 1115.73 505.057C1147.34 501.182 1177.2 493.432 1205.77 495.571C1353.01 506.604 1418.28 412.372 1414.91 325.415C1412.42 261.154 1379.48 195.645 1300.12 144.795C1229.3 99.3563 1182.99 69.8214 1119.86 50.2531C946.679 -3.42719 841.69 83.6187 806.019 135.685H806.024Z" stroke="#40FFB7" stroke-opacity="0.56" stroke-width="4.13" stroke-miterlimit="10"/>
</g>
</g>
<g opacity="0.96">
<mask id="mask22_5011_5606" style="mask-type:luminance" maskUnits="userSpaceOnUse" x="778" y="55" width="630" height="455">
<path d="M1407.89 55.2336H778.602V509.634H1407.89V55.2336Z" fill="white"/>
</mask>
<g mask="url(#mask22_5011_5606)">
<path d="M824.859 156.585C807.668 181.239 796.236 207.9 787.563 238.369C774.96 282.674 778.658 329.887 791.046 371.981C800.056 402.605 812.278 427.165 824.909 443.201C841.52 464.295 860.231 479.745 880.552 489.844C945.796 522.441 1010.21 503.713 1043.99 497.284C1066.52 492.995 1088.61 490.541 1110.6 490.004C1138.23 489.33 1165.21 489.374 1191.4 491.021C1335.6 500.087 1406.39 422.488 1406.74 336.332C1406.99 274.587 1374.39 208.851 1299.54 159.847C1232.55 115.956 1181.42 88.2731 1125.23 71.5516C954.889 20.8453 857.484 109.467 824.854 156.574L824.859 156.585Z" stroke="#40FFB7" stroke-opacity="0.56" stroke-width="4.14" stroke-miterlimit="10"/>
</g>
</g>
<mask id="mask23_5011_5606" style="mask-type:luminance" maskUnits="userSpaceOnUse" x="805" y="78" width="595" height="417">
<path d="M1399.91 78.2845H805.619V494.99H1399.91V78.2845Z" fill="white"/>
</mask>
<g mask="url(#mask23_5011_5606)">
<path d="M819.959 378.15C870.875 531.175 1011.12 493.006 1048.36 479.905C1089.56 465.406 1133.73 481.049 1177.03 486.494C1415.11 516.444 1470.53 289.943 1298.96 174.927C1020.84 -11.5198 882.152 123.071 843.695 177.497C802.475 235.837 797.594 310.943 819.959 378.155V378.15Z" stroke="#40FFB7" stroke-opacity="0.56" stroke-width="4.14" stroke-miterlimit="10"/>
</g>
</g>
</g>
</g>
<defs>
<clipPath id="clip0_5011_5606">
<rect width="1920" height="597" fill="white"/>
</clipPath>
</defs>
</svg>
