<svg width="34" height="34" viewBox="0 0 34 34" fill="none" xmlns="http://www.w3.org/2000/svg">
<path d="M17 29.75C15.3256 29.75 13.6677 29.4202 12.1208 28.7795C10.5739 28.1387 9.16834 27.1996 7.98439 26.0156C6.80044 24.8317 5.86128 23.4261 5.22054 21.8792C4.57979 20.3323 4.25 18.6744 4.25 17C4.25 15.3256 4.57979 13.6677 5.22054 12.1208C5.86128 10.5739 6.80044 9.16834 7.98439 7.98439C9.16834 6.80044 10.5739 5.86128 12.1208 5.22054C13.6677 4.57979 15.3256 4.25 17 4.25M17 29.75C18.6744 29.75 20.3323 29.4202 21.8792 28.7795C23.4261 28.1387 24.8317 27.1996 26.0156 26.0156C27.1996 24.8317 28.1387 23.4261 28.7795 21.8792C29.4202 20.3323 29.75 18.6744 29.75 17C29.75 15.3256 29.4202 13.6677 28.7795 12.1208C28.1387 10.5739 27.1996 9.16834 26.0156 7.98439C24.8317 6.80044 23.4261 5.86128 21.8792 5.22054C20.3323 4.57979 18.6744 4.25 17 4.25M17 29.75V4.25M16.2916 4.25C14.2994 5.72567 12.6807 7.64766 11.5653 9.86184C10.4499 12.076 9.86894 14.5208 9.86894 17C9.86894 19.4792 10.4499 21.924 11.5653 24.1382C12.6807 26.3523 14.2994 28.2743 16.2916 29.75M17.7083 4.25C19.7006 5.72567 21.3193 7.64766 22.4347 9.86184C23.55 12.076 24.131 14.5208 24.131 17C24.131 19.4792 23.55 21.924 22.4347 24.1382C21.3193 26.3523 19.7006 28.2743 17.7083 29.75" stroke="#07CB81" stroke-width="2" stroke-linecap="round" stroke-linejoin="round"/>
</svg>
