<svg width="26" height="26" viewBox="0 0 26 26" fill="none" xmlns="http://www.w3.org/2000/svg">
<path d="M8.125 13C8.98695 13 9.8136 12.6576 10.4231 12.0481C11.0326 11.4386 11.375 10.612 11.375 9.75C11.375 8.88805 11.0326 8.0614 10.4231 7.4519C9.8136 6.84241 8.98695 6.5 8.125 6.5H3.25V19.5H8.125C8.98695 19.5 9.8136 19.1576 10.4231 18.5481C11.0326 17.9386 11.375 17.112 11.375 16.25C11.375 15.388 11.0326 14.5614 10.4231 13.9519C9.8136 13.3424 8.98695 13 8.125 13ZM8.125 13H3.25M15.1667 14.0833H22.75C22.75 13.0777 22.3505 12.1133 21.6394 11.4022C20.9284 10.6911 19.9639 10.2917 18.9583 10.2917C17.9527 10.2917 16.9883 10.6911 16.2772 11.4022C15.5661 12.1133 15.1667 13.0777 15.1667 14.0833ZM15.1667 14.0833V16.25C15.2784 17.0611 15.6497 17.8142 16.2249 18.3967C16.8002 18.9792 17.5486 19.3599 18.3582 19.4819C19.1678 19.6038 19.9951 19.4604 20.7164 19.0731C21.4377 18.6858 22.0143 18.0755 22.36 17.3333M17.3333 6.5H20.5833" stroke="currentColor" stroke-width="1.5" stroke-linecap="round" stroke-linejoin="round"/>
</svg>
