<svg width="26" height="26" viewBox="0 0 26 26" fill="none" xmlns="http://www.w3.org/2000/svg">
<path d="M3.25 9.75008C3.25 8.60081 3.70655 7.49861 4.5192 6.68595C5.33186 5.87329 6.43406 5.41675 7.58333 5.41675H18.4167C19.5659 5.41675 20.6681 5.87329 21.4808 6.68595C22.2935 7.49861 22.75 8.60081 22.75 9.75008V16.2501C22.75 17.3994 22.2935 18.5016 21.4808 19.3142C20.6681 20.1269 19.5659 20.5834 18.4167 20.5834H7.58333C6.43406 20.5834 5.33186 20.1269 4.5192 19.3142C3.70655 18.5016 3.25 17.3994 3.25 16.2501V9.75008Z" stroke="currentColor" stroke-width="1.5" stroke-linecap="round" stroke-linejoin="round"/>
<path d="M10.8333 9.75008L16.25 13.0001L10.8333 16.2501V9.75008Z" stroke="currentColor" stroke-width="1.5" stroke-linecap="round" stroke-linejoin="round"/>
</svg>
